<mxfile host="65bd71144e">
    <diagram id="uYz5bvnbQDSMbY-R6XCo" name="Page-1">
        <mxGraphModel dx="2105" dy="-4800" grid="0" gridSize="10" guides="1" tooltips="1" connect="1" arrows="1" fold="1" page="0" pageScale="1" pageWidth="827" pageHeight="1169" math="0" shadow="0">
            <root>
                <mxCell id="0"/>
                <mxCell id="1" parent="0"/>
                <mxCell id="52" value="" style="rounded=0;whiteSpace=wrap;html=1;" parent="1" vertex="1">
                    <mxGeometry y="5950" width="720" height="550" as="geometry"/>
                </mxCell>
                <mxCell id="51" value="" style="rounded=0;whiteSpace=wrap;html=1;" parent="1" vertex="1">
                    <mxGeometry x="-840" y="5880" width="720" height="980" as="geometry"/>
                </mxCell>
                <mxCell id="2" style="edgeStyle=orthogonalEdgeStyle;rounded=0;orthogonalLoop=1;jettySize=auto;html=1;exitX=0.5;exitY=1;exitDx=0;exitDy=0;entryX=0.5;entryY=0;entryDx=0;entryDy=0;" parent="1" source="3" target="7" edge="1">
                    <mxGeometry relative="1" as="geometry"/>
                </mxCell>
                <mxCell id="3" value="Get List of Images from DB" style="rounded=0;whiteSpace=wrap;html=1;" parent="1" vertex="1">
                    <mxGeometry x="-660.09" y="5980" width="160" height="40" as="geometry"/>
                </mxCell>
                <mxCell id="4" value="" style="edgeStyle=orthogonalEdgeStyle;rounded=0;orthogonalLoop=1;jettySize=auto;html=1;" parent="1" source="5" target="3" edge="1">
                    <mxGeometry relative="1" as="geometry"/>
                </mxCell>
                <mxCell id="5" value="Start" style="ellipse;whiteSpace=wrap;html=1;" parent="1" vertex="1">
                    <mxGeometry x="-640.09" y="5920" width="120" height="40" as="geometry"/>
                </mxCell>
                <mxCell id="6" value="" style="edgeStyle=orthogonalEdgeStyle;rounded=0;orthogonalLoop=1;jettySize=auto;html=1;" parent="1" source="7" target="36" edge="1">
                    <mxGeometry relative="1" as="geometry"/>
                </mxCell>
                <mxCell id="7" value="Get List of Requests from DB" style="rounded=0;whiteSpace=wrap;html=1;" parent="1" vertex="1">
                    <mxGeometry x="-660.09" y="6040" width="160" height="40" as="geometry"/>
                </mxCell>
                <mxCell id="8" value="" style="edgeStyle=orthogonalEdgeStyle;rounded=0;orthogonalLoop=1;jettySize=auto;html=1;" parent="1" source="9" target="12" edge="1">
                    <mxGeometry relative="1" as="geometry"/>
                </mxCell>
                <mxCell id="9" value="Initialize Image ID Score List to empty List" style="rounded=0;whiteSpace=wrap;html=1;" parent="1" vertex="1">
                    <mxGeometry x="-660.09" y="6160" width="160" height="40" as="geometry"/>
                </mxCell>
                <mxCell id="10" value="Yes" style="edgeStyle=orthogonalEdgeStyle;rounded=0;orthogonalLoop=1;jettySize=auto;html=1;exitX=0.5;exitY=1;exitDx=0;exitDy=0;entryX=0.5;entryY=0;entryDx=0;entryDy=0;" parent="1" source="12" target="15" edge="1">
                    <mxGeometry x="-0.5" relative="1" as="geometry">
                        <mxPoint as="offset"/>
                    </mxGeometry>
                </mxCell>
                <mxCell id="11" value="No" style="edgeStyle=orthogonalEdgeStyle;rounded=0;orthogonalLoop=1;jettySize=auto;html=1;exitX=0;exitY=0.5;exitDx=0;exitDy=0;entryX=0;entryY=0.5;entryDx=0;entryDy=0;" parent="1" source="12" target="33" edge="1">
                    <mxGeometry x="-0.9778" relative="1" as="geometry">
                        <Array as="points">
                            <mxPoint x="-800.09" y="6260"/>
                            <mxPoint x="-800.09" y="6740"/>
                        </Array>
                        <mxPoint as="offset"/>
                    </mxGeometry>
                </mxCell>
                <mxCell id="12" value="Next Image&lt;div&gt;exist?&lt;/div&gt;" style="rhombus;whiteSpace=wrap;html=1;" parent="1" vertex="1">
                    <mxGeometry x="-640.09" y="6220" width="120" height="80" as="geometry"/>
                </mxCell>
                <mxCell id="13" value="" style="edgeStyle=orthogonalEdgeStyle;rounded=0;orthogonalLoop=1;jettySize=auto;html=1;exitX=1;exitY=0.5;exitDx=0;exitDy=0;" parent="1" source="37" target="18" edge="1">
                    <mxGeometry relative="1" as="geometry"/>
                </mxCell>
                <mxCell id="14" style="edgeStyle=orthogonalEdgeStyle;rounded=0;orthogonalLoop=1;jettySize=auto;html=1;entryX=0.5;entryY=0;entryDx=0;entryDy=0;" parent="1" source="15" target="37" edge="1">
                    <mxGeometry relative="1" as="geometry"/>
                </mxCell>
                <mxCell id="15" value="Get Next Image" style="rounded=0;whiteSpace=wrap;html=1;" parent="1" vertex="1">
                    <mxGeometry x="-660.09" y="6320" width="160" height="40" as="geometry"/>
                </mxCell>
                <mxCell id="16" value="No" style="edgeStyle=orthogonalEdgeStyle;rounded=0;orthogonalLoop=1;jettySize=auto;html=1;exitX=0;exitY=0.5;exitDx=0;exitDy=0;entryX=1;entryY=0.5;entryDx=0;entryDy=0;" parent="1" source="18" target="25" edge="1">
                    <mxGeometry x="-0.8333" relative="1" as="geometry">
                        <Array as="points">
                            <mxPoint x="-570.09" y="6480"/>
                            <mxPoint x="-570.09" y="6480"/>
                        </Array>
                        <mxPoint as="offset"/>
                        <mxPoint x="-460.09000000000003" y="6700" as="targetPoint"/>
                    </mxGeometry>
                </mxCell>
                <mxCell id="17" value="Yes" style="edgeStyle=orthogonalEdgeStyle;rounded=0;orthogonalLoop=1;jettySize=auto;html=1;exitX=0.5;exitY=1;exitDx=0;exitDy=0;entryX=0.5;entryY=0;entryDx=0;entryDy=0;" parent="1" source="18" target="20" edge="1">
                    <mxGeometry relative="1" as="geometry">
                        <mxPoint as="offset"/>
                    </mxGeometry>
                </mxCell>
                <mxCell id="18" value="Next Request&lt;div&gt;exist?&lt;/div&gt;" style="rhombus;whiteSpace=wrap;html=1;" parent="1" vertex="1">
                    <mxGeometry x="-520.09" y="6440" width="120" height="80" as="geometry"/>
                </mxCell>
                <mxCell id="19" value="" style="edgeStyle=orthogonalEdgeStyle;rounded=0;orthogonalLoop=1;jettySize=auto;html=1;" parent="1" source="20" target="22" edge="1">
                    <mxGeometry relative="1" as="geometry"/>
                </mxCell>
                <mxCell id="20" value="Get next Request" style="rounded=0;whiteSpace=wrap;html=1;" parent="1" vertex="1">
                    <mxGeometry x="-540.09" y="6540" width="160" height="40" as="geometry"/>
                </mxCell>
                <mxCell id="21" style="edgeStyle=orthogonalEdgeStyle;rounded=0;orthogonalLoop=1;jettySize=auto;html=1;exitX=1;exitY=0.5;exitDx=0;exitDy=0;entryX=1;entryY=0.5;entryDx=0;entryDy=0;" parent="1" source="22" target="18" edge="1">
                    <mxGeometry relative="1" as="geometry">
                        <Array as="points">
                            <mxPoint x="-370.09000000000003" y="6620"/>
                            <mxPoint x="-370.09000000000003" y="6480"/>
                        </Array>
                    </mxGeometry>
                </mxCell>
                <mxCell id="22" value="Increment Image Score by Request Score" style="rounded=0;whiteSpace=wrap;html=1;" parent="1" vertex="1">
                    <mxGeometry x="-540.09" y="6600" width="160" height="40" as="geometry"/>
                </mxCell>
                <mxCell id="23" value="Yes" style="edgeStyle=orthogonalEdgeStyle;rounded=0;orthogonalLoop=1;jettySize=auto;html=1;entryX=0.5;entryY=0;entryDx=0;entryDy=0;" parent="1" source="25" target="27" edge="1">
                    <mxGeometry relative="1" as="geometry"/>
                </mxCell>
                <mxCell id="24" value="No" style="edgeStyle=orthogonalEdgeStyle;rounded=0;orthogonalLoop=1;jettySize=auto;html=1;exitX=0;exitY=0.5;exitDx=0;exitDy=0;entryX=0;entryY=0.5;entryDx=0;entryDy=0;" parent="1" source="25" target="31" edge="1">
                    <mxGeometry x="-0.9444" relative="1" as="geometry">
                        <Array as="points">
                            <mxPoint x="-790.09" y="6480"/>
                            <mxPoint x="-790.09" y="6680"/>
                        </Array>
                        <mxPoint as="offset"/>
                    </mxGeometry>
                </mxCell>
                <mxCell id="25" value="Next Link&lt;div&gt;exist?&lt;/div&gt;" style="rhombus;whiteSpace=wrap;html=1;" parent="1" vertex="1">
                    <mxGeometry x="-760.09" y="6440" width="120" height="80" as="geometry"/>
                </mxCell>
                <mxCell id="26" style="edgeStyle=orthogonalEdgeStyle;rounded=0;orthogonalLoop=1;jettySize=auto;html=1;exitX=0.5;exitY=1;exitDx=0;exitDy=0;entryX=0.5;entryY=0;entryDx=0;entryDy=0;" parent="1" source="27" target="29" edge="1">
                    <mxGeometry relative="1" as="geometry"/>
                </mxCell>
                <mxCell id="27" value="Get next Link" style="rounded=0;whiteSpace=wrap;html=1;" parent="1" vertex="1">
                    <mxGeometry x="-780.09" y="6540" width="160" height="40" as="geometry"/>
                </mxCell>
                <mxCell id="28" style="edgeStyle=orthogonalEdgeStyle;rounded=0;orthogonalLoop=1;jettySize=auto;html=1;exitX=1;exitY=0.5;exitDx=0;exitDy=0;" parent="1" source="29" edge="1">
                    <mxGeometry relative="1" as="geometry">
                        <Array as="points">
                            <mxPoint x="-610.09" y="6620"/>
                        </Array>
                        <mxPoint x="-610.09" y="6480" as="targetPoint"/>
                    </mxGeometry>
                </mxCell>
                <mxCell id="29" value="Increment Image Score by Link Score" style="rounded=0;whiteSpace=wrap;html=1;" parent="1" vertex="1">
                    <mxGeometry x="-780.09" y="6600" width="160" height="40" as="geometry"/>
                </mxCell>
                <mxCell id="30" style="edgeStyle=orthogonalEdgeStyle;rounded=0;orthogonalLoop=1;jettySize=auto;html=1;exitX=1;exitY=0.5;exitDx=0;exitDy=0;entryX=1;entryY=0.5;entryDx=0;entryDy=0;" parent="1" source="31" target="12" edge="1">
                    <mxGeometry relative="1" as="geometry">
                        <Array as="points">
                            <mxPoint x="-360.09000000000003" y="6680"/>
                            <mxPoint x="-360.09000000000003" y="6260"/>
                        </Array>
                    </mxGeometry>
                </mxCell>
                <mxCell id="31" value="Append Image ID and Score to Images ID Scores List" style="rounded=0;whiteSpace=wrap;html=1;" parent="1" vertex="1">
                    <mxGeometry x="-660.09" y="6660" width="160" height="40" as="geometry"/>
                </mxCell>
                <mxCell id="32" value="" style="edgeStyle=orthogonalEdgeStyle;rounded=0;orthogonalLoop=1;jettySize=auto;html=1;" parent="1" source="33" target="34" edge="1">
                    <mxGeometry relative="1" as="geometry"/>
                </mxCell>
                <mxCell id="33" value="Sort Images ID Scores in&amp;nbsp; Score Descending order" style="rounded=0;whiteSpace=wrap;html=1;" parent="1" vertex="1">
                    <mxGeometry x="-660.09" y="6720" width="160" height="40" as="geometry"/>
                </mxCell>
                <mxCell id="34" value="End" style="ellipse;whiteSpace=wrap;html=1;" parent="1" vertex="1">
                    <mxGeometry x="-640.09" y="6780" width="120" height="40" as="geometry"/>
                </mxCell>
                <mxCell id="35" style="edgeStyle=orthogonalEdgeStyle;rounded=0;orthogonalLoop=1;jettySize=auto;html=1;exitX=0.5;exitY=1;exitDx=0;exitDy=0;entryX=0.5;entryY=0;entryDx=0;entryDy=0;" parent="1" source="36" target="9" edge="1">
                    <mxGeometry relative="1" as="geometry"/>
                </mxCell>
                <mxCell id="36" value="Get List of Links from DB" style="rounded=0;whiteSpace=wrap;html=1;" parent="1" vertex="1">
                    <mxGeometry x="-660.09" y="6100" width="160" height="40" as="geometry"/>
                </mxCell>
                <mxCell id="37" value="Initiliaze Image Score to zero" style="rounded=0;whiteSpace=wrap;html=1;" parent="1" vertex="1">
                    <mxGeometry x="-660.09" y="6380" width="160" height="40" as="geometry"/>
                </mxCell>
                <mxCell id="38" style="edgeStyle=orthogonalEdgeStyle;rounded=0;orthogonalLoop=1;jettySize=auto;html=1;exitX=0.5;exitY=1;exitDx=0;exitDy=0;entryX=0.5;entryY=0;entryDx=0;entryDy=0;" parent="1" source="39" target="41" edge="1">
                    <mxGeometry relative="1" as="geometry"/>
                </mxCell>
                <mxCell id="39" value="Start" style="ellipse;whiteSpace=wrap;html=1;" parent="1" vertex="1">
                    <mxGeometry x="-300" y="5920" width="120" height="40" as="geometry"/>
                </mxCell>
                <mxCell id="40" style="edgeStyle=orthogonalEdgeStyle;rounded=0;orthogonalLoop=1;jettySize=auto;html=1;entryX=0.5;entryY=0;entryDx=0;entryDy=0;" parent="1" source="41" target="45" edge="1">
                    <mxGeometry relative="1" as="geometry"/>
                </mxCell>
                <mxCell id="41" value="Get now, and object datetime" style="rounded=0;whiteSpace=wrap;html=1;" parent="1" vertex="1">
                    <mxGeometry x="-320" y="5980" width="160" height="40" as="geometry"/>
                </mxCell>
                <mxCell id="42" value="" style="shape=image;verticalLabelPosition=bottom;labelBackgroundColor=default;verticalAlign=top;aspect=fixed;imageAspect=0;image=data:image/png,iVBORw0KGgoAAAANSUhEUgAABNYAAAJ5CAYAAABi772+AAAABHNCSVQICAgIfAhkiAAAABl0RVh0U29mdHdhcmUAZ25vbWUtc2NyZWVuc2hvdO8Dvz4AAAAmdEVYdENyZWF0aW9uIFRpbWUARnJpIDE0IE1hciAyMDI1IDA5OjAxOjAwSLUu6gAAIABJREFUeJzs3X10nHWd///X3CaZJG3SJG3S0qZ3tHWpWn9C6w0oFhW+yGFlzwq7HJZdrAguFYUugspx94jrcd26cEDA1uqyN6yr7C7fc1wFdYHdCrYL9EsRbZGWNkOTJmmSziSTTDK31++PuUmmSdrkyjWZTzLPxzk5yWRmXvlcffdqm1c/10SWQ3bt2uVUlGVZltXW1kbeDDAPs/JMn0cxMk3PM30m5ZbHPMzKsyxmYlJeS0uLtXPnTsfyLMvs450LeeV2fhQjk5nM7zzmYVae0/OwLPOP2fQ8zhGz8mY6D7cAAAAAAAAATBvFGgAAAAAAAGADxRoAAAAAAABgA8UaAAAAAAAAYAPFGgAAgMNcLleplwAAAIBZQLEGAADgsMbGRknSY489ptraWt17770F9x8/flwul2vc2549e0qxXAAAANjkLfUCAAAA5puqqirdeOONevPNN7V69epx94fDYbndbrW1tRXsblu0aNFsLhMAAAAzRLEGAADgMJfLpU2bNun73/++rrjiinH3h8NhLVy4UMuXLy/B6gAAAOAULgUFAABwWDqd1p133imvd+L/wwyFQvL5fLrpppvU2tqqTZs26aGHHpJlWbO8UgAAAMwEO9YAAAAc1tPToyVLlkx6fzKZVFVVlTZt2qQdO3bo5Zdf1vbt2+Xz+XTrrbfO4koBAAAwExRrAAAADhsZGTnr/ddee62uvfba/O2NGzfqyJEj2rVrF8UaAADAHOLdvXu3I0F79+51JCenr69PDQ0N5NnEPMzKM30excg0Pc/0mZRbHvMwK09iJk7kvfvd79bWrVvznxscHNRzzz2nt73tbVq7dq0kqaurS/v27dPFF1+sDRs2aM+ePbIsSy+99JJeffVVWZalaDSq/fv3y6l/s+XWZ/qvn8l55XZ+FCOTmczvPOZhVp7T85DMP2bT8zhHzMqb8Twsh+zatcupKMuyLKutrY28GWAeZuWZPo9iZJqeZ/pMyi2PeZiVZ1nMZKb6+vryH1922WXWl7/85YL7f/jDH1r3339/wefuuecea8uWLeOyWlparJ07dzq6PtN//UzPK7fzoxiZzGR+5zEPs/KcnodlmX/MpudxjpiVN9N5cCkoAACAw2pra9Xe3i5JisViikQiam9vl9frVXNzs2pqanT33XerqalJW7du1QsvvKCHH35YjzzySIlXDgAAgOmgWAMAAHDYb3/7W73rXe/K337++ef14IMPas2aNTp69KiuvPJKPfLII7rvvvt08803a+XKldq5c6duuOGGEq4aAAAA00WxBgAA4LBNmzbJsqyzPmbbtm3atm3bLK0IAAAAxeAu9QIAAADmm97e3lIvAQAAALOAYg0AAMBhQ0NDpV4CAAAAZgHFGgAAAAAAAGADxRoAAAAAAABgA8UaAAAAAAAAYAPFGgAAAAAAAGADxRoAAAAAAABgA8UaAAAAAAAAYAPFGgAAAAAAAGADxRoAAAAAAABgA8UaAAAAAAAAYAPFGgAAAAAAAGADxRoAAAAAAABgA8UaAAAAAAAAYAPFGgAAAAAAAGCDNxgMOhLU19cnp7IkqaOjw7GscsxjHmblmT6PYmSanmf6TMotj3mYlScxE5PyUqmUQqEQ8zAor9zOj2JkMpP5ncc8zMpzeh6S+cdseh7niFl5M52Ht7W11ZGFNDQ0yKmsHPLsYx5m5c2FeRQj0+S8uTCTcspjHublMRNz8jwej+rr641dXznmleP5UYxMZjJ/85iHWXnFmIdk9jGbnsc5YlbeTOfBpaAAAAAAAACADRRrAAAAAAAAgA0UawAAAAAAAIANFGsAAAAAAACADRRrAAAAAAAAgA0UawAAAAAAAIANFGsAAAAAAACADRRrAAAAAAAAgA0UawAAAAAAAIANFGsAAAAAAACADRRrAAAAAAAAgA0UawAAAAAAAIANFGsAAAAAAACADRRrAAAAAAAAgA0UawAAAAAAAIANFGsAAAAAAACADRRrAAAAAAAAgA0UawAAAAAAAIAN3mAw6EhQX1+fnMqSpI6ODseyyjGPeZiVZ/o8ipFpep7pMym3POZhVp7ETEzKS6VSCoVCzMOgvHI7P4qRyUzmdx7zMCvP6XlI5h+z6XmcI2blzXQe3tbWVkcW0tDQIKeycsizj3mYlTcX5lGMTJPz5sJMyimPeZiXx0zMyfN4PKqvrzd2feWYV47nRzEymcn8zWMeZuUVYx6S2cdseh7niFl5M50Hl4ICAAAAAAAANlCsAQAAAAAAADZQrAEAAAAAAAA2UKwBAAAAAAAANlCsAQAAAAAAADZQrAEAAAAAAAA2UKwBAAAAAAAANlCsAQAAAAAAADZQrAEAAAAAAAA2UKwBAAAAAAAANlCsAQAAAAAAADZQrAEAAAAAAAA2UKwBAAAAAAAANlCsAQAAAAAAADZQrAEAAAAAAAA2UKwBAAAAAAAANlCsAQAAAAAAADZQrAEAAAAAAAA2eIPBoCNBfX19cipLkjo6OhzLKsc85mFWnunzKEam6Xmmz6Tc8piHWXkSMzEpL5VKKRQKMQ+D8srt/ChGJjOZ33nMw6w8p+chmX/MpudxjpiVN9N5eFtbWx1ZSENDg5zKyiHPPuZhVt5cmEcxMk3OmwszKac85mFeHjMxJ8/j8ai+vt7Y9ZVjXjmeH8XIZCbzN495mJVXjHlIZh+z6XmcI2blzXQeXAoKAAAAAAAA2ECxBgAAAAAAANhAsQYAAAAAAADYQLEGAAAAAAAA2ECxBgAAAAAAANhAsQYAAAAAAADYQLEGAAAAAAAA2ECxBgAAAAAAANhAsQYAAAAAAADYQLEGAAAAAAAA2ECxBgAAAAAAANhAsQYAAAAAAADYQLEGAAAAAAAA2ECxBgAAAAAAANhAsQYAAAAAAADYQLEGAAAAAAAA2ECxBgAAAAAAANhAsQYAAAAAAADY4A0Gg44E9fX1yaksSero6HAsqxzzmIdZeabPoxiZpueZPpNyy2MeZuVJzMSkvFQqpVAoxDwMyiu386MYmcxkfucxD7PynJ6HZP4xm57HOWJW3kzn4W1tbXVkIQ0NDXIqK4c8+5iHWXlzYR7FyDQ5by7MpJzymId5eczEnDyPx6P6+npj11eOeeV4fhQjk5nM3zzmYVZeMeYhmX3MpudxjpiVN9N5cCkoAAAAAAAAYAPFGgAAAAAAAGADxRoAAAAAAABgA8UaAAAAAAAAYAPFGgAAAAAAAGADxRoAAAAAAABgA8UaAAAAAAAAYAPFGgAAAAAAAGADxRoAAAAAAABgA8UaAAAAAAAAYAPFGgAAAAAAAGADxRoAAAAAAABgA8UaAACAw1wuV6mXAAAAgFlAsQYAAOCwxsZGSdJjjz2m2tpa3XvvveMes2/fPl100UWqrKxUa2urHn300dleJgAAAGbIW+oFAAAAzDdVVVW68cYb9eabb2r16tXj7j99+rSuvPJK3XLLLfrRj36kAwcO6MYbb9Tq1at1+eWXl2DFAAAAsIMdawAAAA5zuVzatGmT/ud//kdNTU3j7n/iiSe0ZMkSfeMb39CqVav0h3/4h/rUpz6l3bt3l2C1AAAAsItiDQAAwGHpdFp33nmnvN6JLw44cOCANm/eXPC5zZs36+WXX56N5QEAAMAhFGsAAAAO6+npOev9vb29amhoKPhcY2PjOZ8HAAAAs1CsAQAAOGxkZOSs91uWNeHn+WmiAAAAc4vXqdfy2Lt3ryM5OX19feP+J5e8qWMeZuWZPo9iZJqeZ/pMyi2PeZiVJzETJ/Le/e53a+vWrfnPDQ4O6qWXXtJ73vMeLV68WD09PYrH49q/f78uuOAC9fT0aPHixUqn09q3b58OHToky7IUjUa1f/9+R19/bS78+pmcV27nRzEymcn8zmMeZuU5PQ/J/GM2PY9zxKy8Gc/DcsiuXbucirIsy7La2trImwHmYVae6fMoRqbpeabPpNzymIdZeZbFTGaqr68v//Fll11mffnLXy64/7vf/a61Zs2ags/dcsst1nXXXTcuq6Wlxdq5c6ej6zP918/0vHI7P4qRyUzmdx7zMCvP6XlYlvnHbHoe54hZeTOdB5eCAgAAOKy2tlbt7e1qb29XLBZTJBJRe3u7urq6JEmf+MQnFA6Hddddd6mtrU2PP/64HnvsMW3fvr3EKwcAAMB0TPyjqgAAAGDbb3/7W73rXe/K337++ef14IMPas2aNTp69KgWLlyop556SrfddpsefPBBLVu2THv27NHFF19cwlUDAABguijWAAAAHLZp06ZJf0BBzkUXXaQXX3xxllYEAACAYuBSUAAAAIf19vaWegkAAACYBRRrAAAADhsaGir1EgAAADALKNYAAAAAAAAAGyjWAAAAAAAAABso1gAAAAAAAAAbKNYAAAAAAAAAGyjWAAAAAAAAABso1gAAAAAAAAAbKNYAAAAAAAAAGyjWAAAAAAAAABso1gAAAAAAAAAbKNYAAAAAAAAAGyjWAAAAAAAAABso1gAAAAAAAAAbKNYAAAAAAAAAG7zBYNCRoL6+PjmVJUkdHR2OZZVjHvMwK8/0eRQj0/Q802dSbnnMw6w8iZmYlJdKpRQKhZiHQXnldn4UI5OZzO885mFWntPzkMw/ZtPzOEfMypvpPLytra2OLKShoUFOZeWQZx/zMCtvLsyjGJkm582FmZRTHvMwL4+ZmJPn8XhUX19v7PrKMa8cz49iZDKT+ZvHPMzKK8Y8JLOP2fQ8zhGz8mY6Dy4FBQAAAAAAAGygWAMAAAAAAABsoFgDAAAAAAAAbKBYAwAAAAAAAGygWAMAAAAAAABsoFgDAAAAAAAAbKBYAwAAAAAAAGygWAMAAAAAAABsoFgDAAAAAAAAbKBYAwAAAAAAAGygWAMAAAAAAABsoFgDAAAAAAAAbKBYAwAAAAAAAGygWAMAAAAAAABsoFgDAAAAAAAAbKBYAwAAAAAAAGygWAMAAAAAAABsoFgDAAAAAAAAbPAGg0FHgvr6+uRUliR1dHQ4llWOeczDrDzT51GMTNPzTJ9JueUxD7PyJGZiUl4qlVIoFGIeBuWV2/lRjExmMr/zmIdZeU7PQzL/mE3P4xwxK2+m8/C2trY6spCGhgY5lZVDnn3Mw6y8uTCPYmSanDcXZlJOeczDvDxmYk6ex+NRfX29sesrx7xyPD+KkclM5m8e8zArrxjzkMw+ZtPzOEfMypvpPLgUFAAAAAAAALCBYg0AAAAAAACwgWINAAAAAAAAsIFiDQAAAAAAALCBYg0AAAAAAACwgWINAAAAAAAAsIFiDQAAAAAAALCBYg0AAAAAAACwgWINAAAAAAAAsIFiDQAAAAAAALCBYg0AAAAAAACwgWINAAAAAAAAsIFiDQAAAAAAALCBYg0AAAAAAACwgWINAAAAAAAAsIFiDQAAAAAAALCBYg0AAAAAAACwgWINAAAAAAAAsMEbDAYdCerr65NTWZLU0dHhWFY55jEPs/JMn0cxMk3PM30m5ZbHPMzKk5iJSXmpVEqhUIh5GJRXbudHMTKZyfzOYx5m5Tk9D8n8YzY9j3PErLyZzsPb2trqyEIaGhrkVFYOefYxD7Py5sI8ipFpct5cmEk55TEP8/KYiTl5Ho9H9fX1xq6vHPPK8fwoRiYzmb95zMOsvGLMQzL7mE3P4xwxK2+m8+BSUAAAAAAAAMAGijUAAAAAAADABoo1AAAAAAAAwAaKNQAAAAAAAMAGijUAAAAAAADABoo1AAAAAAAAwAaKNQAAAAAAAMAGijUAAAAAAADABoo1AAAAAAAAwAaKNQAAAAAAAMAGijUAAAAAAADABoo1AAAAAAAAwAaKNQAAAAAAAMAGijUAAAAAAADABoo1AAAAAAAAwAaKNQAAAAAAAMAGijUAAAAAAADABoo1AAAAAAAAwAZvMBh0JKivr09OZUlSR0eHY1nlmMc8zMozfR7FyDQ9z/SZlFse8zArT2ImJuWlUimFQiHmYVBeuZ0fxchkJvM7j3mYlef0PCTzj9n0PM4Rs/JmOg9va2urIwtpaGiQU1k55NnHPMzKmwvzKEamyXlzYSbllMc8zMtjJubkeTwe1dfXG7u+cswrx/OjGJnMZP7mMQ+z8ooxD8nsYzY9j3PErLyZzoNLQQEAAAAAAAAbKNYAAAAAAAAAGyjWAAAAAAAAABso1gAAAAAAAAAbKNYAAAAAAAAAGyjWAAAAAAAAABso1gAAAAAAAAAbKNYAAAAAAAAAGyjWAAAAAAAAABso1gAAAAAAAAAbKNYAAAAAAAAAGyjWAAAAAAAAABso1gAAAGbZ8ePH5XK5xr3t2bOn1EsDAADANHhLvQAAAIByEw6H5Xa71dbWJpfLlf/8okWLSrgqAAAATBfFGgAAwCwLh8NauHChli9fXuqlAAAAYAa4FBQAAGCWhUIh+Xw+3XTTTWptbdWmTZv00EMPybKsUi8NAAAA08CONQAAgFmWTCZVVVWlTZs2aceOHXr55Ze1fft2+Xw+3XrrraVeHgAAAKaIYg0AAGCWXXvttbr22mvztzdu3KgjR45o165dFGsAAABziHf37t2OBO3du9eRnJy+vj41NDSQZxPzMCvP9HkUI9P0PNNnUm55zMOsPImZFCuvsrJS73vf+7R27VpJUldXl/bt26eLL75YGzZs0J49e2RZll566SW9+uqrsixL0WhU+/fvl1P/Zjvb+sibmnI7P4qRyUzmdx7zMCvP6XlI5h+z6XmcI2blzXgelkN27drlVJRlWZbV1tZG3gwwD7PyTJ9HMTJNzzN9JuWWxzzMyrMsZlLsvB/+8IfW/fffX/C5e+65x9qyZcu4x7a0tFg7d+6c1fWRd3bldn4UI5OZzO885mFWntPzsCzzj9n0PM4Rs/JmOg8uBQUAAJhlNTU1uvvuu9XU1KStW7fqhRde0MMPP6xHHnmk1EsDAADANFCsAQAAzLIrr7xSjzzyiO677z7dfPPNWrlypXbu3Kkbbrih1EsDAADANFCsAQAAlMC2bdu0bdu2Ui8DAAAAM+Au9QIAAAAAAACAuYhiDQAAAAAAALCBYg0AAAAAAACwgWINAAAAAAAAsIEfXgAAAAAAAABMkZVMKHLokAYPH6JYAwAAAAAAACYz0n5CkcOHNPT64cz7I0fy91GsAQAAAAAAAJJS0SFFDh/S4KFDGnz9sAYPH1IyEpn08RRrAAAAAAAAKEuV4ZC6f/Lj/G604WBw0se6q6pUs36Daja8TTUbNqhm/dso1gAAAAAAADD/JcIhDR7O7kQ7dEiRw4e0LhbT8V88PeHjq9etzxdoNRs2qGpF67jHUKwBAAAAAABg3sldypl7P9LZOeljK887L1+g1Wx4m2rWb5BcrnN+DYo1AAAAAAAAzGnDJ97S0JEjGjryOw0ePqTIoUOSZU34WF/9onyBtvfNY7r2zh3yVFfb+roUawAAAAAAAJgzoseOaejoG9ki7Q1Fjx5VKjYy4WPdFRUFr4lWs2GD/E2L8/dHdu+2XapJFGsAAAAAAAAwkGWls+XZEUWPHtHQ0UyR1plKTfqc6vPXZX/AQGZHWlXryqKukWINAAAAAAAAJZWOxzO7z948qqEj2d1obx4963MCq9eoZv161axbr8D561Szbv2UXhfNSRRrAAAAAAAAmDWp4Wj+Ms6hI0c0dPQNDQeDZ31OVetK1axfr3hjk87b8h7VrFsvl7f0tZY3eI6FT1VfX5+cypKkjo4Ox7LKMY95mJVn+jyKkWl6nukzKbc85mFWnsRMTMpLpVIKhULMw6C8cjs/ipHJTOZ3HvMwK8/peUjmH7PpeWV3jhw5othvf6PEW0El3woqEQwqear7rM/xNDfLv3KV/CtXydu6Ur7WlXL5/ZKk7o4OBaprdNqhdc50Ht7W1lZHFtLQ0CCnsnLIs495mJU3F+ZRjEyT8+bCTMopj3mYl8dMzMnzeDyqr683dn3lmFeO50cxMpnJ/M1jHmblFWMektnHbHrefD5H4qf7Rn+gQPaSTnd3t06f5TkVS5eqZl3mcs7q7Ht3VVVR1jeRmc6j9HvmAAAAAAAAMHdYlqLHjyl67E0Nvflm/uNEKHTWp1U0N2d+uMCYEs1TUzNLiy4OijUAAAAAAABMKH66T8PHsiXasTcVPXZM0ePHzvk8f1OTatatV6JpsZZt3qKadevlXbhwFlY8uyjWAAAAAAAAypyVTit67E0Nv/SSgk//JLMT7dgxJfvD53xu5dKlCqxao6rVq/OXdfoWLZIkBYNB1RXhcmRTUKwBAAAAAACUkXhvr6LHcpdwHtPQm0c1HGzL3z9ZleYJBBRYtVqB1WtUvWZN/mN3ZeWsrNtEFGsAAAAAAADzkJVM5l//LHcJ59CbR5UcGDjncyuXnafA6myJtnqNAqtXq6K5ZRZWPbdQrAEAAAAAAMxxsZ5TmfIsuxNt+NgxRcfsQpuMp7pagdWju88i1dVa/d73yV1RUfxFzwMUawAAAAAAAHNEsj+saFubhoNBRYPHFfrd79Rz8qSSkXPvQqtavlyBVWuyO9FWq3r1WvmXLCl4zEgwSKk2DRRrAAAAAAAAhjmzQBsOBhVta5vSDxPw1tbmd6AFVq9WYNVqVa9ZK5fPNwsrLy8UawAAAAAAACUykwLN5XbL09yihevWjbmcc7UqFi8553PhDIo1AAAAAACAIssVaA1Hj+j4Qw9Mq0DzVAVU1bpCVStaVbk88z6wolWV552nYDCo1tbWWTgCTIRiDQAAAAAAwCHn2oG2TFL3Ky9P+FzfokWZwmz5ClWtyBRoVSta5W9snMUjwHRQrAEAAAAAAEzTTC7hrFy6tHDn2fLlqlrRKm9t7SysHE6iWAMAAAAAAJiAlUopebJDoY52jXS0a7g9834qBZrL48nuOBu9hDPQ2qrHf/4L3XzrrbN0BCg2ijUAAAAAAFDWRk6e1EhHu0ayxVmuRIt1dUqSes7yXE919ZidZytGXwtt6bIJH2+5nynCEaBUKNYAAAAAAMC8F+/pKdh1NrZEs9Lpcz6/YvGSzCWb5y0fswttufwNvP5ZOaNYAwAAAAAA80KyP6z40SPq+d3h0V1n2ffpWOycz3dXVqpq+XJVnrci+365+n0+rbpos9wVFbNwBJhrKNYAAAAAAMCckYpGNdx+Il+YZXaddWi4/YRSg4OSpL5zZPiXLFFg+YrsDrQV+Z1o/qamcY8dCgYp1TApijUAAAAAAGCUdCymkY4OjZzs0Ej7iYJLOBOh0JQyPIGAqs5bni/NKpevUOV5y1W1fLncfn+RjwDlwhsMBh0J6uvrk1NZktTR0eFYVjnmMQ+z8kyfRzEyTc8zfSbllsc8zMqTmIlJealUSqFQiHkYlFdu50cxMpnJ/M5jHmblOT0Pybk1WsPDSp7qVs/vfqfBZELJ7m6lek4pdeqUUuGplWeS5Glskre5Wd7mFnmbmxX2+tS88e1y19XlH5OUNJh9U2fntNZp+kxM/z1oet5M5+FtbW11ZCENDQ1yKiuHPPuYh1l5c2Eexcg0OW8uzKSc8piHeXnMxJw8j8ej+vp6Y9dXjnnleH4UI5OZzN885mFWXjHmIU19jcn+fg2f7FDs5MnM7rPsLrTYyZNK9IclSS5JkXPkeAIBVa1oPWMHWmb3mcvrK3hsMBgsu5mQZ99M58GloAAAAAAAwLb46T6NdHQo1nmyoDgbOdmhZPY1z6bCEwioomWpKpctU9XSZapctixze/ly+Rc1FPEIAPso1gAAAAAAwFnFTnXny7LI4cN6YzCiWOdJDXd0KD0yMuUcT03tuOIs7PFo5f/3bvnq64t4BEBxUKwBAAAAAACNnDxZsOtsJH/5ZrusZHLKOb66OlUuW6bKpZm3iuz7ymXL5K2tHff4aDBIqYY5i2INAAAAAIAykOjvV7y7SyNdnYp1dinW3aVYV2e+QJNlTTnL39iYL8tyl2/mbnuqAkU8CsAsFGsAAAAAAMwDqeiQYl3dmbKsq1Pxri6t/N/9+vXL/6tYd5dS0ei08iqWNOcLs4qlS1W5dJmqli1TdyKpleefX6SjAOYWijUAAAAAAOYAK5HI7jbrzO4268oXaCNdnUoODIx7zgJJk9Vpbp9P/uZmVbYsVUXLUlWN2XVW0bJULo9nwue5gkHnDgqY4yjWAAAAAAAwgWUp2XNKA6HTGunsVKyrc/Ryzc4uJU73TTsyXl2jpvPXyd+8RJXNLapoblFFc7Mqmlvkb+AnbQIzRbEGAAAAAMAsiff0FJRl+Y+7OhXv7pYk9Uwjz9/YqIolmaKssqVF/iXZAq2lRRVLmrV792594NOfLs7BAKBYAwAAAADACVY8rlhvj+I9PYpn38e6uzTSmSnNRro6p/XTNaXMT9j0L2lWZXaXWUVz85idZ0vk8vqKdDQApoJiDQAAAACAc0iPjIyWZWOKs/4Tb2lgcFDx3h4l+vunnesJBMbsNmtW1F+hlgt+L78LzVNVVYSjAeAUijUAAAAAQFlLRaMFu8zivYXlWby3R8lIxFa22+/P7C5b0qyKlsxuM/+SZlW2ZHadeWtrCx4fDAZV39rqxGEBmAUUawAAAACAeSs1GCkoyQaPHtWxRFzxnt58gZaKDtnKdldUylW3UDUtS+VvapK/sSnzfszHvoV1Dh8RAJNQrAEAAAAA5qRkf//o5ZlnvLZZ7n1qZGTc86ay98wTCIwWZY1NqhhbnGXfe2trFQwG1coOM6BsUawBAAAAAIxipVKK9/Yq0derkcOH1fX/XlYsezve25svztLxuK18b03NuJLszPLMU13t8FEBmI8o1gAAAAAAsyYZiWRe6L+vL1OS9fYo1tureF9v9nM9SoRCBc8JTZI1Ee+CBfI3NaliguLM39SkruiwVq1f7+xBAShbFGsAAAAAgBmzkknF+3pV3dervv95Ll+cxbLlWeJ05nY6FrP9NXyLFqmisVG+hsZJyzN3RcVZM9zBoO2vDwBnoljH+sghAAAgAElEQVQDAAAAAJxVcmAgv7ts7M6yTGmWeUv2hyVJayQdefYX08rPv55ZQ4P82eIsV6CdTia14oIL5G9sklyuIhwdANhHsQYAAAAAZSqdSCjV26NIZCBfkOV2l+V2msV7e2UlErbyXV6v/A0NmR1mjY2Z4qyhSb6GhnxxVtHYKHdV1aQZkWBQ/qbFdg8RAIrKG3RoG2xfX5+cypKkjo4Ox7LKMY95mJVn+jyKkWl6nukzKbc85mFWnsRMTMpLpVIKhULMw6C8cjs/ipHJTIqbZ40MKzUwICsSUWqgX1YkomR/v6zIgFIDA0oP9OfvTw8NSZJO2ViHq6ZW3vp6uevq5KlfJE9dndx1dfrlq7/WZR//uNx19XLX1o57XiL7FpWkdFo6dfavPtfnUeo8p88PyfxjNj2PP7PMypvpPLxO/VjghoYGx3/EMHn2MQ+z8ubCPIqRaXLeXJhJOeUxD/PymIk5eR6PR/X19caurxzzyvH8KEYmM5meZH9Y8VBIyXBYwx0nVNHdmb0dyr9PhEJKhMMzeg0zSfJUVcnX0CB/dpfZ6GWZDZnLNRdlLtd0eSe+AOqXw7u15uJLZrSGM5k2j7mUV4zzQzL7mE3PK4c/s+ZS3kznwaWgAAAAADDL0onEmFIsrETotBLhcLYcC53xPixZVsHzwza+pm9hnbx1dfLXL8q+r5e3vl4RudSyfn32Us1GeaqrnTlIACgDFGsAAAAA4IDU0FBBGZYry/rfektvpJL5siwZDis5ODjjr+fyeseUZJn3vvp6+erqs+/r5K2rzxRodXVyud0T5gSDQS0swo4mACgHFGsAAAAAMIHU8LAS/WElw/2Z9/1hJcJhJfv7Fc8VZP39+QItHY9PmhWd4tf0BALy1S+Sr65uzPtMWZbbZXYqOqyVF1wgT02NMwcKALCNYg0AAABAWUhFo0r0948pyMJK9PdndpL1Z0uycFgjfb3qHhxSOjbiyNd119aqsrGpoCybbJeZ2+8/Z97pYJBSDQAMQbEGAAAAYE5KRaNKhMMK9PUqtP9XSoTCY3aW9Y/bYWadZUfZdHgqK+XNvl6Zr66u4NLLM3eZ+errFQwGi/Li8QCA0qNYAwAAAGCE1NCQEv3ZF/DvLyzGMpdkhhUPZ94n+sOyEglJ0lpJv3v2F7a/rqeqSt6FdfItXChffb1iHq/qzluWebH/hXXy1S2Ud2Gd/NnLMd0VFQ4dMQBgrqNYAwAAAOC4ZGRAqcigEpEBpQYHlRwYyH88cOKEjqRT+UsvczvMrGTCka/tqQrIV1+X/ymYvoULswVZnbwLF+YLskxxtnBcURYMBrWCHWYAgCmgWAMAAAAwoXRsRMnIoBLtJxQZ6FdiYECpwYiSkbFvA/mPU4MRJQciSg5Gzpk9NI11eKurC4qxzPvRHWa/eOFXuvqPr8/vLJvK65QBAOAEijUAAABgPrOsMQXYYGYn2WBEiYHIGSVZZjdZIjKgZPa+sT/lstfBJbkDAfnrF2V2kmV3juV3mI0t0LI7ztw+31nzIm8eV/X55zu4QgAApoZiDQAAAJgDUiMj+R1hqcFIQQGWiESUypZjg729GojH8yVZanCwKOtxeb3y1tbKW1Mr74IF8tTUyFe7QJ7aGnlrF2Q/XytPTa28tbXyLViQ//it9nZezB8AMC9QrAEAAACzJDk4qNTgoFJDg5kybGhQw8GgOl96UcmhzH3J7OeTkYiSg9kdZpGI0ompv/5YbBpr8gQC8tYukKe2Vr7a2uzH2ZIsW46FhkfUsnp19jGZEs0TCEz/FwAAgHmGYg0AAACYonQsJt/IsIaDbUoODuULsNTQYLYEy3yc2S2W+3goU5INDUqWNWFueIbrcnm9+R1hKb9fgcZG+Wqzu8UWLBjzcXaH2ZjyTG73OfOHg0EtYIcZAADjUKwBAACgfORebyy7ayzzgvuDSgxG8jvJkpHBcffndphZiYTeJunVH/9f59fmcmUvrayRp7om83G2EPNlL7X01i6QN3ep5ZiP3ZWV+ZhgMMhllgAAzBKKNQAAAMwp6eHh0SJscFDJwUhm91j248z70Y+HQ6fVF4spNTikVHQ6P4ty+txVVfLV1GYulaypyewOq6nOf+ypqZE3W5p5sgXaqYEBrVi/Tp5AdVHXBgAAnEexBgAAgKKy0mmlh4eVikaVGo4qNTys1NBQ5uPosNLD0dH7osPqP9WtmNudeVw0mr1/WMnokFLRqJROF22tbq9PnjFFmHdMQZYry/a/clCX/p//I29tdmfZmPtdHs/0v2YwSKkGAMAcRbEGAACAcdKJhNJjyq7UcDRbho0WZJn7hxXu6lLC6xl9XDSaL9KS0SGlR0am/fWHZ7D23KWUmZ9SWauYy63axYszl01mP++trR0txbIfe2pq5BlzSeVk+vojavjgpTNYIQAAmC8o1gAAAOaJ1PBwfndXajiq5NBQwe1c4TXQ1aU3s0XY6G6xYaWzRVgqGpWVTE7ra8+kCMtxeX3yBKpk+fyqWLBA7qoqeaur5akKyBOokrsqkPkJlmcUZ5mPqzOvSVZdI7lcBbm85hgAACgWijUAAIASsJLJbBE2nNkFlr1EMnc7PZJ5f21Tg1a+fkjHHvi7/OfSucefsZNssp84ORGnXmnMU1kpq6JC/ppaeQJV8gSq5QkE5KmqkicQyJdhnmxJ5q4avc9TFZA7UCVv9jkun08SRRgAAJg7vMFg0JGgvr4+OZUlSR0dHY5llWMe8zArz/R5FCPT9DzTZ1JueczDrDyJmYyTSmUuZ4zFlB4ZkRUbKbiteOZ9emRE1siIBk+fVtjrGfeY1PDw6O1Uakpr+6PFjVLbMZ1qO+bAkUout1uW3y93VUDuqkq5KirlDgTkqqiQq7JS7soqqbJS7srK/G1X7nFVVZnHVVVlPl9ZKblc6ujo0JJlyyb/5cu+xSe6M56Q4mEpHM5/yvTfL+V2fhQjk5nM7zzmYVae0/OQzD9m0/M4R8zKm+k8vE79b2BDQ4Pj/7NInn3Mw6y8uTCPYmSanDcXZlJOeczDvLy5PJOp7gQbfa2wYVX39WrE7S54TDL3OmHDw9O+LNIlZy6NzEl7vapYsECeyqrR3WDZ3V6e7I4wd3YXWGb3V9WYnWKjl1F6q6vlrqgoyo6wcsqby+eHSZnMZP7mMQ+z8ooxD8nsYzY9j3PErLyZzoNLQQEAwKyykkmlYjFZsZjS8ZhSIzFZ8ZhSIyNKx+OyYjGlYjGlYzGlYyNKx+KZx+VeB2xkWJG+PkVdLkdKsBynijBPVZUsv1/+6pp8CeauqpKnMvs+e9tbVXh77P2eQCB/e/maNdqxY4d27Njh0AoBAADgFIo1AAAgK5lUOhZTKjYiKxZX5UC/Bn/3uqx4PFt4xZQeyRVhI7Li8WzxFSt43tj7c8+zYnHFo0M6lUwpHRuRNcVLIM8l5kBGrtSyvL7MjrAZlmCeqipJvEYYAABAuaBYAwDAUOlEIrt7K7Nry8ru7krnXs8rW15FO0+qq6Y2W27FxuwGi2dLrol3gI3NUDpd8LXXSfrNz35amgOfxNhSK+X1qmrhQkdKMIkiDAAAAPZQrAEAMBnLylyaGI0qcfq00vG40om4rEQi8/GYt7Gfs+JxWYkx95/xnMFwWMNeb+Zz2QIsnd3dlbssMh2LyTqj7Dqb/iL+MkzK5ZLb75enslIuf4U8lRVy+yvkqqiQp6JC7ooKuSsq5a7waygW18KmRrn9FXJXVsrt9xfc76moLHieK5ubeXwmdyyKMAAAAJiAYg0AYKx0IpG55DB+ZpkVG72dGF9uDXZ3q726WjqjACvISIz9XGzcY6x4XOlEIr+WLoePbcThvByX2z2mlPJny6pskZUrqir82UIrU2S5KioK7vdUVuiZvb/U5VddVZgx5nm5YmyqKMIAAAAwH1GsAQDGsVKpTMGUSGR2XiUSsuKjt+MnTqi/r3fynVsFZVc8X46NL8gyb+t7evTK3ufOKLvikmXZPoaIg78eM+HyeuX2+TNFlN8vl9+vpKSK6ur859zZXVqZXVv+bIk1umurcDfY6P25t5OnerRi7ZpMaeb3O7Lu/mNtqtu8xZEsAAAAYL6iWAOAUrOsbGGVLaQSCSVPdStqWaOlVr7kyjwmV3IVFF+52/EznxPXYH+/oj6flEyOKb/G5GVvp+OZx0/lEsQ+B38JKiTFIgMOJma4PJ5MmeXzjZZY2Td5x36uYsLH5D4XHhxUY3OzXNnnuM64f6Ln5Esul2vcupzeveVJJOWtqXUsDwAAAMDUUKwBKDtWKiV3MqlkJDLhbqz0RKVTfHwJNbozK6GB06f1ZmXlOUuucc+Px2UlkxOus8fh43biJyhOS/b1t3IF09lKqGMnTuj8DW8b95jJn1MxSUGWeTvR2amVa9fK5fE4ciiJYFCLuYwRAAAAwBko1gBMm5VOZy4VTCYzb6mkrGTmdjqVlFIpJdvbNRSPjXlM9v4zHp/5OHM7nf84WZCvVEqRcFjHq6rGPSf3cTr3nIl2d02wG2ujpJeffMLRX5eoo2n2uLze0fLJ58u+9ytpWZlLD32+zG6r/H0+uXxjbvszjz/z+bn7crdPnT6tlvPOKyi7XGPLLZ9fLu/U/4r57927dcWnP+3Yr4M7FHKsVAMAAACAyVCsAbMkXxRNUEilJymLckXV2BJKqZSGu0/p1G9+XVgoJceXUlMpsZRKyUqlFItGNeB2T7KmM77GFH9SodM7rgYdzpspl9udKaX8Pllut7yVleNLKb9f8nrlnqjEOkvJdbq/X01LWyYouXz5r5m7PfYxE112KDl/6WF/MKhadnABAAAAKHMUa5g1Vjot5XY6jYwoGYmM3h7zpnRaVnrM58Y9JjnueSOnTqn36Bvjc864nR53f3LC5wwODCheWTnp+tKT7NQ6sxjLlVbvTCb1v0/8wNFfz7CjaRnxImTOhMvtlsvrlcvrleVyyePP7IJyebxye71yeT1yebz5x7g8nolLqAl2Y7144IDee8klE+7GGi2sxjzfPz5v7I4op4ur4WBQDRRXAAAAAGA0irUiO1vJk/s4nUoqcbJD0fQEBdNZbo/PSUnZjKbfHVbHDx6fUs6Zt9MTlE4j0agGfT6bOdky7Iyf7tfl8K91yOG8YYfzZoPL5coXTPJ48iWUy5v52J0vocYXUrFEQoHa2oLH5x7jPjMzV2JlP3ZP8Jze0Gktbm7JFmCFj899DXk8Z12Ty+3OH5vTxVXPYFTNH/8Dx/IAAAAAAOVnSsVabtdQfidRcuzttJROyT80qJGTHVIqnd1hlDzjMZldPgW3x+xOGn1eJnu455ROHfpNtpQZ/dqFz0tLYwucbG7mMbldTZnbkYEBJaoqC9aUOY7R544e5+jXLFhj7nYqrUQ8rj63e3RnVX43VuGxT0evrRFOrEXSiV8fdDDRvN1MtrlcmdLGky1yPB7J7c5/zu3xKJlOy1dRkf/c2PvHFkwTFUq5gmhsofT/Xn1VF27Zkr/tnqBgGvt8d0HBVPg13F6vTnZ36bwVreNLrhm8ppTTxdVgMKh6dlwBAAAAAOYx74Hr/jBTJJ1Zdo0tq6Zgg6SDP/2xo4tz+lI3p3cgzZmiKVskye2We2w5dEZZNP5z3vztWCKhqurqKeVMnFt4O9Tfr0WNjZPnuM+W6x33ua7ubi1bvnwKx+SZ9DWoxnK6ZHpq924tu/4Gx/Lc8bh8ixY5lgcAAAAAAKbPmzjdV+o1zIjL7c4UJ9n37lyJ43ZLHnf+crJkOi2fv2L08jK3Wy6PO1PSjMvwZp475vOFZY9bQ8PDql2wYPRr5b62x51/3JkF1OQllFe9p09rcXPzpI+ZWs5o6fT9xx7TtptvHnc5nV1OF02JYFAtDuZ5XC5VLF3qWB4AAAAAAMC5eBd/7KpMkTSmWMoUNO58aVRQRuV3Ho0tozza+8tf6tKtW0cLLff40qqgBJqsCMs+rqOzS+dldyCdWVgVrGkKu48k54shp/OGgkEtcjDPyv4UQgAAAAAAABSHd/XndzgSdPqtE2q87MOOZEmSJxaXv7HRsTwAAAAAAADASTO/RhAAAAAAAAAoQ66WlhbLiaBoNKpAIOBElCQplUrJM4OfcFjueczDrDzT51GMTNPzTJ9JueUxD7PyJGZiUl53d7dqampUXV3tSJ5k9vHOhbxyOz+KkclM5nce8zArz+l5SOYfs+l5nCNm5c10Ht4dO5y5FHT//v16z3ve40iWJIVCIdXX15NnE/MwK8/0eRQj0/Q802dSbnnMw6w8iZmYlPfVr35VH/zgB/XBD37QkTzJ7OOdC3nldn4UI5OZzO885mFWntPzkMw/ZtPzOEfMypvxPCyH7Nq1y6koy7Isq62tjbwZYB5m5Zk+j2Jkmp5n+kzKLY95mJVnWczEpLyWlhZr586djuVZltnHOxfyyu38KEYmM5nfeczDrDyn52FZ5h+z6XmcI2blzXQevMYaAAAAAAAAYAPFGgAAAAAAAGADxdo85fTragDzTUtLS6mXABht8+bNpV4CYCzOD+Ds+F4EODvOkfnFsWLtvPPOcyoKDvjABz5Q6iVgjNbW1lIvAWe49NJLS70EjOF28/88ptm0aVOplwAYi/PDPAsWLCj1EjDGe9/73lIvAWO84x3vKPUScIb3v//9pV4CxpjppotpfSdz6tQp3XDDDWpqatKCBQt06aWX6uWXX5Ykve9971NnZ6c+/vGPq7q6Wg0NDbrtttsUj8dntECc3bPPPqvNmzerurpara2t+su//EtZlqX6+nr9/d//vVwu17i3o0ePlnrZ89axY8d09dVXq66uTosXL9YNN9ygvr4+XXzxxZKkffv26aKLLlJlZaVaW1v16KOPlnjF818sFtOOHTvkdrv1X//1X/nP+3w+/emf/um484P/JCi+xx57TLW1tbr33nvzn2tubpbEOVJqnBOzi9/vc09ra+u4c+SGG24o9bLKymR/r7/rXe9SMpnUHXfcoaamJgUCAX3sYx9Te3t7CVdbHib6e72yspLvRUogGo3qs5/9rFpaWrRgwQJ96EMf0sGDB3XhhRdKEt+vl8C3v/1tnX/++QoEAtq4caOeeOIJSVJdXR3nSAkcOHBAH/rQh1RbW6umpiZdf/31OnXqVP4nr9v9t9m0irUbbrhBp06d0nPPPaeDBw9q5cqV+tjHPqZUKqWFCxfqj/7ojzQyMqKXXnpJTz31lH72s5/pr/7qr6Z9sJiaY8eO6aqrrtLv//7v6/Dhw3r00Ud1//33a8+ePfL5fAqHw3rve9+rEydOFLytWrWq1EuflyzL0sc+9jH5fD69+OKLevrpp/Xaa6/p9ttvVyAQ0OnTp3XllVfqsssu0+HDh/Wtb31LO3bs0M9+9rNSL33eCoVC2rJliyKRyLgdUR6PR+FwWHfeeWfB+ZH7zwIUx4033qjvfve7Wr16dcHn165dyzliAM6J2cPv97kpHA7riSeeKDhHHnrooVIvq2yc7e/1FStW6L777tOTTz6pJ598UgcPHpTX69W1115botWWh8n+Xvd6vXwvUgJ33HGHnn32WT355JN65ZVX1NzcrKuvvloul0uS+H59lv3gBz/QPffco29+85t6/fXXddNNN+n666/XoUOH5Pf7OUdm2eDgoD760Y/q3e9+t1577TX9/Oc/1xtvvKHPfOYzqq2tndG/zbzTWchVV12lq6++WitXrpQk3X333fqHf/gHdXZ2amhoSHv37tXJkyfz2+i++c1v6pZbbtHXvvY1LvMpgrfeekt/8id/oi9/+cuSMv+guOaaa7R371596lOfUjgcVnNzM7sNZsmpU6f0e7/3e/rOd76jpqYmSdLnP/95feUrX5EkPfHEE1qyZIm+8Y1vSJJWrVqlvXv3avfu3br88stLtu75LBKJ6Itf/KKuu+46ff/73y+4z+VyKRwOq7W1lXNkFm3atEnf//73dcUVVxR8fsmSJfrRj37EOVJinBOzh78T5p50Oq1IJKJ169ZxjpTI2f5er6ys1O7du3X//ffnrxTYs2ePmpub9dprr+ntb397KZY8703293quWON7kdnldrv10EMP6T3veY8k6etf/7pWr16ttrY2JZNJvl+fZadPn9bXv/51XXPNNZKkHTt26MEHH9S+ffu0YcMGzpFZFolE9KUvfUmf//zn5fF4tHLlSm3btk3f+ta3JM3s32bTOntuv/32fKkWCoX00EMP6Z3vfKeWLl2qAwcOaPny5QXXpm7evFm9vb0KBoPT+TKYoksvvVS7du0q+FxHR4eWL18uKTOj7u5uXX755Vq2bJkuueQSPfPMM6VYallYsmSJ/v3f/z1fqkmF8zhw4MC4FzvevHkzu0GKaMWKFbruuusmvM/lcikUCumFF17QhRdeqOXLl+uaa67R8ePHZ3mV5eXOO++U1zv+/3QqKys5RwzAOTF7+P0+94TDYVmWpe985ztav3691q5dq9tvv11DQ0OlXlrZONvf652dnerq6io4r5qamrRq1SrOqyKa7O91t9vN9yIl8Oijj2rr1q352x0dHaqoqFBTUxPfr5fAbbfdpttvvz1/OxqNKhQK8f16ibS0tGjHjh3yeDySpOPHj+uf//mfdeWVV8rlcs3o32a2aunW1lYtWrRIv/3tb/Wzn/1Mbrdbvb29amhoKHhcY2OjJKmnp8fOl8E0fe9739NvfvMbfe5zn5NlWfJ4PBocHNQtt9yip59+WpdccomuuOIK/eY3vyn1UsvCq6++qr/927/V1772NUma9Bzh/CgNl8ulQCCg/v5+3X///XryyScVj8d12WWXaXh4uNTLKzsej4dzxACcE7OH3+9zz9DQkJYtWya3261//dd/1SOPPKKnn35a27ZtK/XSoMw5JYnzyhBut5vvRUqsv79ft956q774xS+qtraW79dLzLIs3Xrrrbrwwgv1kY98ROl0mnOkRN544w35/X6tWbNGb3/72/XAAw/IsqwZ/dts0mJt27Zt8nq98nq9+a2kOc8884z++7//W/X19br88ss1PDwsy7Im/SK5a7ph3z/+4z/m5+H1esf97+jf/d3f6d5779XPf/5zLVmyRCMjI7r//vv16quv6g/+4A/09re/XV//+te1efNmfe973yvRUcwva9euzc/j7rvvLrjvueee00c+8hE9/PDD2rp1q9Lp9KTnCOeHM872Z9ZE0um09u/fn/9L7MILL9QPfvADdXV16ec///ksrHh+CwaDBX9m/fSnPz3nczhHZtdEf4aNPSc2btzIOVFE/H6fe5YvX6729nZ9+9vf1vr16/XRj35UDz/8sH74wx8qHA6Xenllj+9FzBKPx/lepIROnDihiy++WB/4wAf0la98RYlEgnOkhEZGRvTHf/zHOnLkiP7jP/5DLpeL79dLaOXKlXrllVf05JNP6oUXXtCtt94ql8s1o3+bTfoaa1/96ld1xx13SJKqqqoK7lu7dq3Wrl2r973vfWpsbNSPf/xjLV68eFyTl7u9ePHicy4EZ3f11Vfr4MGD+dtjZ/LZz35WzzzzjH71q1/lX+gwGo0qEAiMy9mwYYNOnjxZ/AWXgZ/+9Kf5n6KT+98eSfqXf/kXfe5zn9Pjjz+uj370o5Iy/7iY7Bzh/HDG2f7MmkgikRh36cKCBQvU0tLCOeKApUuXFvyZ1draetbHp1IpzpFZNtmfYTkHDhzQ+9//fs6JIuH3+9z27LPP6qqrrtKGDRskZS5DrKurK/Gqylvu3Onp6dHChQvzn+e8Ko3JftIk34sU32uvvaYrrrhC27dv1xe/+EVJ0sDAAN+vl0h/f7+uvPJKLVmyRM8++2z++5SRkRHV1NSMezznSPH5/X5dcMEFuuCCC9TS0qItW7boa1/72oz+bTbpjrVly5Zp48aN2rhxo9asWaNTp05pzZo1BdsSc9emulwuXXTRRero6NCJEyfy97/wwgtqaWnRihUrpn2wKFRXV5efx8aNG/MvLnn33XfrxRdfLCjVpMw2+Pvuu09PPfVUQc6hQ4f4KSMOWbduXX4ezc3NkqT//M//1I4dO/TMM8/kSzUp87+oF110kfbv31+Q8cILL2jLli2zuu756sw/s84lmUzqlltuUVtbW/5z/f396ujo4BxxgM/nK/gzq7a29qyPT6VSnCOz7Mw/wyKRSME58c53vpNzooj4/T73HDx4ULfddpssy9Ill1wiKfPvKrfbfc7/PEDxNTc3a9myZdq3b1/+c52dnTp+/DjnVQnwvUhptLW16fLLL9ff/M3f5Es1ie/XSyWRSOiqq67SO97xDv3bv/1bwX/+c47Mvp/85Cd6xzveoXQ6nf/cmZ2W3X+bTfk11hYvXqzm5mb9+Z//uQ4ePKjjx4/rzjvvlMvl0iWXXKK1a9fqwx/+sD75yU/q8OHD+tWvfqUvfOEL2r59O1tLi+TFF1/Ugw8+qAceeECDg4Nqb29Xe3u7uru7JWV+6sVnPvMZPf/882pvb9df//Vf65VXXtHNN99c4pXPT5FIRJ/+9Kd17733atGiRfl5tLe3q7KyUp/4xCcUDod11113qa2tTY8//rgee+wxbd++vdRLn7fGnhdS5vVX2tvbFQqFVFtbq1deeUWf/vSn9frrr+vIkSP65Cc/qVWrVumyyy4r8crnp0QikZ9HLBZTJBJRe3u7urq6VF1dzTlSYmeeE52dnZwTRcTv97mnublZ//RP/6QvfOELikQi2r9/v+644w7ddNNNE14lAOed7e91SfrMZz6jL33pS3r++ef1+uuv68/+7M/04Q9/OL+zEM4629/rEt+LlML27du1detWXXrppQXfiwQCAb5fL4EHHnhA3d3duueee3Ty5Mn8PHIvH8A5Mrsuuugitbe3a/v27Tp27Jh+/etf66677tKWLVvU2Ng4s3+bWdNw8uRJ6/rrr7eampqs2tpa6+KLL7aef/55y7IsKxwOW93d3dY111xjBSUMpKEAABrNSURBVAIBq6GhwbrrrrusVCo1nS+R19bWZut55ZT3F3/xF5akcW8XXHCBlU6nrXg8bt15553W0v+/vfsPtbuu/wD+up4zcf5gHM+0VtrRLdDIP67QXMWEUKIwKIxc/4hgSxT0D9NCQf/zn8CJoLiYjZDCP0wKiqioP6SlbDklDYxAxR22C+I8nWvqwLm7z/ePL3fM7e7X+3zOPa97P48HCNu59vR99uzt3Z6ec+9nPlOdf/751Ve+8pVqx44di3a+puX94Q9/WLCPiKj2799fVVVVvfjii9X69eurs88+u7r88surX/3qV4t2vsXOzJD36KOPLtjH5s2bq8OHD1d79+6tvvvd71adTqfqdrvVjTfeWPX7/UU7X9Py/vnPfy7Yx7p16458rsh6R5qSV+edOFbW5zzJvNP9//uaNWuqLVu2LPr55B3v73//e/XVr361Ou+886rPfe5z1Y9+9KPqww8/HDk36/MdZ2bdn9cPHTpUHTp0qPrxj39cdbvd6txzz61uvPHG6p133lm08zUt72Sf1/1ZZPHzPvjggxP+WeTZZ5+tqqry5/VFzvvSl760YB933nln9fHHH7sjE8j7xz/+UX3ta1+rLrjggmr16tXVTTfdVO3du7c6cOBAVVXlfxY54ddYW8iaNWvi6aefXvBjf/nLX+Kmm26K3/72t2cSyQgefvjhePjhhxf82MGDB+Pss8+ORx55JB555JFFPlkzfetb3zrhFzycf7np+vXr48UXX1zMYzXa3XffHXffffeCH3v//ffjkksuid/85jeLfKrmmp6ePuEdmf93ljsyWe7E4vL/96Vn48aN8cILL0z6GI11ss/r7733Xqxateqkvz+mXif7vP7xxx/HihUr/FlkEZ133nkn/QYFEf//LjR/Xl88u3fvPuHH5v+d5Y4srmuuuSaee+654x7/3e9+F9/5zneKf2922m8FPZX5l2CTw+l8Bz4Wz1//+tdJH4FjuCO5HPv1JZi8HTt2TPoIkNaxX4OFyfvzn/886SNwFL/PysXn9Hz83jeX+S+nVaq2YY1c3nnnnUkfgaP0+/1JH4FjvPfee5M+AkcZ9ZMZ9fvPf/4z6SNAWv/6178mfQSO4fN6Lj6v5+Jzej7/+9//Jn0EatSu6w/8g8Gg1vFgZmamtqwm5ukjV172PsaRmT0veydNy9NHrrwInWTKm5ubi+FwqI9EeU27H+PI1MnyztNHrry6+4jI/5yz57kjufJG7aNd17cH73a7tX+rcXnl9JErbyn0MY7MzHlLoZMm5ekjX55O8uS1Wq3odDppz9fEvCbej3Fk6mT55ukjV944+ojI/Zyz57kjufJG7cNbQQEAAACggGENAAAAAAoY1gAAAACggGENAAAAAAoY1gAAAACggGENAAAAAAoY1gAAAACggGENAAAAAAoY1gAAAACggGENAAAAAAoY1gAAAACggGENAAAAAAoY1gAAAACggGENAAAAAAoY1gAAAACggGENAAAAAAoY1gAAAACggGENAAAAAAq0+/1+LUGDwSDqyoqImJmZqS2riXn6yJWXvY9xZGbPy95J0/L0kSsvQieZ8ubm5mI4HOojUV7T7sc4MnWyvPP0kSuv7j4i8j/n7HnuSK68Ufto93q9Wg7S7Xajrqx58srpI1feUuhjHJmZ85ZCJ03K00e+PJ3kyWu1WtHpdNKer4l5Tbwf48jUyfLN00euvHH0EZH7OWfPc0dy5Y3ah7eCAgAAAEABwxoAAAAAFDCsAQAAAEABwxoAAAAAFDCsAQAAAEABwxoAAAAAFDCsAQAAAEABwxoAAAAAFDCsAQAAAEABwxoAAAAAFDCsAQAAAEABwxoAAAAAFDCsAQAAAEABwxoAAAAAFDCsAQAAAEABwxoAAAAAFDCsAQAAAEABwxoAAAAAFDCsAQAAAECBdr/fryVoMBhEXVkRETMzM7VlNTFPH7nysvcxjszsedk7aVqePnLlRegkU97c3FwMh0N9JMpr2v0YR6ZOlneePnLl1d1HRP7nnD3PHcmVN2of7V6vV8tBut1u1JU1T145feTKWwp9jCMzc95S6KRJefrIl6eTPHmtVis6nU7a8zUxr4n3YxyZOlm+efrIlTeOPiJyP+fsee5IrrxR+/BWUAAAAAAoYFgDAAAAgAKGNQAAAAAoYFgDAAAAgAKGNQAAAAAoYFgDAAAAgAKGNQAAAAAoYFgDAAAAgAKGNQAAAAAoYFgDAAAAgAKGNQAAAAAoYFgDAAAAgAKGNQAAAAAoYFgDAAAAgAKGNQAAAAAoYFgDAAAAgAKGNQAAAAAoYFgDAAAAgALtfr9fS9BgMIi6siIiZmZmastqYp4+cuVl72McmdnzsnfStDx95MqL0EmmvLm5uRgOh/pIlNe0+zGOTJ0s7zx95Mqru4+I/M85e547kitv1D7avV6vloN0u92oK2uevHL6yJW3FPoYR2bmvKXQSZPy9JEvTyd58lqtVnQ6nbTna2JeE+/HODJ1snzz9JErbxx9ROR+ztnz3JFceaP24a2gAAAAAFDAsAYAAAAABQxrAAAAAFDAsAYAAAAAZ6iqKsMaAAAAAJQwrAEAAABAAcMaAAAAABQwrAEAAABAAcMaAAAAABQwrAEAAABAAcMaAAAAABQwrAEAAABAAcMaAMAie+utt2Jqauq4v7Zv3z7powEAcAbakz4AAEDTzM7OxllnnRV79uyJqampI49feOGFEzwVAABnyrAGALDIZmdnY9WqVXHppZdO+igAAIzAW0EBABbZcDiMFStWxK233hq9Xi+mp6fj8ccfj6qqJn00AADOgFesAQAsskOHDsXKlStjeno67r333njppZfirrvuihUrVsQdd9wx6eMBAHCaDGsAAGP0y1/+Mn7wgx8c+fl7770XmzZtik2bNh157KqrrorXX389tm3bZlgDAFhC2k8++WQtQTt27KglZ95gMIhutyuvkD5y5WXvYxyZ2fOyd9K0PH3kyovQSR15l1xySXz961+Pb3/72/HKK68c+djKlSuP/Pjtt9+OnTt3xsaNG+PKK6+M7du3R1VVsXv37nj11Vejqqo4cOBA7Nq1K+r6Pdv8+bL/+mXOa9r9GEemTpZ3nj5y5dXdR0T+55w9zx3JlTdKH1VVRVQ12bZtW11RVVVV1Z49e+SNQB+58rL3MY7M7HnZO2lanj5y5VWVTsad98wzz1SPPvroJx67//77qw0bNhz3965Zs6basmXLop5P3sk17X6MI1MnyztPH7ny6u6jqvI/5+x57kiuvFH78FZQAIBFdv7558d9990XF110UVx33XXxwgsvxBNPPBFbt26d9NEAADgDhjUAgEV2ww03xNatW+Ohhx6K2267LS677LLYsmVL3HzzzZM+GgAAZ8CwBgAwAZs3b47NmzdP+hgAAIzgrEkfAAAAAACWIsMaAAAAABQwrAEAAADAGaqqyrAGAAAAACUMawAAAABwBqqqigjDGgAAAAAUMawBAAAAwGmaf7VahGENAAAAAE7L0aNahGENAAAAAE7p2FEtwrAGAAAAAEUMawAAAABQwLAGAAAAAAUMawAAAABwEgt9fbWqqgxrAAAAAHAiC41q8wxrAAAAALCAE41q84+3+/1+Lf+gwWAQdWVFRMzMzNSW1cQ8feTKy97HODKz52XvpGl5+siVF6GTTHlzc3MxHA71kSivafdjHJk6Wd55+siVV3cfEfmfc/Y8dyRX3qn6OOWw1uv1ajlIt9uNurLmySunj1x5S6GPcWRmzlsKnTQpTx/58nSSJ6/VakWn00l7vibmNfF+jCNTJ8s3Tx+58sbRR0Tu55w9zx3JlXeqPk41rHkrKAAAAAAUMKwBAAAAwGk6+lVshjUAAAAAKGBYAwAAAIAChjUAAAAAOMZC37jg6MeqqjKsAQAAAEAJwxoAAAAAHGWhV6stxLAGAAAAAGdgfngzrAEAAADAKSz0KjbDGgAAAAAUMKwBAAAAQAHDGgAAAAAUMKwBAAAAQAHDGgAAAAAUMKwBAAAAQAHDGgAAAAAUMKwBAAAAQAHDGgAAAAAcZWpq6qSPzf+43e/3a/kHDgaDqCsrImJmZqa2rCbm6SNXXvY+xpGZPS97J03L00euvAidZMqbm5uL4XCoj0R5Tbsf48jUyfLO00euvLr7iMj/nLPnuSO58k7WR1VVJ32sqqpo93q9Wg7S7Xajrqx58srpI1feUuhjHJmZ85ZCJ03K00e+PJ3kyWu1WtHpdNKer4l5Tbwf48jUyfLN00euvHH0EZH7OWfPc0dy5Z2qj2PHtWOHNW8FBQAAAIAChjUAAAAAOA3Hfu01wxoAAAAAnKGpqSnDGgAAAACUMKwBAAAAQAHDGgAAAACcpqO/zpphDQAAAAAWcOw3KziWYQ0AAAAAChjWAAAAAOAMzL+SzbAGAAAAACdwsreDGtYAAAAA4AxNTU0Z1gAAAADgZE70qjXDGgAAAAAUMKwBAAAAwCks9Ko1wxoAAAAAFDCsAQAAAMBpOPZVa4Y1AAAAAChgWAMAAACA03T0q9ba/X6/ltDBYBB1ZUVEzMzM1JbVxDx95MrL3sc4MrPnZe+kaXn6yJUXoZNMeXNzczEcDvWRKK9p92McmTpZ3nn6yJVXdx8R+Z9z9jx3JFfeKH1UVRXtXq9Xy0G63W7UlTVPXjl95MpbCn2MIzNz3lLopEl5+siXp5M8ea1WKzqdTtrzNTGvifdjHJk6Wb55+siVN44+InI/5+x57kiuvFH78FZQAAAAAChgWAMAAACAAoY1AAAAAChgWAMAAACAAoY1AAAAAChgWAMAAACAAoY1AAAAAChgWAMAAACAAoY1AAAAAChgWAMAAACAAoY1AAAAAChgWAMAAACAAoY1AAAAAChgWAMAAACAAoY1AAAAAChgWAMAAACAAoY1AAAAAChgWAMAAACAAu1+v19L0GAwiLqyIiJmZmZqy2pinj5y5WXvYxyZ2fOyd9K0PH3kyovQSaa8ubm5GA6H+kiU17T7MY5MnSzvPH3kyqu7j4j8zzl7njuSK2/UPtq9Xq+Wg3S73agra568cvrIlbcU+hhHZua8pdBJk/L0kS9PJ3nyWq1WdDqdtOdrYl4T78c4MnWyfPP0kStvHH1E5H7O2fPckVx5o/bhraAAAAAAUMCwBgAAAAAFDGsAAAAAUMCwBgAAAAAFDGsAAAAAUMCwBgAAAAAFDGsAAAAAUMCwBgAAAAAFDGsAAAAAUMCwBgAAAAAFDGsAAAAAUMCwBgBQs6mpqUkfAQCARWBYAwCo2erVqyMi4qmnnooLLrggHnzwweP+np07d8b69evjnHPOiV6vFz/72c8W+5gAAIyoPekDAAAsNytXroxbbrkl3nzzzVi7du1xH//vf/8bN9xwQ9x+++3x61//Ol5++eW45ZZbYu3atfGNb3xjAicGAKCEV6wBANRsamoqpqen429/+1tcdNFFx3382WefjU996lPx05/+NC6//PL43ve+Fz/84Q/jySefnMBpAQAoZVgDAKjZ4cOH45577ol2e+E3B7z88stxzTXXfOKxa665Jl566aXFOB4AADUxrAEA1OzgwYMn/fi7774b3W73E4+tXr069u/fP85jAQBQM8MaAMAI+v1+tNvtI3/98Y9/POV3Ba2qasHHfTdRAIClpV3X1/LYsWNHLTnzBoPBcf8lV97p00euvOx9jCMze172TpqWp49ceRE6OR2tVis2bNgQV1xxRbzyyitHHu/1erF3797Yu3dvXHvttUce/+CDD2L37t3x5S9/OS6++OLYv39/HDx4MHbt2hVf/OIXY//+/XHxxRfH4cOHY+fOnfHvf/87qqqKAwcOxK5du2r9+msZfv2Wcl7T7sc4MnWyvPP0kSuv7j4i8j/n7HnuSK68kfuoarJt27a6oqqqqqo9e/bIG4E+cuVl72McmdnzsnfStDx95MqrKp2ManZ29siPr7/++uqBBx74xMd//vOfV+vWrfvEY7fffnv1/e9//7isNWvWVFu2bKn1fNl//bLnNe1+jCNTJ8s7Tx+58uruo6ryP+fsee5IrrxR+/BWUACAmp177rmxb9++2LdvX3z00Ufx/vvvx759++Ltt9+OiIibbropZmdn4yc/+Uns2bMnnn766XjqqafirrvumvDJAQA4Ewt/qyoAAIq99tprcfXVVx/5+fPPPx+PPfZYrFu3Lt54441YtWpV/OlPf4o777wzHnvssfjsZz8b27dvj40bN07w1AAAnCnDGgBAzaanp0/4DQrmrV+/Pl588cVFOhEAAOPgraAAADV79913J30EAAAWgWENAKBmH3744aSPAADAIjCsAQAAAEABwxoAAAAAFDCsAQAAAEABwxoAAAAAFDCsAQAAAEABwxoAAAAAFDCsAQAAAEABwxoAAAAAFDCsAQAAAEABwxoAAAAAFDCsAQAAAEABwxoAAAAAFDCsAQAAAECBdr/fryVoMBhEXVkRETMzM7VlNTFPH7nysvcxjszsedk7aVqePnLlRegkU97c3FwMh0N9JMpr2v0YR6ZOlneePnLl1d1HRP7nnD3PHcmVN2of7V6vV8tBut1u1JU1T145feTKWwp9jCMzc95S6KRJefrIl6eTPHmtVis6nU7a8zUxr4n3YxyZOlm+efrIlTeOPiJyP+fsee5IrrxR+/BWUAAAAAAoYFgDAAAAgAKGNQAAAAAoYFgDAAAAgAKGNQAAAAAoYFgDAAAAgAKGNQAAAAAoYFgDAAAAgAKGNQAAAAAoYFgDAAAAgAKGNQAAAAAoYFgDAAAAgAKGNQAAAAAoYFgDAAAAgAKGNQAAAAAoYFgDAAAAgAKGNQAAAAAoYFgDAAAAgALtfr9fS9BgMIi6siIiZmZmastqYp4+cuVl72McmdnzsnfStDx95MqL0EmmvLm5uRgOh/pIlNe0+zGOTJ0s7zx95Mqru4+I/M85e547kitv1D7avV6vloN0u92oK2uevHL6yJW3FPoYR2bmvKXQSZPy9JEvTyd58lqtVnQ6nbTna2JeE+/HODJ1snzz9JErbxx9ROR+ztnz3JFceaP24a2gAAAAAFDAsAYAAAAABQxrAAAAAFDAsAYAAAAABQxrAAAAAFDAsAYAAAAABQxrAAAAAFDAsAYAAAAABQxrAAAAAFDAsAYAAAAABQxrAAAAAFDAsAYAAAAABQxrAAAAAFDAsAYAAAAABQxrAAAAAFDAsAYAAAAABQxrAAAAAFDAsAYAAAAABdr9fr+WoMFgEHVlRUTMzMzUltXEPH3kysvexzgys+dl76RpefrIlRehk0x5c3NzMRwO9ZEor2n3YxyZOlneefrIlVd3HxH5n3P2PHckV96ofbR7vV4tB+l2u1FX1jx55fSRK28p9DGOzMx5S6GTJuXpI1+eTvLktVqt6HQ6ac/XxLwm3o9xZOpk+ebpI1feOPqIyP2cs+e5I7nyRu3DW0EBAAAAoIBhDQAAAAAKGNYAAAAAoIBhDQAAAAAKGNYAAAAAoIBhDQAAAAAKGNYAAAAAoIBhDQAAAAAKGNYAAAAAoIBhDQAAAAAKGNYAAAAAoIBhDQAAAAAKGNYAAAAAoIBhDQAAAAAKGNYAAAAAoIBhDQAAAAAKGNYAAAAAoIBhDQAAAAAKtPv9fi1Bg8Eg6sqKiJiZmaktq4l5+siVl72PcWRmz8veSdPy9JErL0InmfLm5uZiOBzqI1Fe0+7HODJ1srzz9JErr+4+IvI/5+x57kiuvFH7aPd6vVoO0u12o66sefLK6SNX3lLoYxyZmfOWQidNytNHvjyd5MlrtVrR6XTSnq+JeU28H+PI1MnyzdNHrrxx9BGR+zlnz3NHcuWN2oe3ggIAAABAAcMaAAAAABQwrAEAAABAAcMaAAAAABQwrAEAAABAAcMaAAAAABQwrAEAAABAAcMaAAAAABQwrAEAAABAAcMaAAAAABQwrAEAAABAAcMaAAAAABQwrAEA1GxqamrSRwAAYBEY1gAAarZ69eqIiHjqqafiggsuiAcffPATH3/rrbdiamrquL+2b98+ieMCAFCoPekDAAAsNytXroxbbrkl3nzzzVi7du1xH5+dnY2zzjor9uzZ84lXt1144YWLeUwAAEZkWAMAqNnU1FRMT0/HL37xi/jmN7953MdnZ2dj1apVcemll07gdAAA1MVbQQEAanb48OG45557ot1e+L9hDofDWLFiRdx6663R6/Vieno6Hn/88aiqapFPCgDAKLxiDQCgZgcPHoxzzjnnhB8/dOhQrFy5Mqanp+Pee++Nl156Ke66665YsWJF3HHHHYt4UgAARmFYAwAYQb/fj3Xr1h35+e9///u4/vrrT/q/2bRpU2zatOnIz6+66qp4/fXXY9u2bYY1AIAlpP3kk0/WErRjx45acuYNBoPodrvyCukjV172PsaRmT0veydNy9NHrrwInZyOVqsVGzZsiCuuuCJeeeWVI4/3er3Yu3dv7N27N6699tojj3/wwQfx3HPPxRe+8IX4/Oc/HxERb7/9duzcuTM2btwYV155ZWzfvj2qqordu3fHq6++GlVVxYEDB2LXrl1R1+/ZInL8+i3lvKbdj3Fk6mR55+kjV17dfUTkf87Z89yRXHkj91HVZNu2bXVFVVVVVXv27JE3An3kysvexzgys+dl76RpefrIlVdVOhnV7OzskR9ff/311QMPPPCJjz/zzDPVo48++onH7r///mrDhg3HZa1Zs6basmVLrefL/uuXPa9p92McmTpZ3nn6yJVXdx9Vlf85Z89zR3LljdqHt4ICANTs3HPPjX379kVExEcffRTvv/9+7Nu3L9rtdnz605+O888/P+6777646KKL4rrrrosXXnghnnjiidi6deuETw4AwJkwrAEA1Oy1116Lq6+++sjPn3/++Xjsscdi3bp18cYbb8QNN9wQW7dujYceeihuu+22uOyyy2LLli1x8803T/DUAACcKcMaAEDNpqeno6qqk/49mzdvjs2bNy/SiQAAGIezJn0AAIDl5t133530EQAAWASGNQCAmn344YeTPgIAAIvAsAYAAAAABQxrAAAAAFDAsAYAAAAABQxrAAAAAFDAsAYAAAAABQxrAAAAAFDAsAYAAAAABQxrAAAAAFDAsAYAAAAABQxrAAAAAFDAsAYAAAAABf4P4UPLF1MF8DsAAAAASUVORK5CYII=;" parent="1" vertex="1">
                    <mxGeometry x="40" y="6120" width="640" height="327.24" as="geometry"/>
                </mxCell>
                <mxCell id="43" value="" style="shape=image;verticalLabelPosition=bottom;labelBackgroundColor=default;verticalAlign=top;aspect=fixed;imageAspect=0;image=data:image/png,iVBORw0KGgoAAAANSUhEUgAAAmkAAABcCAYAAAA1WSLlAAAABHNCSVQICAgIfAhkiAAAABl0RVh0U29mdHdhcmUAZ25vbWUtc2NyZWVuc2hvdO8Dvz4AAAAmdEVYdENyZWF0aW9uIFRpbWUARnJpIDE0IE1hciAyMDI1IDA5OjExOjAwddUHWgAAIABJREFUeJzt3X9oU2ffP/C3X/LAVegNp1DhBDrokQ56SoWe0oEp+odn+IARB6b4gCkOvKM3+EQHLt1gS7c/XPQB7+gXvFv3xbUOHOnAkQ4c6WDS+IcP6cCRDCo5BUszUEhAIQELOWDg8/3jnLT51Tat3W11nxeUueQk5zrnunLO51w/dxERgTHGGGOM7Sj/53UngDHGGGOM1eMgjTHGGGNsB+IgjTHGGGNsB+IgjTHGGGNsB+IgjTHGGGNsB+IgjTHGGGNsB+IgjTHGGGNsB+IgjTHGGGNsB+IgjTHGGGNsB+IgjTHGGGNsB+IgjTHGGGNsB+IgjbGtMjOY+dl43algjL0NllOYuZ973algOwwHaYxtxdMZjBw8gvHF150QxthbwQGkvtLx/ldxFF53WtiOsYuI6HUngrE3ytNpnD7kR/a/44ieVyFed3oYY2+H5TlcOuxB1BVB/IoO6XWnh712XJPG2GaUDFz90IfouyFMvhEBWg4zXw3jiGsPWnbtwq7/aEHb7ja0tbWgpaUFLbv3oOfAEE5/NYm5p+brTmxD5q+XMOh0YvCrOezMFL66zE9XMfJBD3btasH7X2/c5JX78TR6du/B0DeZf0Pq1lAqIPXDVYx438fg3h70aP3o13rQ8+4e7Nk7iCPe0xj5/m3pDpBD/OtLOOfeg127WnDkm7XyyETq837rt/beJWz66FtdCH4zgrZvhuH77g1t+szFMf7xEfT8bRd2qSOYK1W8Vypg7ttRDOv92KPswZ5398DpdFrl5dMZvKFHbGu2jGwSMcaalr3lJsmhUuBB8XUnZXPiAVIcIHFojLIrLxYpbyQoctlLWjsIkkq+22naaUeWv+MlyQGSTkQo/7oT8ydKX3aRcCgUeNDEtldcJABSP0n8+QlrIP8gTJ5eiUSnmwK3ErT0ovLdIi3NRSh4SCb1wutJ358l8YlKcKgUmFtjg8wEuXs10jpAaPVQZEsFtkixUzKh00exN7XA5yPkaQWJY5W/2SxFT6kkJI38dyquMy+WKHZBI+lkdMdde7ZiwzKySRykMdasl2kK9YHQG6Tky9edmM3J3tBJAKScn234fnE+THo7CEIl/y9bv1Tm4wFybfVi+3KJxo7qFJqvSx1l59OUfRuu4GsqUvSEtIkbe56WUkuU/xPL4Vp5mb3jI1WApINBmn229uezN9zkvplde4M/2SuVxYayNHZIrJNHRYqd1ch9I0kTxwRhvYA7GyXvvgDNrpF/xV/8JDsE6deXNp3KVz/uIiUv6uR5lbx7YD0Ual8kV197GCTVAVIuzNalrTjlJf1Keuv72zE2KiObx82djDXr0TSijwDZpUN1vO7EbE56Pg0TAurenobvi94Axj7WIEwDk/+cxJYa0QpxjP73OLBX21IzsPH1aYzOKdC66lIHuVeFvPPblreuZCA5XwC6VKitzXxAgtKnQPqzyuFaeblwFcP/mIQhezE5FYLevk4K3/PBf1D+kxK4gVcsiw2V0jDmTaC7H1qjzmKPriL0UMfoKQ39vSpQyiI136jJK4epj/yY3q2if438Ey4dg60mEj/ObO63uA3Hbf4Wgu9KFsrereddzjCQLUlQNXU1aYaBTElAfkepS5s4HMLEKRVvvI3KyFZsT6zH2NvPqo1a/+k2fctLrg5BgETeu0UqzkcoeEwjWRIkdbkpGK9/vMo+mKDAcRdpfRppvSqp+7wUvLu08rSZvOUnvRMEyUvRF3Ufr5L/xU+qAIl9YVp9Ll2isYMbPNkTrTzp1j8FFik9HSLfIRdp+1yk9Sqk7nOT55BGvrtFIipS8maAPH0SAYKkDoWULpX0K6tP0cXMLIXPuMm130Vap0zqQR+NPbSPMBOj0CmdFAFCq0xKl0JKr4+i+TRNnPeQJoMg3DRRrrV5GCZ3n2zVDF5IUDE7S+GTLlIkQfKAn6JPiOhllmYve0nrkEjq1Cn4S/15XzdN22ij/CUiomcT5G4FSSejlDWiFDxul5luNwWmK8rbkxiFTrlJlUCQfRSrTe6LNEUve0nf7yJXr0Jyr5sCU/VN2CtpGnCRa0AjtddF7rMTlF43L7MUOW69rt/YRA3P4wny7VdIwDq+YnGJol94SOuUSOwPU/mbmsuPVy+LzZ6j/MMIBU/opA1Y+1G6FKvZ/VSsQS1VliLHVfJOWeWsOO0lCSD5TPW2+XiY/IdVEgCJdus71eMTVFdn9TJNoYHNNJk28Rt8HKOx825y9Wmk9amk9urkuzJL2XJt3ss0RT7xkksGwSGR3KWQ0qVRIF5zTk7q5BpwkdanktLrIs8xF7k+q27Wnj0rE4SLwkZFCu/6SHKAxECAZps5plcuyxX73ujYKUvR8y5SpPK1pkhLd0Pk3a+Q1CpI2W9fV2o0U0byDyfIf1gjtVu1t1HJdWqCmv0FcZDGWJNmz8sECPJOr38jT1/WSDhU8l8JkPuQj8J3Zmn2ToBcrSBxMFzx48xT4qJOslDIcy1hN10VKX3TQ7JQyDe9eulOfqERHBoFU5V7ylLkpLZyY7D3TqF9gqQT0dW+IC9j5KsNdBrJjpEuYF1cH9uvFdM0cUIlqddLEw/L35i3btbCReFM+cNFip2SCEKnsUzN184ESGuXyX0lYaUpHyWvDEJ3gBLli6QRJpcAyWdrmmPLN6uuim2J7OYUQa5PwuQ77KHQ1CzFLrtJdoDUTyI0cdJN3ivR1fNe1RevyTS9subzt9w8pB7ykPuon8K3oxS55iNNAqG1+mZHL2fJ34GqAIeIiB5HyNcrkXJigtIviIiyNHFYVOcn5Wn2C53kdhcFKvoF5e/6SB0I2c34a+Rlxi4f0haach5b+atdmKDQYY1cp0I0dkEnxb6ZNZUf21AWmztHRUpecZPcrpG/IihYumY/pF2rv70W4wHS9ocoXU6rfbxiIES1jXj5W24SEOSZWu86kqeJo4LgUCn4cJ3NqlOx9m/wrp80SZB6aoKS9qkrPgyRLgnSKpsfXyYo0NWoS0eRktfcpLS7Gp4Tz+3KArFE4YOi/iGimKBgnyAAJLrcFLydXLuP6baV5U0ce3kfspdCFz2knwhR5JdZil3USXKA1M8qAv1my0g2Qp52QerZ2MqxFh8GyXVsoun+tRykMdaUPEWOCYJDJn98ve3svkUQpJ6coHT511u++PWtXsizd7wkOwRpXySrnw7tbcW+1Qu89WRefTEszgVW+nisJjNCnvaagQ32DWPDAORJOUjTaeyJdSyzF1QSkl4dJNAShfcLguyv6FNjBYfo8Ff3szHCpEsg5VSsImhMUKDbrgl6WX18+o2aOoUXUfJKIHG0+qKWv+m2amYGAhQrB57lG2O7a7XG0t5X5blsNk3lbd29KqndG/ydqK8N2Uz+Zq/rJBwS6V9UPt3bwTkEua5UBAZ2sCSfia2+VkxQcECQ6A1QYmVndgf0ihv90k03yQ6ZvHdqUvtkjDwr/Zga52V+ymPVANUEvM0o3rVqlqQuNwV+sT/9bJYid7NN5sc2lMUmz1H2jpcUh0ye29VHmfhMXeP3v0ThQyr5Zipy+eWs9WDUoCYscUFp8MBVL3qyXCO//nar1jjux2Okt4OkQ2O0VBN4RU9KhFY3TZQP9dkEuQVInKju05af9pEi1jonNYFkMUa+dpA4OFZfW/QkRsFDVq0qAJIGvBSO15Sm7SzLmzn2l7Pk7wRBKOS+VvGbtR8gK/vzNltGine8JCDIe6fybC7RbLz5mmgO0hhrSrnJcINROy+T1uCCTh/FKpsmX9ijnY5HrB//yyQFe0Fo91K07pHK3lerhyLl77ADEGVlNF+WJo4qJNdcDJeu6aQcj1TdRIt3fSShdqRVA6kgaQ4Q2u0nYCO0cnGqCjKKMfK219ysi3YwVXUDt2s5WvWqWoqlWx6SHRK5Lq9eCK3aR6X+BminqXYU4+wFxcqLymA07rdq0j5LrKa3PMps5abTfJqst7KUTiUp+XCDv8c1Z3ZT+Vuk2BnZumHU1HQWp731ozjLncoranSW7CCvKohPWYNB5KMT1g3qRYx8HbVN4SsnirLlkRkN85IofVEjoEFtZxOskav1N7Wm8+OVy2KT56g4u/IwVV2TlLdrcipu6uV3pr2kHq4NSOwO5HXXC7u2pomuC7NnrJp7960m61waHneRYmcVgkMhf7y+5i5ZDip+sV+wR4FrFytKSNEOmAcqagqJaOWcVF6niIiMEGli7UFK5SZrb59EAAgOmdw3KjpnbFtZ3uSx2w+p0rHq6yfVDuLYTBmxz6c04Kfo4611peCBA4w1yXxp/Ves11nbNJBcBISmY7CyA/hiGhkTULvtudUeRTGzAIgDR6DXdTA1USjWvNSpoUcCso/SyAEw74cx2RpE6KgEcz4BwwRQmMGlG0X4vvSisstv5lEaJgClW113csxCKgWjBIj3XOgXQOp2BHMlBe5jenVH38UUjALg7FZX97NowFgGnL39q6/looj8XIB4zw2PXIBxfwqXPhzE+9dMDN9OIP5ZuXOzCWM+A9OhQqvpO2waBoySgLq38o0cjEdZQBqEPrCasswjAwXI0A+6VtO7mIZhAqpqd1ZuOk02IUPt06ANbPDXVXNmN5W/GaTmC0Cnhv6abc1lE4CAtHs1RzMLBgqQoHQr9isGpqYSMIWOocMCud/jmPx8CIPHI5A/iiFxxwfFAZj3Iog+FdA+cKO+i7YEuTwyo1FeAii8sGapa2ttqfv0+kwYhgHT0Q/34ZrO6E3mxyuXxWbP0f0pRP4ANI8HWuXvvJREyjCBThU9lYMlzBTCF6eRmRtF/+42aw7C3W1o261i9IEJlDJIpSoGD5TSSBkmRFfPxgNEyvsvNTk7YKPjLiUw81MGaNfhdtUPJTBN67tNey6z3ELK6vDfq6xuc38SkUVA+8BTPWCqfE66+6FVfLU5n0bGFFC1/jUSKqAeCyLy0EDishsycpj5fASTT4FtLcubPHYYBtIlAfWAq/r6af/eVPv3tqkycnAEYxdcwO/jGNJ6cOTTKaQ2uZzEGzZGjbHXzyyt8+aCFRTUBkSFeSvYcKvWJcXMZGCU1giclg2kF02gQ4FSvrY4eqDtFZicTyFtZmD8M4UjV8I4cn8K4jsDiQUTyr0QEodCGOutSq11g0RtoFMrh+iPCZgOCZ4TQ5CRQ/S3DODQ6wKnwnwSRklArxgpahpp+7WKjedTSJqA5Mhi+psIJFmB/nkcgW6p+kZbMmAYBaCj5gYIwJg3YDoUqGrFWSqlYRgmRLcKVVRum4bp6IFakYTCfAqZkgRPt7q5NL2iTeXvsoH0gglxqKdu1LB1/E4MDigVr1nHuZIvyykkH5mADKS/G0deUqB8EEb8YvXoTyOVQgGiIrhbI+2N8hKA1GadI9OsfYJo9CUFFCBBEgBKmdX8rT0ZTeVHDolXLYvNnqO5JHIlCXpvzTl6asDIAeJof1Ue5b4bxZQyhkzKh5rwE4VvjsD5jxmkU0kAbvsD9vcc0LB+Lmxew+N+nkHmOSBc1b8VOzFIL2QBhwb1XeuVtJGGKVT0VGy80TmRDqhQKs/hfAqF2t9sIw4Zrs8iGJ9XMPR9AnMpwCdtY1ne5LGXg7Gemu+sva5srozIcF9JIPNfkwh9fgnj/xzG4L0kYvfDDR7e1jhNzW3G2F9dC0QLAJjAOkFaeZi5e2/tD92A6VChVlwtBATE3+pDg8K9KOIFQDk5VPGkJqO/1wk8SGLu26uIyX7M9AJSQYMT40jdjyB3uw2Bn2tqGkoZGPMF62JUf6Wq2GcIV38uQOwLIXRCAkopFJ6ZgEOgpeaJ30hZgYOqVtRTNAimzOU8CiVAGRhG4IK29kkr1z4eVGuClAKMhQwg3OipnJbjqQHjOSAdVitudHYg0K6iIlkr6SrfdJpO0zZoOn8XkkgtA2rttAnmHKI/GRC9QQwfKL+YgbFYACQVaof90nIRZgkQ7wzCdyGw5s0/v1zOz/XD0YaBMQB13yCcjjlkUylkoK8bZMx9OYyYJ4bQPgCmgfRCo/xtMj9K2Vcui02fo0K24Tky7WBS3autBt3LMwhdy8L7XX2ABgBSlwqnYwbZ+RQM2DU+5dqavRuvVmLaNWhCNHc3XyvfrC+RUFf/+TSG6QcmRO8RuLsAIAdjoQC09kDrXN1s/XMioKqVx1KA8cj6zfZ3l1/L4OoHl6BOT8BdF3FIcHY4AYcJ0YptL8vNH3uDhx877bXXlU2VkfJRDvgQ/mUI7o8G8f6/xnH1hxHoZ5qb4oSbOxlrigSnBADF+qbICqvBWFU9GtILGUCo6LcvCGJvP1RhIvs4U73UkZlC+PI0cpIbwY9dVRdyVdMgzBTCFw0MfeqxLgS9/dCEicTlUSSPheDrQDUzheQigNbVfdcyf7uK4b+Pw+jwYOzboHUjdUiQ2oQVQD2q2PjpDCZ/MgChQl25CJvILBqAQ4FasQ/hdEJxANlFY/0Fo//IIGMCzq6e6otbyUDSMOvnDnucQrok0FNZY2AaMBZMCFVFz8qNwH5ablVX0tV0ml7RZvK3XNun9lXfkjLfjGLyDxW+yyOrwXrJsGoR1YraC8kJZytgPjasZu81KE4ZolRAZnG95Woa5yUA4KAPgQMSzF8ncfXeOmfPjCPys4Seco3uYtKqXe7tqbt5NZUf21AWmz1HbbudQKmA9KOK2clKGUS+i6MACf0VeWT8K4QZbQQjA2t8mapYTXMLaRjL1ku5RQOFkoDS7Vw7EfZxmMsm4JDQ1t4gECkYmP56HNO/F1a2b3jc7f3QugAzYyBT9XBZQPzyVcyYCoa/9FsBZCkN47EJ0VVRgw+gTWpwTszyORHoqaxRKhlIzptAVz+08m/WNGDMr3XRNJCYywCyDvd72N6yvJljrwzGKq+hDa4rTZeRxXGMfF05y50E/ZgO2bFBa0ytLfVkY+wvKPGJSlh36Lw9bL61plNweWRnVcfbPMXOKCTadQqn7O/LJih8TCEhuSjQYF4vSoVIc4CUyrmXylNUrLWEjD33Wd1UAC/zlH0Yo7ELblJaBSmHgxSrmQfIGk4OkgZ8NDYVpYkrfvIc95Au1w7Rt0e0Co0C8SXKPk5SYj5vDaIYEAShkvfGLC1ls5R9nKTYzSB5T4ZW50qat45LPj5B6SdLlH6QtEY42nOH1Y40W7pmdUJf6fBLtNqxvHIZInu0VtWxN5umV9Z8/s6etwZBBOfs7V7mKXHDS6qkkOdGzbxQjxtNVVKk2fNW2dTORiiRyVL2SZoS02MUOOml8Mp8dBPkbgeh00PheJqy2Syl56I09omXvJfLgy3WyMuyJzHyD0iEdhf5byeqV4F4tkSJqRD59slVI1etUaG10zTYmsyPVy6LzZ6jVJA0AYKsU+BmlKI3Q+Q75iXPPkEQ+uo0H9kIeTo0Cq03QtOeKsXKW/tj5bkWrySt/c/VzJe3wh54IDQKGfXvJj9TrU733cGVaVPWyjdrEIZMnlv2vopLFPtCJ9khk365YpBNeXRjl4+ij7O0lEpQMkvWNaT2nBwtn5PKqU+IKGuNDq1a4skIkUtI5LoQoWTlwJhnSYqc1UhqVcm3MkJzO8vyJo69PCK1duRyxYCVFU2WkeK0l5SjY/YUIkT0MkvRMypB0mnsMTWNgzTGmlS+2bgur7F8ScNgjIiyE9bUFh0u8n4SWX3v5RLFLnrJ1a2Q0q1akzCeH6PZzBpBYDFK3o7aH3iRYqeU+slFn8QodMpDeq9sj6ASJFqtP0mSSJJkUvp08pwN0UR8jRvFyyWKXtBJaRckdbrIezFGS0+swAmSSu4L0ZURbfl4kPQOQUJWyXUiSJH54mo6TrhIaRckWmVS9nkocGO2+ub+cokiJ1WSWiVS+tzkv25PQ2HPHSa6dfJeGLOXIKqYC6oiqCxP4eG+WRlQjDU+782kaTs0mb/5uQlrgtA+jbR9GmkDGumnQhSdrw9qijM+e6RZ7bQFSxT9xJ4gVgiSe3XyfjZBidqRiHNj5DukktwqSLQr5DoWoLF4tmbC1TXycmVfWZq9GSDvIY2UTvvYuhVS+1zkPuGn4PUIJSpGsiUbTdNQqcky8splsalzVKT0LR+5OiUSkkKuU2GafZKm8D5BcEikHg7S/xv3k7tXIgiZtKMBimbqD6k4N0bewxrJrdZUE3Kfm/y300TZGPn3ySQka7LeUO2kxivHWzEFSYMN8nf9pLVLpFXMv7V2vhUpPRUgz0A5r1RyHQ/QxIPakbZFSl53kyIJkro08lyYsIOq9c6JTNqx4Oo0OL9YI6ylPg/5v5ig5Auyy0uQfEddpHYqpPSq9oSyLnKfDVG0rnxtX1lu+tgbBWO0OimxNOAh/43VB5mNykjsGVHxoTXJrtpr/abVbpVcR/00Nre5J8FdRESbqHhj7K/r6TjeV88heTSK7JRnWzuaM9aMzD8H0fN5Br5fshg7+LpTw/40uUkcUU4jcTSCzB3vuqOy2duN+6Qx1qyOIXgPSig8iCPR5Kh4xraPafV5FP3Q9r7utLA/U+H+DBIlGe4Tbg7Q/uI4SGOsaTKGP/VBfR7F5M9/ZrdzxlblFuzBB6UU4g8LEAc8OLLOwubsTZdD9Ls4zL5zGDnKIdpfHQdpjG2C2D+KsTNtmLkYxhzXprE/nYHJz8eRKAGFnyYx/YcK34XhhlM+sLdD4ecQLs0pCPwrUD1ZKvtL4iCNvfmeT2Fodwta/rbJv92DuPRo46+vJkG/EkVYmYLvH1M1Q7sZ22alAorZaZxW96D/ywzct6IIH+LekG8rc2ESvo/icN2IIrSP85kBPHCAvfmW5zD+ZQTGZgMmhwL3pwG4t1ItUcpg+uNhhBwhJK/pW/gCxhirsDyD0weuQr4cQah2+Sz2l8VBGmMN7Nq163UngTHG2F/AemEYt3gz1gA/uzDGGHvduE8aY4wxxtgOxEEaY4wxxtgOxEEaY4wxxtgOxEEaY4wxxtgOxEEaY4wxxtgOxEEaY4y9CXJzGP/oCPrf3YM97+6B0+lEz3tHMPJTzRJlhRQmPz6Cwb096N/bgx7tCM59k8J2LGRW+G0SI55B9Ch2Gt7Zg/7/PI2pxertzIVpjP7XIHr29qNH3YOe/zyNq/dzr7TvzPfnMKT3Y4/TCaeyB3ve2YOeA0MY+XauiWMzEf+4By27T2OGJ6BmbxAO0hhjbKdbnMSQS8f4sgeTD5ew9HgJ2UwK4feySC3mV7czU7jq0THy+yDGH6SRnE8jcU1F8mMd7q9SeJWVzHI/nsbgoUvIHLiKxGM7DakI3MUk0pVR0uIkhg8OY6YjhEQqibSRRORQBqEPdIzc23qomJmbQaY3hNnHWWQzS1jKJDHpLmDyHzr0j+PrBmqFeyM49y/jlY6fsdeCGGOM7WBLNHZQItEXpGSx5q3HMYo+zK/8b/ammySHQoEHlRsVafasQmjVaSyzxSRkI+SRQcrZWapNQjYeodls+f/yFD0pE2QvRV9UbPQyScE+WMfwcmtJmD3vqjkuInqZoEA3CK1umsg2/BhRPkb+XoXkdhDafRTb4v4Zex24Jo0xxnYw8/44rj4woX3og1a7nGOXG54Byf6fHKI/xFGQXNAHKjcSGDzkgrScQOSHzJbSYHwbxsxzFd4PddQmQT7ohV5exagQR/SnHISmQ2+t2Mih4chBBeajaUR+21ISoF+eQWh/zYsOFaoiANOAsdjoUwXMfDwK48MQfJ28FiZ783CQxhhjO1jq5xlk4MTge8r6G5oJJFIm0NEDZ81aMuLdHijCROrh3Baa/DKYmTFgtmro79tg00cJzC0DUqcCqeYtRVUhShmkHm6xb1qrVBcgAnmYJgBIaKvdIYDcj36MPvVh7LyGlq3tlbHXioM0xhjbsQpIL2QASDCNSVz6+xEM7t2DtrY2ONVBDH81g0y5I3wug9wyINokSLUL/rXLcALAkwwa1aUVfpvC1X9Nw1hu8KZpwFgwAQnI/nAJ5z4YRM+7TrS1tWHPe0MY+X61r5eZySBbApztbXVfI7VLAExkMo1r89ZNw1pMA6nHJtCpQ++ueS83hcCXBfhu+KFyJRp7Q3GQxhhjO1YWhWcAUED2eQtcH09i5uES8lkD0x+2IX7xCI58ZHeaXzaRLwEQor7WSLRAADCXizBrRzeW5hA6OYyRj4YwfCVVn4TlLLLLAMwcsnDBd30GSSOL/OM4AkoKVz/UMfy9VTtWWC4AEEBLfVQk7DQUl/N1722YhjUU7k0jlpPg/tQPV1VgmsPURyEUPhqDv6vpr2Nsx+Eg7a+mkMLUp0ewp20Qlx5t71fnfp3E6Ifvo19pQ0vLLrS0OdFzYAjn/u8MMuu1sSxPYehvu7BrVxN//+HEuXvbm27GdjyHjMETXui9MiQBQMhwfRKCrxswvruKaLkFsbYGranvVjB4UIXUrkF3rdOk2u7C0AkdWqcE4QDQrsF/xQ/dkcPM9UkYAODYYpVVs2motDyH0JcRtBwfx9iZ6s9kvvUjVApg8kyT38XYDsVB2l9FKYf4v05jUO3H8D9nkDG3czB6AfEv34d24DQu/ZSFcnwUYzcjGPt8GGohjvGPj6Dnvfq5lBhjG2mD9DcAJRNm7RwTDhX9ewVgJpEyALRKaAMA00Sx9mvMIgoARGuLFWBVkeG5kUb+WRLhww06drW2Wc2nywXU1YF1aFDbAfNRGoYJSK0CgAmzWH99Mc0iTAAtrfVNoRumoVbJwOTfhzGthBG75UVVKPbHJM5dA0av+yCv9XnG3hBbee5ibxQTxo8hjH4+jumFQoML9Ksz/jWEof+JoyBcCN2LIzhQfpr2wnd2GJc+0DF6fxK+YxLkB2Hoa1yDlUN+eAc2ukC3oJ8fjtlfhgylSwLuZ5HJAqjquC8ghLACOBOArEBuBcx8FoUSqq/uz3NWU+g7Cjb983EoULoALGaRWwaqRwS0QLQCeG6lQbyjwOkA8s/rmzQLuRwAAUV5xR+waWDywyGMSyHM3vBCqTzfeBtOAAAO+klEQVTOUgbj/30JpjcCl5lBZuXBMIO8aQKlPLKLGWRa26B0NBEMMva6ve45QNif6NksBQ8qJHXr5P1igmLzSzRxTBAAgtAoNL8N+8hGyNMOAkDqJ4m6OZSIiCgVIk2AAEHaF8n6919EyNMqyHVlaRsSxNjbJT/lIQmCXFfSNe8UKXJcEBwqBR8SEWVp7JAgSF6K1vwQi9Ne+zu28hsr0uwZmVA3/xoRvZwlfwcIso9mXxJRPkredpA4PEG105bNXlAIDpUCc1tIQtmzBIUOaeS+nKB8o/ezE+QW1vVo3b/uICV4vjT2BuDmzrdaG/TLCWSNWUQu+uDubdv2YejGt2OYeQ7AocLzX64GQ+QB9HkxPGA1g6S+GcfMZkZvMfYXJx32YajTRGp6BkZlp/+SgbRhAh069F4AkDF0XIe0PIf4XGVzo4n4z3EUWgcxfGwrtVgCg38fhooMZqZrpvB4asB4DkgHdfQ7AEg6hg7LMB/Gkahsni2lEL+Xgej1YHgAW/PHNM4d9SNzMoroZ666KT4Aa/+jU1FEp2v+7oTh7QLQqiN4J4ro9WGo3I7E3gSvO0r8q0lcUDZ+ylvrzyGT/5dX2XueIttak5am8D77+xo8vVdKfKKuHIPvbs2GXJPG2Lqyd7ykCJn0K0m7BqlIS7c8pAiZPLcqfjfFJIX2SyQdDFHSrmrKxwOktUrkurhGTXdT8jR7QSMhuSgYt7/4ZZZiZ1QSkk7hVMWmjyfILQvSLsxS/qWV1uRlnaRWlfy/NKz/2tiLWfJ3CZIGPOQ/62/4F7q71pIDRERpCg0IXnGAvXFe7VkiN4fJ62OYujeHtN1fQUhOKJ0KFFXF4LEAgms+uZnI3Y9g7LtpxB8kYTzNwXRIkDoU9Kj90A7oGDrhhatRz8/lDOLfT2LqxzgS8wYyz01rv3tdcJ8cwcgJrX6eoF9H0HPgasWTqIDndhbRkxJQymHu2zDCt6YR/z2DgvAimo3AU1UtZCJzbxLj304jPpeEkTMByQntPTeGL4zCf7C5LqrSXh2eYw2GoDelDeruLX70z/A8gfgj67ladPWsOxeRuleFgAGzlEPiQQo46vo3JZKxN598PIJE+1WM/o8Pg7cBAROmpMF7O47R4xXXWKEh+FMc8pej8Ll6AAGYDgX6tThCZ7TGNd1NkaBfiyOhhjD66SB6SgLCNAHVjbH7o/BV9pXr8iF6vwWjn49gULPSCucgRu9GEDi4xX5gZgaZpyYKi9MYX2PFAq3dh+BRHirA3jJbje7yD0Kky1Y/I+WQn0I3IxSditDY5QB5eiWrj9JnDfofERFlZyl0VCEBkOjUyX95gqIzMYrdmaDQGZ1ku/+SZ6r2ua9IS3eDpHdatTdSn4eC1yMUvRulyDX/yuvy4fDKU2TVpzMJip7XSACr/SuezVLokFxVYyX2haiq90dFeqU+LwVvRCl2d4KCh5WV2qGqp9kda5tr0uYCpDjsc3Z4onEfkbK4f3XbozXbck0aY4wxVmdrQVrRXtQWIPlEpK6DKBVnyd8lkWeq/rZdnB8jT6cd3J2YoOSLuk0ofdlFwqFRMFX1SUped5PsAAESaedjlK2tts5MkEcupytany4iSn6h2UGKTuGHMfL3CitQvB6j5HyM/N0g6VRstVngcYS8XVZgo5yM0FJl3Gh3kgVA6PRbHWd3tO0N0op3vFbAC5A4GV2/KWU+RJodpKEvROnKc9UgSCu+yFP+WZ6KW2+fYYwxxt5oWxs48HsU04sAIDB41FM/F43ogaaq6FdrqrZz0zh37Bym/wCkQ2HEbvugtdZ+GFC6FKBVRX/FTNGFn85h6OMZ5EqAcnISM9fdkGubNDt9GD2jWbv6YRRjddXiJowFw/qno4j45z5E3xlFPDWLsfNuaL1uDB9Woaqq1SxQiGPkmA9TiybE/hCiN71QKtsLWhUoHeVjyyBTO4/RW65QWD1g4RDrN6UIsTr9RyGPbN0GJoxbQ+hXnWj5j11o+Vsb2nbbk+Lu3oN+9zBGv4mvPykuY4wx9hbZWp+0Z1lrzh0A2acZAGrNBjJ8dxM1rxUw/akfk4sAWnWM3vCvObpGtDvh7Gpb7eO0HMfox5PWGnWyB6ErDQJDm3agH7IjhVzJwMzdFEID2uqb5dFQALA8h2TrBOJTvqq+VK4vY4hAAWAi/uVpXH1kAkJD4J8BaLVRSMGA8Yf97y4N/X+xaXeKFRPiCrFBbxdHxVI1tRPpOhQMHvdCoA3KuypGupzWpJhmAdk/0pj7eRrRn6dw6ecpXL3mxdgPk/D18mJ8jDHG3m5bC9KUHigOIFUyMXfFh9G+aYQObdBh8/cwQvb6bvKJwPrrqR0IIfkzVjr/5767agV3ANQTI/Cst6vdMtoA5AAYCwZMVHSWXV4NqkRfAJFbvvrO7pI92ePCOEa/sRYClg77cW5fXYSGmS9DmC4AcCjwfnkOGg/p3hrhQuDW2gMJfBdCCP54DkMfjiO1MIXTx1rgnJuAu/3fmEbGGGPs32xrzZ29PowcsyOl53O45FYx+PdxxJ+u3RYVvzWFVAmAQ8HQcX39pjGHgNRe3iKD6A9xa26e9ebiKqucR8hehmTFQhLlijTl8PCaM98DwNytSVhTDUlwnxiqrrnLzWHcO4ihrw2gVYX3ZgyTx5sbVTT38Z7m1qh8A9atbKmoPTM3WmaqVLFUTWuDBaA3oBwLI3zKHsW2GEHoW2OT38AYY4y9WbZY9yPDeyuOohjCyHcGCqUC5r49h/d/uAr3hTGMfe6u7rtVSiF+36qVQqsLumsTTVXLc4g/tAOA9kEM9q2/OZ7lVteXa22rCugKhmE1mUJA3bvOpI6lFGL37CBADEI/IMF8nkFqLo74T1OY/CGOTEmBfiaMwOd+uDubPx5prxue4/U9sprTBs25xY/+CaT21SjXNE2YwNoB9LIJsxxAS231U6RsSGDwsA7560nkSiZS9+LIfaLy2nyMMcbeWltvoGtV4budxJFTkwh9GcLk/+ZgLmcw89URDP4axsx0YHVQQCGJVHkNtc6e6gBuI39kVjqLiy513bm4ACCzkLbWrQOgdilVQYMxb6zUyKm1gxoqLVekV2Qw6X0fUw4BSXZC6XQjeDuMIwc1yA0GPWxEPTWG6KnNf24nEk4nFAesuecKeRSAtYOmZ9mVwQLCKWMrsWZ5XcBcCTCfZJApoX7wCGOMMfaWeMVbnIB80I+xBz74vx+F76OrmHsO5O6NYPjiIJJX7KbJXG71Br1bgnMze13OrzZZtjnRtu7GOcTvp+xATMbgAbXqvfSCnQqhVI0crfM0h6wd6In3/Jj+xc81No1090MVgLEMmNkMsusETYWnmZXgWentabyky0YqR5CW1tuQMcYYe/Nt09qdAuqJMOI/BVdGQBo/Rq0+aIDVN2yrN1VRcWPeKLj7I4qp+3ZI1zkEz4GKerRSGqlyh7Su/vVr5F4lvX8lkguDffaJXMysOz3Gai2mjEFXxYhbmMj87wxST5vY33J+JdAT7VtpMmWMMcbeHFsK0i7db3w3Fvt8GC73NysUVvuGtTtXas/MbHallqopnT1Qys2Kz7JYe0ElE/Hr44gvA4AE/aMA9MpALGfAsAaXQlJVKOvd4NvbVtNrN6uxRhS4P7BHz5pzSPy+1nYG4g/sWsx2He6DVT0FEb84BN/N1IZ7K8ynVvLCqbmwlaWiGWOMsTfFloK06K+ZNd4xYb6w/9mprN5EO/qhddr/XpzBzMI6X16omRRW0jFkr/dm/h5HPLfGx+6P4tzXVmd/6eAoxs7W3MIfG0jbgwaUver6I0Q7BqGVJ6ldnEHst3WqiEo5ZP54e2dYzfx4DoPvtKDlnUGc+7E+39WT56ypMEoZTN+Jo9GZMH+LIPK7NaxAPXUOnqq+fAItrYDxawJrZG05JYhUjPL1fjj4CusQMsYYY2+ArSxTIB2doKUGSyDlf/GT6rCWfHJdrlr9ktJXXCtLCEn7AzT7pPqzxScJilz0kqtTJf/d6uWkig+DpLVan1XPxurWiMz+EiTdXp5J9Pkp1mA9qKXrur1/ibzTG681lL68ml7R56fo45rPPEtT7HqA3N0KuS4m1l8SacfY5LJQL2fJ37G6pik6Gi99lb6uk+QAoVWj4IOa3HmRoOB+a5+i10+zdSuFFSl6QhAkD008qX1vNd2Ji/Y+IEi7MLv+OqGMMcbYW2BLvXoKP51G/3sz8Hnd6O9sgzCzMOamMfldHJmSgHIsjMkL1asQqBcmMZY6gnPfZ1D436t4/90I1IEeOFuKyD/JwFjIQdrnw+j3Cfj3VXcrFwMhRG/lMPT3SaS+HkL/Hz74jmmQSwUY9yOY/DGFAiRoJ0OYvO6H1qBXemY+bdXCCBU9Gw0RtdMbfngEIz9mYP4+jqG9Eah9/XD+DShmMzAWMkC3B/4rsxg9quzsWp2SiUIui+xTA+lnq69lHs4h5ZDhlJ2QpTWOwLHGvyuo56OIZt0Y+uccLh0dhHHGB7fmBHJJzNyaxPQjE6LXi8kfxxrMTSes1QoK0zitOjF56AgG39OgygIomcg9TiHxcxQzjwqAUOD+bAKTF/WtDTxgjDHG3iRbiezGPvORe79KSrsg4QBBSCR3aaSfCFB4Or1OLUeekreD5D2kWZ8tf+5kkMbupjesjSo+jlH4rIdc3TJJQpBolUjp08lzPkyRh+vVrSxR2K7NQbuXYs1We73MU+JWg/SeCFD4TpLyO31B9QdB0mSxWhO23p+QSDlVv0h69m6A9E6JpE6dAncbLVlfse2DCQqc0EntkEg4QEKSSd3vIf+1WPXC9DXyDyMU/sRHnsMu0roVkiW7XDkESbJC2kEP+b6YoNna2kzGGGPsLbaLiOh1BYiMMcYYY6yxbZqCgzHGGGOMbScO0hhjjDHGdiAO0hhjjDHGdiAO0hhjjDHGdiAO0hhjjDHGdiAO0hhjjDHGdiAO0hhjjDHGdiAO0hhjjDHGdiAO0hhjjDHGdiAO0hhjjDHGdiAO0hhjjDHGdiAO0hhjjDHGdiAO0hhjjDHGdiAO0hhjjDHGdiAO0hhjjDHGdiAO0hhjjDHGdiAO0hhjjDHGdiAO0hhjjDHGdiAO0hhjjDHGdiAO0hhjjDHGdqD/D/gmLc7ub+5/AAAAAElFTkSuQmCC;" parent="1" vertex="1">
                    <mxGeometry x="40" y="5988" width="640" height="95.43" as="geometry"/>
                </mxCell>
                <mxCell id="44" style="edgeStyle=orthogonalEdgeStyle;rounded=0;orthogonalLoop=1;jettySize=auto;html=1;exitX=0.5;exitY=1;exitDx=0;exitDy=0;entryX=0.5;entryY=0;entryDx=0;entryDy=0;" parent="1" source="45" target="47" edge="1">
                    <mxGeometry relative="1" as="geometry"/>
                </mxCell>
                <mxCell id="45" value="Compute difference between now and object datetime" style="rounded=0;whiteSpace=wrap;html=1;" parent="1" vertex="1">
                    <mxGeometry x="-320" y="6040" width="160" height="40" as="geometry"/>
                </mxCell>
                <mxCell id="46" style="edgeStyle=orthogonalEdgeStyle;rounded=0;orthogonalLoop=1;jettySize=auto;html=1;exitX=0.5;exitY=1;exitDx=0;exitDy=0;entryX=0.5;entryY=0;entryDx=0;entryDy=0;" parent="1" source="47" target="48" edge="1">
                    <mxGeometry relative="1" as="geometry"/>
                </mxCell>
                <mxCell id="47" value="Compute objet score contribution" style="rounded=0;whiteSpace=wrap;html=1;" parent="1" vertex="1">
                    <mxGeometry x="-320" y="6100" width="160" height="40" as="geometry"/>
                </mxCell>
                <mxCell id="48" value="End" style="ellipse;whiteSpace=wrap;html=1;" parent="1" vertex="1">
                    <mxGeometry x="-300" y="6160" width="120" height="40" as="geometry"/>
                </mxCell>
                <mxCell id="49" value="Time (Seconds)" style="text;html=1;align=center;verticalAlign=middle;resizable=0;points=[];autosize=1;strokeColor=none;fillColor=none;" parent="1" vertex="1">
                    <mxGeometry x="570" y="6300" width="110" height="30" as="geometry"/>
                </mxCell>
                <mxCell id="50" value="Score" style="text;html=1;align=center;verticalAlign=middle;resizable=0;points=[];autosize=1;strokeColor=none;fillColor=none;" parent="1" vertex="1">
                    <mxGeometry x="300" y="6130" width="50" height="30" as="geometry"/>
                </mxCell>
                <mxCell id="100" value="" style="rounded=0;whiteSpace=wrap;html=1;" vertex="1" parent="1">
                    <mxGeometry x="510" y="7220" width="720" height="550" as="geometry"/>
                </mxCell>
                <mxCell id="102" style="edgeStyle=orthogonalEdgeStyle;rounded=0;orthogonalLoop=1;jettySize=auto;html=1;exitX=0.5;exitY=1;exitDx=0;exitDy=0;entryX=0.5;entryY=0;entryDx=0;entryDy=0;" edge="1" source="103" target="107" parent="1">
                    <mxGeometry relative="1" as="geometry"/>
                </mxCell>
                <mxCell id="103" value="Get List of Images from DB" style="rounded=0;whiteSpace=wrap;html=1;" vertex="1" parent="1">
                    <mxGeometry x="-620.09" y="7220" width="160" height="40" as="geometry"/>
                </mxCell>
                <mxCell id="104" value="" style="edgeStyle=orthogonalEdgeStyle;rounded=0;orthogonalLoop=1;jettySize=auto;html=1;" edge="1" source="105" target="103" parent="1">
                    <mxGeometry relative="1" as="geometry"/>
                </mxCell>
                <mxCell id="105" value="Start" style="ellipse;whiteSpace=wrap;html=1;" vertex="1" parent="1">
                    <mxGeometry x="-600.09" y="7160" width="120" height="40" as="geometry"/>
                </mxCell>
                <mxCell id="106" value="" style="edgeStyle=orthogonalEdgeStyle;rounded=0;orthogonalLoop=1;jettySize=auto;html=1;" edge="1" source="107" target="136" parent="1">
                    <mxGeometry relative="1" as="geometry"/>
                </mxCell>
                <mxCell id="107" value="Get List of Requests from DB" style="rounded=0;whiteSpace=wrap;html=1;" vertex="1" parent="1">
                    <mxGeometry x="-620.09" y="7280" width="160" height="40" as="geometry"/>
                </mxCell>
                <mxCell id="108" value="" style="edgeStyle=orthogonalEdgeStyle;rounded=0;orthogonalLoop=1;jettySize=auto;html=1;" edge="1" source="109" target="112" parent="1">
                    <mxGeometry relative="1" as="geometry"/>
                </mxCell>
                <mxCell id="109" value="Initialize Image ID Score History List to empty List" style="rounded=0;whiteSpace=wrap;html=1;" vertex="1" parent="1">
                    <mxGeometry x="-620.09" y="7400" width="160" height="40" as="geometry"/>
                </mxCell>
                <mxCell id="110" value="Yes" style="edgeStyle=orthogonalEdgeStyle;rounded=0;orthogonalLoop=1;jettySize=auto;html=1;exitX=0.5;exitY=1;exitDx=0;exitDy=0;entryX=0.5;entryY=0;entryDx=0;entryDy=0;" edge="1" source="112" target="115" parent="1">
                    <mxGeometry x="-0.5" relative="1" as="geometry">
                        <mxPoint as="offset"/>
                    </mxGeometry>
                </mxCell>
                <mxCell id="111" value="No" style="edgeStyle=orthogonalEdgeStyle;rounded=0;orthogonalLoop=1;jettySize=auto;html=1;exitX=0;exitY=0.5;exitDx=0;exitDy=0;entryX=0;entryY=0.5;entryDx=0;entryDy=0;" edge="1" source="112" target="133" parent="1">
                    <mxGeometry x="-0.9237" relative="1" as="geometry">
                        <Array as="points">
                            <mxPoint x="-660" y="7500"/>
                            <mxPoint x="-660" y="7700"/>
                        </Array>
                        <mxPoint as="offset"/>
                    </mxGeometry>
                </mxCell>
                <mxCell id="112" value="Next Image&lt;div&gt;exist?&lt;/div&gt;" style="rhombus;whiteSpace=wrap;html=1;" vertex="1" parent="1">
                    <mxGeometry x="-600.09" y="7460" width="120" height="80" as="geometry"/>
                </mxCell>
                <mxCell id="113" value="" style="edgeStyle=orthogonalEdgeStyle;rounded=0;orthogonalLoop=1;jettySize=auto;html=1;exitX=1;exitY=0.5;exitDx=0;exitDy=0;entryX=0;entryY=0.5;entryDx=0;entryDy=0;" edge="1" source="137" target="151" parent="1">
                    <mxGeometry relative="1" as="geometry"/>
                </mxCell>
                <mxCell id="114" style="edgeStyle=orthogonalEdgeStyle;rounded=0;orthogonalLoop=1;jettySize=auto;html=1;entryX=0.5;entryY=0;entryDx=0;entryDy=0;" edge="1" source="115" target="137" parent="1">
                    <mxGeometry relative="1" as="geometry"/>
                </mxCell>
                <mxCell id="115" value="Get Next Image" style="rounded=0;whiteSpace=wrap;html=1;" vertex="1" parent="1">
                    <mxGeometry x="-620.09" y="7560" width="160" height="40" as="geometry"/>
                </mxCell>
                <mxCell id="116" value="No" style="edgeStyle=orthogonalEdgeStyle;rounded=0;orthogonalLoop=1;jettySize=auto;html=1;exitX=0;exitY=0.5;exitDx=0;exitDy=0;entryX=1;entryY=0.5;entryDx=0;entryDy=0;" edge="1" source="118" target="125" parent="1">
                    <mxGeometry x="-0.667" relative="1" as="geometry">
                        <Array as="points">
                            <mxPoint x="-110.02000000000004" y="7280.09"/>
                            <mxPoint x="-110.02000000000004" y="7280.09"/>
                        </Array>
                        <mxPoint as="offset"/>
                        <mxPoint x="-0.02000000000004576" y="7500.09" as="targetPoint"/>
                    </mxGeometry>
                </mxCell>
                <mxCell id="117" value="Yes" style="edgeStyle=orthogonalEdgeStyle;rounded=0;orthogonalLoop=1;jettySize=auto;html=1;exitX=0.5;exitY=1;exitDx=0;exitDy=0;entryX=0.5;entryY=0;entryDx=0;entryDy=0;" edge="1" source="118" target="120" parent="1">
                    <mxGeometry relative="1" as="geometry">
                        <mxPoint as="offset"/>
                    </mxGeometry>
                </mxCell>
                <mxCell id="118" value="Next Request&lt;div&gt;exist?&lt;/div&gt;" style="rhombus;whiteSpace=wrap;html=1;" vertex="1" parent="1">
                    <mxGeometry x="-60.020000000000046" y="7240.09" width="120" height="80" as="geometry"/>
                </mxCell>
                <mxCell id="119" value="" style="edgeStyle=orthogonalEdgeStyle;rounded=0;orthogonalLoop=1;jettySize=auto;html=1;" edge="1" source="120" target="122" parent="1">
                    <mxGeometry relative="1" as="geometry"/>
                </mxCell>
                <mxCell id="120" value="Get next Request" style="rounded=0;whiteSpace=wrap;html=1;" vertex="1" parent="1">
                    <mxGeometry x="-80.02000000000004" y="7340.09" width="160" height="40" as="geometry"/>
                </mxCell>
                <mxCell id="121" style="edgeStyle=orthogonalEdgeStyle;rounded=0;orthogonalLoop=1;jettySize=auto;html=1;exitX=1;exitY=0.5;exitDx=0;exitDy=0;entryX=1;entryY=0.5;entryDx=0;entryDy=0;" edge="1" source="163" target="118" parent="1">
                    <mxGeometry relative="1" as="geometry">
                        <Array as="points">
                            <mxPoint x="100" y="7540"/>
                            <mxPoint x="100" y="7280"/>
                        </Array>
                    </mxGeometry>
                </mxCell>
                <mxCell id="164" style="edgeStyle=none;html=1;exitX=0.5;exitY=1;exitDx=0;exitDy=0;entryX=0.5;entryY=0;entryDx=0;entryDy=0;" edge="1" parent="1" source="122" target="162">
                    <mxGeometry relative="1" as="geometry"/>
                </mxCell>
                <mxCell id="122" value="Compute Image&#39;s Score Contribution" style="rounded=0;whiteSpace=wrap;html=1;" vertex="1" parent="1">
                    <mxGeometry x="-80.02000000000004" y="7400.09" width="160" height="40" as="geometry"/>
                </mxCell>
                <mxCell id="123" value="Yes" style="edgeStyle=orthogonalEdgeStyle;rounded=0;orthogonalLoop=1;jettySize=auto;html=1;entryX=0.5;entryY=0;entryDx=0;entryDy=0;" edge="1" source="125" target="127" parent="1">
                    <mxGeometry relative="1" as="geometry"/>
                </mxCell>
                <mxCell id="124" value="No" style="edgeStyle=orthogonalEdgeStyle;rounded=0;orthogonalLoop=1;jettySize=auto;html=1;exitX=0;exitY=0.5;exitDx=0;exitDy=0;entryX=0.5;entryY=0;entryDx=0;entryDy=0;" edge="1" source="125" target="131" parent="1">
                    <mxGeometry x="-0.9444" relative="1" as="geometry">
                        <Array as="points">
                            <mxPoint x="-340" y="7280"/>
                            <mxPoint x="-340" y="7580"/>
                            <mxPoint x="-120" y="7580"/>
                        </Array>
                        <mxPoint as="offset"/>
                    </mxGeometry>
                </mxCell>
                <mxCell id="125" value="Next Link&lt;div&gt;exist?&lt;/div&gt;" style="rhombus;whiteSpace=wrap;html=1;" vertex="1" parent="1">
                    <mxGeometry x="-300.02000000000004" y="7240.09" width="120" height="80" as="geometry"/>
                </mxCell>
                <mxCell id="126" style="edgeStyle=orthogonalEdgeStyle;rounded=0;orthogonalLoop=1;jettySize=auto;html=1;exitX=0.5;exitY=1;exitDx=0;exitDy=0;entryX=0.5;entryY=0;entryDx=0;entryDy=0;" edge="1" source="127" target="129" parent="1">
                    <mxGeometry relative="1" as="geometry"/>
                </mxCell>
                <mxCell id="127" value="Get next Link" style="rounded=0;whiteSpace=wrap;html=1;" vertex="1" parent="1">
                    <mxGeometry x="-320.02000000000004" y="7340.09" width="160" height="40" as="geometry"/>
                </mxCell>
                <mxCell id="128" style="edgeStyle=orthogonalEdgeStyle;rounded=0;orthogonalLoop=1;jettySize=auto;html=1;exitX=1;exitY=0.5;exitDx=0;exitDy=0;" edge="1" source="167" parent="1">
                    <mxGeometry relative="1" as="geometry">
                        <Array as="points">
                            <mxPoint x="-140" y="7540"/>
                        </Array>
                        <mxPoint x="-140.04" y="7280" as="targetPoint"/>
                    </mxGeometry>
                </mxCell>
                <mxCell id="169" style="edgeStyle=none;html=1;exitX=0.5;exitY=1;exitDx=0;exitDy=0;entryX=0.5;entryY=0;entryDx=0;entryDy=0;" edge="1" parent="1" source="129" target="166">
                    <mxGeometry relative="1" as="geometry"/>
                </mxCell>
                <mxCell id="129" value="Increment Image Score by Link Score" style="rounded=0;whiteSpace=wrap;html=1;" vertex="1" parent="1">
                    <mxGeometry x="-320.02000000000004" y="7400.09" width="160" height="40" as="geometry"/>
                </mxCell>
                <mxCell id="173" style="edgeStyle=none;html=1;exitX=0.5;exitY=1;exitDx=0;exitDy=0;entryX=0.5;entryY=0;entryDx=0;entryDy=0;" edge="1" parent="1" source="131" target="171">
                    <mxGeometry relative="1" as="geometry"/>
                </mxCell>
                <mxCell id="131" value="Sort Image History by Datetime" style="rounded=0;whiteSpace=wrap;html=1;" vertex="1" parent="1">
                    <mxGeometry x="-200.02000000000004" y="7599" width="160" height="40" as="geometry"/>
                </mxCell>
                <mxCell id="132" value="" style="edgeStyle=orthogonalEdgeStyle;rounded=0;orthogonalLoop=1;jettySize=auto;html=1;" edge="1" source="133" target="134" parent="1">
                    <mxGeometry relative="1" as="geometry"/>
                </mxCell>
                <mxCell id="133" value="Sort Images ID Scores in&amp;nbsp; Score Descending order" style="rounded=0;whiteSpace=wrap;html=1;" vertex="1" parent="1">
                    <mxGeometry x="-620.09" y="7680" width="160" height="40" as="geometry"/>
                </mxCell>
                <mxCell id="134" value="End" style="ellipse;whiteSpace=wrap;html=1;" vertex="1" parent="1">
                    <mxGeometry x="-600.09" y="7740" width="120" height="40" as="geometry"/>
                </mxCell>
                <mxCell id="135" style="edgeStyle=orthogonalEdgeStyle;rounded=0;orthogonalLoop=1;jettySize=auto;html=1;exitX=0.5;exitY=1;exitDx=0;exitDy=0;entryX=0.5;entryY=0;entryDx=0;entryDy=0;" edge="1" source="136" target="109" parent="1">
                    <mxGeometry relative="1" as="geometry"/>
                </mxCell>
                <mxCell id="136" value="Get List of Links from DB" style="rounded=0;whiteSpace=wrap;html=1;" vertex="1" parent="1">
                    <mxGeometry x="-620.09" y="7340" width="160" height="40" as="geometry"/>
                </mxCell>
                <mxCell id="137" value="Initiliaze Image Score History to empty List" style="rounded=0;whiteSpace=wrap;html=1;" vertex="1" parent="1">
                    <mxGeometry x="-620.09" y="7620" width="160" height="40" as="geometry"/>
                </mxCell>
                <mxCell id="142" value="" style="shape=image;verticalLabelPosition=bottom;labelBackgroundColor=default;verticalAlign=top;aspect=fixed;imageAspect=0;image=data:image/png,iVBORw0KGgoAAAANSUhEUgAABNYAAAJ5CAYAAABi772+AAAABHNCSVQICAgIfAhkiAAAABl0RVh0U29mdHdhcmUAZ25vbWUtc2NyZWVuc2hvdO8Dvz4AAAAmdEVYdENyZWF0aW9uIFRpbWUARnJpIDE0IE1hciAyMDI1IDA5OjAxOjAwSLUu6gAAIABJREFUeJzs3X10nHWd///X3CaZJG3SJG3S0qZ3tHWpWn9C6w0oFhW+yGFlzwq7HJZdrAguFYUugspx94jrcd26cEDA1uqyN6yr7C7fc1wFdYHdCrYL9EsRbZGWNkOTJmmSziSTTDK31++PuUmmSdrkyjWZTzLPxzk5yWRmXvlcffdqm1c/10SWQ3bt2uVUlGVZltXW1kbeDDAPs/JMn0cxMk3PM30m5ZbHPMzKsyxmYlJeS0uLtXPnTsfyLMvs450LeeV2fhQjk5nM7zzmYVae0/OwLPOP2fQ8zhGz8mY6D7cAAAAAAAAATBvFGgAAAAAAAGADxRoAAAAAAABgA8UaAAAAAAAAYAPFGgAAgMNcLleplwAAAIBZQLEGAADgsMbGRknSY489ptraWt17770F9x8/flwul2vc2549e0qxXAAAANjkLfUCAAAA5puqqirdeOONevPNN7V69epx94fDYbndbrW1tRXsblu0aNFsLhMAAAAzRLEGAADgMJfLpU2bNun73/++rrjiinH3h8NhLVy4UMuXLy/B6gAAAOAULgUFAABwWDqd1p133imvd+L/wwyFQvL5fLrpppvU2tqqTZs26aGHHpJlWbO8UgAAAMwEO9YAAAAc1tPToyVLlkx6fzKZVFVVlTZt2qQdO3bo5Zdf1vbt2+Xz+XTrrbfO4koBAAAwExRrAAAADhsZGTnr/ddee62uvfba/O2NGzfqyJEj2rVrF8UaAADAHOLdvXu3I0F79+51JCenr69PDQ0N5NnEPMzKM30excg0Pc/0mZRbHvMwK09iJk7kvfvd79bWrVvznxscHNRzzz2nt73tbVq7dq0kqaurS/v27dPFF1+sDRs2aM+ePbIsSy+99JJeffVVWZalaDSq/fv3y6l/s+XWZ/qvn8l55XZ+FCOTmczvPOZhVp7T85DMP2bT8zhHzMqb8Twsh+zatcupKMuyLKutrY28GWAeZuWZPo9iZJqeZ/pMyi2PeZiVZ1nMZKb6+vryH1922WXWl7/85YL7f/jDH1r3339/wefuuecea8uWLeOyWlparJ07dzq6PtN//UzPK7fzoxiZzGR+5zEPs/KcnodlmX/MpudxjpiVN9N5cCkoAACAw2pra9Xe3i5JisViikQiam9vl9frVXNzs2pqanT33XerqalJW7du1QsvvKCHH35YjzzySIlXDgAAgOmgWAMAAHDYb3/7W73rXe/K337++ef14IMPas2aNTp69KiuvPJKPfLII7rvvvt08803a+XKldq5c6duuOGGEq4aAAAA00WxBgAA4LBNmzbJsqyzPmbbtm3atm3bLK0IAAAAxeAu9QIAAADmm97e3lIvAQAAALOAYg0AAMBhQ0NDpV4CAAAAZgHFGgAAAAAAAGADxRoAAAAAAABgA8UaAAAAAAAAYAPFGgAAAAAAAGADxRoAAAAAAABgA8UaAAAAAAAAYAPFGgAAAAAAAGADxRoAAAAAAABgA8UaAAAAAAAAYAPFGgAAAAAAAGADxRoAAAAAAABgA8UaAAAAAAAAYAPFGgAAAAAAAGCDNxgMOhLU19cnp7IkqaOjw7GscsxjHmblmT6PYmSanmf6TMotj3mYlScxE5PyUqmUQqEQ8zAor9zOj2JkMpP5ncc8zMpzeh6S+cdseh7niFl5M52Ht7W11ZGFNDQ0yKmsHPLsYx5m5c2FeRQj0+S8uTCTcspjHublMRNz8jwej+rr641dXznmleP5UYxMZjJ/85iHWXnFmIdk9jGbnsc5YlbeTOfBpaAAAAAAAACADRRrAAAAAAAAgA0UawAAAAAAAIANFGsAAAAAAACADRRrAAAAAAAAgA0UawAAAAAAAIANFGsAAAAAAACADRRrAAAAAAAAgA0UawAAAAAAAIANFGsAAAAAAACADRRrAAAAAAAAgA0UawAAAAAAAIANFGsAAAAAAACADRRrAAAAAAAAgA0UawAAAAAAAIANFGsAAAAAAACADRRrAAAAAAAAgA0UawAAAAAAAIAN3mAw6EhQX1+fnMqSpI6ODseyyjGPeZiVZ/o8ipFpep7pMym3POZhVp7ETEzKS6VSCoVCzMOgvHI7P4qRyUzmdx7zMCvP6XlI5h+z6XmcI2blzXQe3tbWVkcW0tDQIKeycsizj3mYlTcX5lGMTJPz5sJMyimPeZiXx0zMyfN4PKqvrzd2feWYV47nRzEymcn8zWMeZuUVYx6S2cdseh7niFl5M50Hl4ICAAAAAAAANlCsAQAAAAAAADZQrAEAAAAAAAA2UKwBAAAAAAAANlCsAQAAAAAAADZQrAEAAAAAAAA2UKwBAAAAAAAANlCsAQAAAAAAADZQrAEAAAAAAAA2UKwBAAAAAAAANlCsAQAAAAAAADZQrAEAAAAAAAA2UKwBAAAAAAAANlCsAQAAAAAAADZQrAEAAAAAAAA2UKwBAAAAAAAANlCsAQAAAAAAADZQrAEAAAAAAAA2eIPBoCNBfX19cipLkjo6OhzLKsc85mFWnunzKEam6Xmmz6Tc8piHWXkSMzEpL5VKKRQKMQ+D8srt/ChGJjOZ33nMw6w8p+chmX/MpudxjpiVN9N5eFtbWx1ZSENDg5zKyiHPPuZhVt5cmEcxMk3OmwszKac85mFeHjMxJ8/j8ai+vt7Y9ZVjXjmeH8XIZCbzN495mJVXjHlIZh+z6XmcI2blzXQeXAoKAAAAAAAA2ECxBgAAAAAAANhAsQYAAAAAAADYQLEGAAAAAAAA2ECxBgAAAAAAANhAsQYAAAAAAADYQLEGAAAAAAAA2ECxBgAAAAAAANhAsQYAAAAAAADYQLEGAAAAAAAA2ECxBgAAAAAAANhAsQYAAAAAAADYQLEGAAAAAAAA2ECxBgAAAAAAANhAsQYAAAAAAADYQLEGAAAAAAAA2ECxBgAAAAAAANhAsQYAAAAAAADY4A0Gg44E9fX1yaksSero6HAsqxzzmIdZeabPoxiZpueZPpNyy2MeZuVJzMSkvFQqpVAoxDwMyiu386MYmcxkfucxD7PynJ6HZP4xm57HOWJW3kzn4W1tbXVkIQ0NDXIqK4c8+5iHWXlzYR7FyDQ5by7MpJzymId5eczEnDyPx6P6+npj11eOeeV4fhQjk5nM3zzmYVZeMeYhmX3MpudxjpiVN9N5cCkoAAAAAAAAYAPFGgAAAAAAAGADxRoAAAAAAABgA8UaAAAAAAAAYAPFGgAAAAAAAGADxRoAAAAAAABgA8UaAAAAAAAAYAPFGgAAAAAAAGADxRoAAAAAAABgA8UaAAAAAAAAYAPFGgAAAAAAAGADxRoAAAAAAABgA8UaAACAw1wuV6mXAAAAgFlAsQYAAOCwxsZGSdJjjz2m2tpa3XvvveMes2/fPl100UWqrKxUa2urHn300dleJgAAAGbIW+oFAAAAzDdVVVW68cYb9eabb2r16tXj7j99+rSuvPJK3XLLLfrRj36kAwcO6MYbb9Tq1at1+eWXl2DFAAAAsIMdawAAAA5zuVzatGmT/ud//kdNTU3j7n/iiSe0ZMkSfeMb39CqVav0h3/4h/rUpz6l3bt3l2C1AAAAsItiDQAAwGHpdFp33nmnvN6JLw44cOCANm/eXPC5zZs36+WXX56N5QEAAMAhFGsAAAAO6+npOev9vb29amhoKPhcY2PjOZ8HAAAAs1CsAQAAOGxkZOSs91uWNeHn+WmiAAAAc4vXqdfy2Lt3ryM5OX19feP+J5e8qWMeZuWZPo9iZJqeZ/pMyi2PeZiVJzETJ/Le/e53a+vWrfnPDQ4O6qWXXtJ73vMeLV68WD09PYrH49q/f78uuOAC9fT0aPHixUqn09q3b58OHToky7IUjUa1f/9+R19/bS78+pmcV27nRzEymcn8zmMeZuU5PQ/J/GM2PY9zxKy8Gc/DcsiuXbucirIsy7La2trImwHmYVae6fMoRqbpeabPpNzymIdZeZbFTGaqr68v//Fll11mffnLXy64/7vf/a61Zs2ags/dcsst1nXXXTcuq6Wlxdq5c6ej6zP918/0vHI7P4qRyUzmdx7zMCvP6XlYlvnHbHoe54hZeTOdB5eCAgAAOKy2tlbt7e1qb29XLBZTJBJRe3u7urq6JEmf+MQnFA6Hddddd6mtrU2PP/64HnvsMW3fvr3EKwcAAMB0TPyjqgAAAGDbb3/7W73rXe/K337++ef14IMPas2aNTp69KgWLlyop556SrfddpsefPBBLVu2THv27NHFF19cwlUDAABguijWAAAAHLZp06ZJf0BBzkUXXaQXX3xxllYEAACAYuBSUAAAAIf19vaWegkAAACYBRRrAAAADhsaGir1EgAAADALKNYAAAAAAAAAGyjWAAAAAAAAABso1gAAAAAAAAAbKNYAAAAAAAAAGyjWAAAAAAAAABso1gAAAAAAAAAbKNYAAAAAAAAAGyjWAAAAAAAAABso1gAAAAAAAAAbKNYAAAAAAAAAGyjWAAAAAAAAABso1gAAAAAAAAAbKNYAAAAAAAAAG7zBYNCRoL6+PjmVJUkdHR2OZZVjHvMwK8/0eRQj0/Q802dSbnnMw6w8iZmYlJdKpRQKhZiHQXnldn4UI5OZzO885mFWntPzkMw/ZtPzOEfMypvpPLytra2OLKShoUFOZeWQZx/zMCtvLsyjGJkm582FmZRTHvMwL4+ZmJPn8XhUX19v7PrKMa8cz49iZDKT+ZvHPMzKK8Y8JLOP2fQ8zhGz8mY6Dy4FBQAAAAAAAGygWAMAAAAAAABsoFgDAAAAAAAAbKBYAwAAAAAAAGygWAMAAAAAAABsoFgDAAAAAAAAbKBYAwAAAAAAAGygWAMAAAAAAABsoFgDAAAAAAAAbKBYAwAAAAAAAGygWAMAAAAAAABsoFgDAAAAAAAAbKBYAwAAAAAAAGygWAMAAAAAAABsoFgDAAAAAAAAbKBYAwAAAAAAAGygWAMAAAAAAABsoFgDAAAAAAAAbPAGg0FHgvr6+uRUliR1dHQ4llWOeczDrDzT51GMTNPzTJ9JueUxD7PyJGZiUl4qlVIoFGIeBuWV2/lRjExmMr/zmIdZeU7PQzL/mE3P4xwxK2+m8/C2trY6spCGhgY5lZVDnn3Mw6y8uTCPYmSanDcXZlJOeczDvDxmYk6ex+NRfX29sesrx7xyPD+KkclM5m8e8zArrxjzkMw+ZtPzOEfMypvpPLgUFAAAAAAAALCBYg0AAAAAAACwgWINAAAAAAAAsIFiDQAAAAAAALCBYg0AAAAAAACwgWINAAAAAAAAsIFiDQAAAAAAALCBYg0AAAAAAACwgWINAAAAAAAAsIFiDQAAAAAAALCBYg0AAAAAAACwgWINAAAAAAAAsIFiDQAAAAAAALCBYg0AAAAAAACwgWINAAAAAAAAsIFiDQAAAAAAALCBYg0AAAAAAACwgWINAAAAAAAAsMEbDAYdCerr65NTWZLU0dHhWFY55jEPs/JMn0cxMk3PM30m5ZbHPMzKk5iJSXmpVEqhUIh5GJRXbudHMTKZyfzOYx5m5Tk9D8n8YzY9j3PErLyZzsPb2trqyEIaGhrkVFYOefYxD7Py5sI8ipFpct5cmEk55TEP8/KYiTl5Ho9H9fX1xq6vHPPK8fwoRiYzmb95zMOsvGLMQzL7mE3P4xwxK2+m8+BSUAAAAAAAAMAGijUAAAAAAADABoo1AAAAAAAAwAaKNQAAAAAAAMAGijUAAAAAAADABoo1AAAAAAAAwAaKNQAAAAAAAMAGijUAAAAAAADABoo1AAAAAAAAwAaKNQAAAAAAAMAGijUAAAAAAADABoo1AAAAAAAAwAaKNQAAAAAAAMAGijUAAAAAAADABoo1AAAAAAAAwAaKNQAAAAAAAMAGijUAAAAAAADABoo1AAAAAAAAwAZvMBh0JKivr09OZUlSR0eHY1nlmMc8zMozfR7FyDQ9z/SZlFse8zArT2ImJuWlUimFQiHmYVBeuZ0fxchkJvM7j3mYlef0PCTzj9n0PM4Rs/JmOg9va2urIwtpaGiQU1k55NnHPMzKmwvzKEamyXlzYSbllMc8zMtjJubkeTwe1dfXG7u+cswrx/OjGJnMZP7mMQ+z8ooxD8nsYzY9j3PErLyZzoNLQQEAAAAAAAAbKNYAAAAAAAAAGyjWAAAAAAAAABso1gAAAAAAAAAbKNYAAAAAAAAAGyjWAAAAAAAAABso1gAAAAAAAAAbKNYAAAAAAAAAGyjWAAAAAAAAABso1gAAAAAAAAAbKNYAAAAAAAAAGyjWAAAAAAAAABso1gAAAGbZ8ePH5XK5xr3t2bOn1EsDAADANHhLvQAAAIByEw6H5Xa71dbWJpfLlf/8okWLSrgqAAAATBfFGgAAwCwLh8NauHChli9fXuqlAAAAYAa4FBQAAGCWhUIh+Xw+3XTTTWptbdWmTZv00EMPybKsUi8NAAAA08CONQAAgFmWTCZVVVWlTZs2aceOHXr55Ze1fft2+Xw+3XrrraVeHgAAAKaIYg0AAGCWXXvttbr22mvztzdu3KgjR45o165dFGsAAABziHf37t2OBO3du9eRnJy+vj41NDSQZxPzMCvP9HkUI9P0PNNnUm55zMOsPImZFCuvsrJS73vf+7R27VpJUldXl/bt26eLL75YGzZs0J49e2RZll566SW9+uqrsixL0WhU+/fvl1P/Zjvb+sibmnI7P4qRyUzmdx7zMCvP6XlI5h+z6XmcI2blzXgelkN27drlVJRlWZbV1tZG3gwwD7PyTJ9HMTJNzzN9JuWWxzzMyrMsZlLsvB/+8IfW/fffX/C5e+65x9qyZcu4x7a0tFg7d+6c1fWRd3bldn4UI5OZzO885mFWntPzsCzzj9n0PM4Rs/JmOg8uBQUAAJhlNTU1uvvuu9XU1KStW7fqhRde0MMPP6xHHnmk1EsDAADANFCsAQAAzLIrr7xSjzzyiO677z7dfPPNWrlypXbu3Kkbbrih1EsDAADANFCsAQAAlMC2bdu0bdu2Ui8DAAAAM+Au9QIAAAAAAACAuYhiDQAAAAAAALCBYg0AAAAAAACwgWINAAAAAAAAsIEfXgAAAAAAAABMkZVMKHLokAYPH6JYAwAAAAAAACYz0n5CkcOHNPT64cz7I0fy91GsAQAAAAAAAJJS0SFFDh/S4KFDGnz9sAYPH1IyEpn08RRrAAAAAAAAKEuV4ZC6f/Lj/G604WBw0se6q6pUs36Daja8TTUbNqhm/dso1gAAAAAAADD/JcIhDR7O7kQ7dEiRw4e0LhbT8V88PeHjq9etzxdoNRs2qGpF67jHUKwBAAAAAABg3sldypl7P9LZOeljK887L1+g1Wx4m2rWb5BcrnN+DYo1AAAAAAAAzGnDJ97S0JEjGjryOw0ePqTIoUOSZU34WF/9onyBtvfNY7r2zh3yVFfb+roUawAAAAAAAJgzoseOaejoG9ki7Q1Fjx5VKjYy4WPdFRUFr4lWs2GD/E2L8/dHdu+2XapJFGsAAAAAAAAwkGWls+XZEUWPHtHQ0UyR1plKTfqc6vPXZX/AQGZHWlXryqKukWINAAAAAAAAJZWOxzO7z948qqEj2d1obx4963MCq9eoZv161axbr8D561Szbv2UXhfNSRRrAAAAAAAAmDWp4Wj+Ms6hI0c0dPQNDQeDZ31OVetK1axfr3hjk87b8h7VrFsvl7f0tZY3eI6FT1VfX5+cypKkjo4Ox7LKMY95mJVn+jyKkWl6nukzKbc85mFWnsRMTMpLpVIKhULMw6C8cjs/ipHJTOZ3HvMwK8/peUjmH7PpeWV3jhw5othvf6PEW0El3woqEQwqear7rM/xNDfLv3KV/CtXydu6Ur7WlXL5/ZKk7o4OBaprdNqhdc50Ht7W1lZHFtLQ0CCnsnLIs495mJU3F+ZRjEyT8+bCTMopj3mYl8dMzMnzeDyqr683dn3lmFeO50cxMpnJ/M1jHmblFWMektnHbHrefD5H4qf7Rn+gQPaSTnd3t06f5TkVS5eqZl3mcs7q7Ht3VVVR1jeRmc6j9HvmAAAAAAAAMHdYlqLHjyl67E0Nvflm/uNEKHTWp1U0N2d+uMCYEs1TUzNLiy4OijUAAAAAAABMKH66T8PHsiXasTcVPXZM0ePHzvk8f1OTatatV6JpsZZt3qKadevlXbhwFlY8uyjWAAAAAAAAypyVTit67E0Nv/SSgk//JLMT7dgxJfvD53xu5dKlCqxao6rVq/OXdfoWLZIkBYNB1RXhcmRTUKwBAAAAAACUkXhvr6LHcpdwHtPQm0c1HGzL3z9ZleYJBBRYtVqB1WtUvWZN/mN3ZeWsrNtEFGsAAAAAAADzkJVM5l//LHcJ59CbR5UcGDjncyuXnafA6myJtnqNAqtXq6K5ZRZWPbdQrAEAAAAAAMxxsZ5TmfIsuxNt+NgxRcfsQpuMp7pagdWju88i1dVa/d73yV1RUfxFzwMUawAAAAAAAHNEsj+saFubhoNBRYPHFfrd79Rz8qSSkXPvQqtavlyBVWuyO9FWq3r1WvmXLCl4zEgwSKk2DRRrAAAAAAAAhjmzQBsOBhVta5vSDxPw1tbmd6AFVq9WYNVqVa9ZK5fPNwsrLy8UawAAAAAAACUykwLN5XbL09yihevWjbmcc7UqFi8553PhDIo1AAAAAACAIssVaA1Hj+j4Qw9Mq0DzVAVU1bpCVStaVbk88z6wolWV552nYDCo1tbWWTgCTIRiDQAAAAAAwCHn2oG2TFL3Ky9P+FzfokWZwmz5ClWtyBRoVSta5W9snMUjwHRQrAEAAAAAAEzTTC7hrFy6tHDn2fLlqlrRKm9t7SysHE6iWAMAAAAAAJiAlUopebJDoY52jXS0a7g9834qBZrL48nuOBu9hDPQ2qrHf/4L3XzrrbN0BCg2ijUAAAAAAFDWRk6e1EhHu0ayxVmuRIt1dUqSes7yXE919ZidZytGXwtt6bIJH2+5nynCEaBUKNYAAAAAAMC8F+/pKdh1NrZEs9Lpcz6/YvGSzCWb5y0fswttufwNvP5ZOaNYAwAAAAAA80KyP6z40SPq+d3h0V1n2ffpWOycz3dXVqpq+XJVnrci+365+n0+rbpos9wVFbNwBJhrKNYAAAAAAMCckYpGNdx+Il+YZXaddWi4/YRSg4OSpL5zZPiXLFFg+YrsDrQV+Z1o/qamcY8dCgYp1TApijUAAAAAAGCUdCymkY4OjZzs0Ej7iYJLOBOh0JQyPIGAqs5bni/NKpevUOV5y1W1fLncfn+RjwDlwhsMBh0J6uvrk1NZktTR0eFYVjnmMQ+z8kyfRzEyTc8zfSbllsc8zMqTmIlJealUSqFQiHkYlFdu50cxMpnJ/M5jHmblOT0Pybk1WsPDSp7qVs/vfqfBZELJ7m6lek4pdeqUUuGplWeS5Glskre5Wd7mFnmbmxX2+tS88e1y19XlH5OUNJh9U2fntNZp+kxM/z1oet5M5+FtbW11ZCENDQ1yKiuHPPuYh1l5c2Eexcg0OW8uzKSc8piHeXnMxJw8j8ej+vp6Y9dXjnnleH4UI5OZzN885mFWXjHmIU19jcn+fg2f7FDs5MnM7rPsLrTYyZNK9IclSS5JkXPkeAIBVa1oPWMHWmb3mcvrK3hsMBgsu5mQZ99M58GloAAAAAAAwLb46T6NdHQo1nmyoDgbOdmhZPY1z6bCEwioomWpKpctU9XSZapctixze/ly+Rc1FPEIAPso1gAAAAAAwFnFTnXny7LI4cN6YzCiWOdJDXd0KD0yMuUcT03tuOIs7PFo5f/3bvnq64t4BEBxUKwBAAAAAACNnDxZsOtsJH/5ZrusZHLKOb66OlUuW6bKpZm3iuz7ymXL5K2tHff4aDBIqYY5i2INAAAAAIAykOjvV7y7SyNdnYp1dinW3aVYV2e+QJNlTTnL39iYL8tyl2/mbnuqAkU8CsAsFGsAAAAAAMwDqeiQYl3dmbKsq1Pxri6t/N/9+vXL/6tYd5dS0ei08iqWNOcLs4qlS1W5dJmqli1TdyKpleefX6SjAOYWijUAAAAAAOYAK5HI7jbrzO4268oXaCNdnUoODIx7zgJJk9Vpbp9P/uZmVbYsVUXLUlWN2XVW0bJULo9nwue5gkHnDgqY4yjWAAAAAAAwgWUp2XNKA6HTGunsVKyrc/Ryzc4uJU73TTsyXl2jpvPXyd+8RJXNLapoblFFc7Mqmlvkb+AnbQIzRbEGAAAAAMAsiff0FJRl+Y+7OhXv7pYk9Uwjz9/YqIolmaKssqVF/iXZAq2lRRVLmrV792594NOfLs7BAKBYAwAAAADACVY8rlhvj+I9PYpn38e6uzTSmSnNRro6p/XTNaXMT9j0L2lWZXaXWUVz85idZ0vk8vqKdDQApoJiDQAAAACAc0iPjIyWZWOKs/4Tb2lgcFDx3h4l+vunnesJBMbsNmtW1F+hlgt+L78LzVNVVYSjAeAUijUAAAAAQFlLRaMFu8zivYXlWby3R8lIxFa22+/P7C5b0qyKlsxuM/+SZlW2ZHadeWtrCx4fDAZV39rqxGEBmAUUawAAAACAeSs1GCkoyQaPHtWxRFzxnt58gZaKDtnKdldUylW3UDUtS+VvapK/sSnzfszHvoV1Dh8RAJNQrAEAAAAA5qRkf//o5ZlnvLZZ7n1qZGTc86ay98wTCIwWZY1NqhhbnGXfe2trFQwG1coOM6BsUawBAAAAAIxipVKK9/Yq0derkcOH1fX/XlYsezve25svztLxuK18b03NuJLszPLMU13t8FEBmI8o1gAAAAAAsyYZiWRe6L+vL1OS9fYo1tureF9v9nM9SoRCBc8JTZI1Ee+CBfI3NaliguLM39SkruiwVq1f7+xBAShbFGsAAAAAgBmzkknF+3pV3dervv95Ll+cxbLlWeJ05nY6FrP9NXyLFqmisVG+hsZJyzN3RcVZM9zBoO2vDwBnoljH+sghAAAgAElEQVQDAAAAAJxVcmAgv7ts7M6yTGmWeUv2hyVJayQdefYX08rPv55ZQ4P82eIsV6CdTia14oIL5G9sklyuIhwdANhHsQYAAAAAZSqdSCjV26NIZCBfkOV2l+V2msV7e2UlErbyXV6v/A0NmR1mjY2Z4qyhSb6GhnxxVtHYKHdV1aQZkWBQ/qbFdg8RAIrKG3RoG2xfX5+cypKkjo4Ox7LKMY95mJVn+jyKkWl6nukzKbc85mFWnsRMTMpLpVIKhULMw6C8cjs/ipHJTIqbZ40MKzUwICsSUWqgX1YkomR/v6zIgFIDA0oP9OfvTw8NSZJO2ViHq6ZW3vp6uevq5KlfJE9dndx1dfrlq7/WZR//uNx19XLX1o57XiL7FpWkdFo6dfavPtfnUeo8p88PyfxjNj2PP7PMypvpPLxO/VjghoYGx3/EMHn2MQ+z8ubCPIqRaXLeXJhJOeUxD/PymIk5eR6PR/X19caurxzzyvH8KEYmM5meZH9Y8VBIyXBYwx0nVNHdmb0dyr9PhEJKhMMzeg0zSfJUVcnX0CB/dpfZ6GWZDZnLNRdlLtd0eSe+AOqXw7u15uJLZrSGM5k2j7mUV4zzQzL7mE3PK4c/s+ZS3kznwaWgAAAAADDL0onEmFIsrETotBLhcLYcC53xPixZVsHzwza+pm9hnbx1dfLXL8q+r5e3vl4RudSyfn32Us1GeaqrnTlIACgDFGsAAAAA4IDU0FBBGZYry/rfektvpJL5siwZDis5ODjjr+fyeseUZJn3vvp6+erqs+/r5K2rzxRodXVyud0T5gSDQS0swo4mACgHFGsAAAAAMIHU8LAS/WElw/2Z9/1hJcJhJfv7Fc8VZP39+QItHY9PmhWd4tf0BALy1S+Sr65uzPtMWZbbZXYqOqyVF1wgT02NMwcKALCNYg0AAABAWUhFo0r0948pyMJK9PdndpL1Z0uycFgjfb3qHhxSOjbiyNd119aqsrGpoCybbJeZ2+8/Z97pYJBSDQAMQbEGAAAAYE5KRaNKhMMK9PUqtP9XSoTCY3aW9Y/bYWadZUfZdHgqK+XNvl6Zr66u4NLLM3eZ+errFQwGi/Li8QCA0qNYAwAAAGCE1NCQEv3ZF/DvLyzGMpdkhhUPZ94n+sOyEglJ0lpJv3v2F7a/rqeqSt6FdfItXChffb1iHq/qzluWebH/hXXy1S2Ud2Gd/NnLMd0VFQ4dMQBgrqNYAwAAAOC4ZGRAqcigEpEBpQYHlRwYyH88cOKEjqRT+UsvczvMrGTCka/tqQrIV1+X/ymYvoULswVZnbwLF+YLskxxtnBcURYMBrWCHWYAgCmgWAMAAAAwoXRsRMnIoBLtJxQZ6FdiYECpwYiSkbFvA/mPU4MRJQciSg5Gzpk9NI11eKurC4qxzPvRHWa/eOFXuvqPr8/vLJvK65QBAOAEijUAAABgPrOsMQXYYGYn2WBEiYHIGSVZZjdZIjKgZPa+sT/lstfBJbkDAfnrF2V2kmV3juV3mI0t0LI7ztw+31nzIm8eV/X55zu4QgAApoZiDQAAAJgDUiMj+R1hqcFIQQGWiESUypZjg729GojH8yVZanCwKOtxeb3y1tbKW1Mr74IF8tTUyFe7QJ7aGnlrF2Q/XytPTa28tbXyLViQ//it9nZezB8AMC9QrAEAAACzJDk4qNTgoFJDg5kybGhQw8GgOl96UcmhzH3J7OeTkYiSg9kdZpGI0ompv/5YbBpr8gQC8tYukKe2Vr7a2uzH2ZIsW46FhkfUsnp19jGZEs0TCEz/FwAAgHmGYg0AAACYonQsJt/IsIaDbUoODuULsNTQYLYEy3yc2S2W+3goU5INDUqWNWFueIbrcnm9+R1hKb9fgcZG+Wqzu8UWLBjzcXaH2ZjyTG73OfOHg0EtYIcZAADjUKwBAACgfORebyy7ayzzgvuDSgxG8jvJkpHBcffndphZiYTeJunVH/9f59fmcmUvrayRp7om83G2EPNlL7X01i6QN3ep5ZiP3ZWV+ZhgMMhllgAAzBKKNQAAAMwp6eHh0SJscFDJwUhm91j248z70Y+HQ6fVF4spNTikVHQ6P4ty+txVVfLV1GYulaypyewOq6nOf+ypqZE3W5p5sgXaqYEBrVi/Tp5AdVHXBgAAnEexBgAAgKKy0mmlh4eVikaVGo4qNTys1NBQ5uPosNLD0dH7osPqP9WtmNudeVw0mr1/WMnokFLRqJROF22tbq9PnjFFmHdMQZYry/a/clCX/p//I29tdmfZmPtdHs/0v2YwSKkGAMAcRbEGAACAcdKJhNJjyq7UcDRbho0WZJn7hxXu6lLC6xl9XDSaL9KS0SGlR0am/fWHZ7D23KWUmZ9SWauYy63axYszl01mP++trR0txbIfe2pq5BlzSeVk+vojavjgpTNYIQAAmC8o1gAAAOaJ1PBwfndXajiq5NBQwe1c4TXQ1aU3s0XY6G6xYaWzRVgqGpWVTE7ra8+kCMtxeX3yBKpk+fyqWLBA7qoqeaur5akKyBOokrsqkPkJlmcUZ5mPqzOvSVZdI7lcBbm85hgAACgWijUAAIASsJLJbBE2nNkFlr1EMnc7PZJ5f21Tg1a+fkjHHvi7/OfSucefsZNssp84ORGnXmnMU1kpq6JC/ppaeQJV8gSq5QkE5KmqkicQyJdhnmxJ5q4avc9TFZA7UCVv9jkun08SRRgAAJg7vMFg0JGgvr4+OZUlSR0dHY5llWMe8zArz/R5FCPT9DzTZ1JueczDrDyJmYyTSmUuZ4zFlB4ZkRUbKbiteOZ9emRE1siIBk+fVtjrGfeY1PDw6O1Uakpr+6PFjVLbMZ1qO+bAkUout1uW3y93VUDuqkq5KirlDgTkqqiQq7JS7soqqbJS7srK/G1X7nFVVZnHVVVlPl9ZKblc6ujo0JJlyyb/5cu+xSe6M56Q4mEpHM5/yvTfL+V2fhQjk5nM7zzmYVae0/OQzD9m0/M4R8zKm+k8vE79b2BDQ4Pj/7NInn3Mw6y8uTCPYmSanDcXZlJOeczDvLy5PJOp7gQbfa2wYVX39WrE7S54TDL3OmHDw9O+LNIlZy6NzEl7vapYsECeyqrR3WDZ3V6e7I4wd3YXWGb3V9WYnWKjl1F6q6vlrqgoyo6wcsqby+eHSZnMZP7mMQ+z8ooxD8nsYzY9j3PErLyZzoNLQQEAwKyykkmlYjFZsZjS8ZhSIzFZ8ZhSIyNKx+OyYjGlYjGlYzGlYyNKx+KZx+VeB2xkWJG+PkVdLkdKsBynijBPVZUsv1/+6pp8CeauqpKnMvs+e9tbVXh77P2eQCB/e/maNdqxY4d27Njh0AoBAADgFIo1AAAgK5lUOhZTKjYiKxZX5UC/Bn/3uqx4PFt4xZQeyRVhI7Li8WzxFSt43tj7c8+zYnHFo0M6lUwpHRuRNcVLIM8l5kBGrtSyvL7MjrAZlmCeqipJvEYYAABAuaBYAwDAUOlEIrt7K7Nry8ru7krnXs8rW15FO0+qq6Y2W27FxuwGi2dLrol3gI3NUDpd8LXXSfrNz35amgOfxNhSK+X1qmrhQkdKMIkiDAAAAPZQrAEAMBnLylyaGI0qcfq00vG40om4rEQi8/GYt7Gfs+JxWYkx95/xnMFwWMNeb+Zz2QIsnd3dlbssMh2LyTqj7Dqb/iL+MkzK5ZLb75enslIuf4U8lRVy+yvkqqiQp6JC7ooKuSsq5a7waygW18KmRrn9FXJXVsrt9xfc76moLHieK5ubeXwmdyyKMAAAAJiAYg0AYKx0IpG55DB+ZpkVG72dGF9uDXZ3q726WjqjACvISIz9XGzcY6x4XOlEIr+WLoePbcThvByX2z2mlPJny6pskZUrqir82UIrU2S5KioK7vdUVuiZvb/U5VddVZgx5nm5YmyqKMIAAAAwH1GsAQDGsVKpTMGUSGR2XiUSsuKjt+MnTqi/r3fynVsFZVc8X46NL8gyb+t7evTK3ufOKLvikmXZPoaIg78eM+HyeuX2+TNFlN8vl9+vpKSK6ur859zZXVqZXVv+bIk1umurcDfY6P25t5OnerRi7ZpMaeb3O7Lu/mNtqtu8xZEsAAAAYL6iWAOAUrOsbGGVLaQSCSVPdStqWaOlVr7kyjwmV3IVFF+52/EznxPXYH+/oj6flEyOKb/G5GVvp+OZx0/lEsQ+B38JKiTFIgMOJma4PJ5MmeXzjZZY2Td5x36uYsLH5D4XHhxUY3OzXNnnuM64f6Ln5Esul2vcupzeveVJJOWtqXUsDwAAAMDUUKwBKDtWKiV3MqlkJDLhbqz0RKVTfHwJNbozK6GB06f1ZmXlOUuucc+Px2UlkxOus8fh43biJyhOS/b1t3IF09lKqGMnTuj8DW8b95jJn1MxSUGWeTvR2amVa9fK5fE4ciiJYFCLuYwRAAAAwBko1gBMm5VOZy4VTCYzb6mkrGTmdjqVlFIpJdvbNRSPjXlM9v4zHp/5OHM7nf84WZCvVEqRcFjHq6rGPSf3cTr3nIl2d02wG2ujpJeffMLRX5eoo2n2uLze0fLJ58u+9ytpWZlLD32+zG6r/H0+uXxjbvszjz/z+bn7crdPnT6tlvPOKyi7XGPLLZ9fLu/U/4r57927dcWnP+3Yr4M7FHKsVAMAAACAyVCsAbMkXxRNUEilJymLckXV2BJKqZSGu0/p1G9+XVgoJceXUlMpsZRKyUqlFItGNeB2T7KmM77GFH9SodM7rgYdzpspl9udKaX8Pllut7yVleNLKb9f8nrlnqjEOkvJdbq/X01LWyYouXz5r5m7PfYxE112KDl/6WF/MKhadnABAAAAKHMUa5g1Vjot5XY6jYwoGYmM3h7zpnRaVnrM58Y9JjnueSOnTqn36Bvjc864nR53f3LC5wwODCheWTnp+tKT7NQ6sxjLlVbvTCb1v0/8wNFfz7CjaRnxImTOhMvtlsvrlcvrleVyyePP7IJyebxye71yeT1yebz5x7g8nolLqAl2Y7144IDee8klE+7GGi2sxjzfPz5v7I4op4ur4WBQDRRXAAAAAGA0irUiO1vJk/s4nUoqcbJD0fQEBdNZbo/PSUnZjKbfHVbHDx6fUs6Zt9MTlE4j0agGfT6bOdky7Iyf7tfl8K91yOG8YYfzZoPL5coXTPJ48iWUy5v52J0vocYXUrFEQoHa2oLH5x7jPjMzV2JlP3ZP8Jze0Gktbm7JFmCFj899DXk8Z12Ty+3OH5vTxVXPYFTNH/8Dx/IAAAAAAOVnSsVabtdQfidRcuzttJROyT80qJGTHVIqnd1hlDzjMZldPgW3x+xOGn1eJnu455ROHfpNtpQZ/dqFz0tLYwucbG7mMbldTZnbkYEBJaoqC9aUOY7R544e5+jXLFhj7nYqrUQ8rj63e3RnVX43VuGxT0evrRFOrEXSiV8fdDDRvN1MtrlcmdLGky1yPB7J7c5/zu3xKJlOy1dRkf/c2PvHFkwTFUq5gmhsofT/Xn1VF27Zkr/tnqBgGvt8d0HBVPg13F6vTnZ36bwVreNLrhm8ppTTxdVgMKh6dlwBAAAAAOYx74Hr/jBTJJ1Zdo0tq6Zgg6SDP/2xo4tz+lI3p3cgzZmiKVskye2We2w5dEZZNP5z3vztWCKhqurqKeVMnFt4O9Tfr0WNjZPnuM+W6x33ua7ubi1bvnwKx+SZ9DWoxnK6ZHpq924tu/4Gx/Lc8bh8ixY5lgcAAAAAAKbPmzjdV+o1zIjL7c4UJ9n37lyJ43ZLHnf+crJkOi2fv2L08jK3Wy6PO1PSjMvwZp475vOFZY9bQ8PDql2wYPRr5b62x51/3JkF1OQllFe9p09rcXPzpI+ZWs5o6fT9xx7TtptvHnc5nV1OF02JYFAtDuZ5XC5VLF3qWB4AAAAAAMC5eBd/7KpMkTSmWMoUNO58aVRQRuV3Ho0tozza+8tf6tKtW0cLLff40qqgBJqsCMs+rqOzS+dldyCdWVgVrGkKu48k54shp/OGgkEtcjDPyv4UQgAAAAAAABSHd/XndzgSdPqtE2q87MOOZEmSJxaXv7HRsTwAAAAAAADASTO/RhAAAAAAAAAoQ66WlhbLiaBoNKpAIOBElCQplUrJM4OfcFjueczDrDzT51GMTNPzTJ9JueUxD7PyJGZiUl53d7dqampUXV3tSJ5k9vHOhbxyOz+KkclM5nce8zArz+l5SOYfs+l5nCNm5c10Ht4dO5y5FHT//v16z3ve40iWJIVCIdXX15NnE/MwK8/0eRQj0/Q802dSbnnMw6w8iZmYlPfVr35VH/zgB/XBD37QkTzJ7OOdC3nldn4UI5OZzO885mFWntPzkMw/ZtPzOEfMypvxPCyH7Nq1y6koy7Isq62tjbwZYB5m5Zk+j2Jkmp5n+kzKLY95mJVnWczEpLyWlhZr586djuVZltnHOxfyyu38KEYmM5nfeczDrDyn52FZ5h+z6XmcI2blzXQevMYaAAAAAAAAYAPFGgAAAAAAAGADxdo85fTragDzTUtLS6mXABht8+bNpV4CYCzOD+Ds+F4EODvOkfnFsWLtvPPOcyoKDvjABz5Q6iVgjNbW1lIvAWe49NJLS70EjOF28/88ptm0aVOplwAYi/PDPAsWLCj1EjDGe9/73lIvAWO84x3vKPUScIb3v//9pV4CxpjppotpfSdz6tQp3XDDDWpqatKCBQt06aWX6uWXX5Ykve9971NnZ6c+/vGPq7q6Wg0NDbrtttsUj8dntECc3bPPPqvNmzerurpara2t+su//EtZlqX6+nr9/d//vVwu17i3o0ePlnrZ89axY8d09dVXq66uTosXL9YNN9ygvr4+XXzxxZKkffv26aKLLlJlZaVaW1v16KOPlnjF818sFtOOHTvkdrv1X//1X/nP+3w+/emf/um484P/JCi+xx57TLW1tbr33nvzn2tubpbEOVJqnBOzi9/vc09ra+u4c+SGG24o9bLKymR/r7/rXe9SMpnUHXfcoaamJgUCAX3sYx9Te3t7CVdbHib6e72yspLvRUogGo3qs5/9rFpaWrRgwQJ96EMf0sGDB3XhhRdKEt+vl8C3v/1tnX/++QoEAtq4caOeeOIJSVJdXR3nSAkcOHBAH/rQh1RbW6umpiZdf/31OnXqVP4nr9v9t9m0irUbbrhBp06d0nPPPaeDBw9q5cqV+tjHPqZUKqWFCxfqj/7ojzQyMqKXXnpJTz31lH72s5/pr/7qr6Z9sJiaY8eO6aqrrtLv//7v6/Dhw3r00Ud1//33a8+ePfL5fAqHw3rve9+rEydOFLytWrWq1EuflyzL0sc+9jH5fD69+OKLevrpp/Xaa6/p9ttvVyAQ0OnTp3XllVfqsssu0+HDh/Wtb31LO3bs0M9+9rNSL33eCoVC2rJliyKRyLgdUR6PR+FwWHfeeWfB+ZH7zwIUx4033qjvfve7Wr16dcHn165dyzliAM6J2cPv97kpHA7riSeeKDhHHnrooVIvq2yc7e/1FStW6L777tOTTz6pJ598UgcPHpTX69W1115botWWh8n+Xvd6vXwvUgJ33HGHnn32WT355JN65ZVX1NzcrKuvvloul0uS+H59lv3gBz/QPffco29+85t6/fXXddNNN+n666/XoUOH5Pf7OUdm2eDgoD760Y/q3e9+t1577TX9/Oc/1xtvvKHPfOYzqq2tndG/zbzTWchVV12lq6++WitXrpQk3X333fqHf/gHdXZ2amhoSHv37tXJkyfz2+i++c1v6pZbbtHXvvY1LvMpgrfeekt/8id/oi9/+cuSMv+guOaaa7R371596lOfUjgcVnNzM7sNZsmpU6f0e7/3e/rOd76jpqYmSdLnP/95feUrX5EkPfHEE1qyZIm+8Y1vSJJWrVqlvXv3avfu3br88stLtu75LBKJ6Itf/KKuu+46ff/73y+4z+VyKRwOq7W1lXNkFm3atEnf//73dcUVVxR8fsmSJfrRj37EOVJinBOzh78T5p50Oq1IJKJ169ZxjpTI2f5er6ys1O7du3X//ffnrxTYs2ePmpub9dprr+ntb397KZY8703293quWON7kdnldrv10EMP6T3veY8k6etf/7pWr16ttrY2JZNJvl+fZadPn9bXv/51XXPNNZKkHTt26MEHH9S+ffu0YcMGzpFZFolE9KUvfUmf//zn5fF4tHLlSm3btk3f+ta3JM3s32bTOntuv/32fKkWCoX00EMP6Z3vfKeWLl2qAwcOaPny5QXXpm7evFm9vb0KBoPT+TKYoksvvVS7du0q+FxHR4eWL18uKTOj7u5uXX755Vq2bJkuueQSPfPMM6VYallYsmSJ/v3f/z1fqkmF8zhw4MC4FzvevHkzu0GKaMWKFbruuusmvM/lcikUCumFF17QhRdeqOXLl+uaa67R8ePHZ3mV5eXOO++U1zv+/3QqKys5RwzAOTF7+P0+94TDYVmWpe985ztav3691q5dq9tvv11DQ0OlXlrZONvf652dnerq6io4r5qamrRq1SrOqyKa7O91t9vN9yIl8Oijj2rr1q352x0dHaqoqFBTUxPfr5fAbbfdpttvvz1/OxqNKhQK8f16ibS0tGjHjh3yeDySpOPHj+uf//mfdeWVV8rlcs3o32a2aunW1lYtWrRIv/3tb/Wzn/1Mbrdbvb29amhoKHhcY2OjJKmnp8fOl8E0fe9739NvfvMbfe5zn5NlWfJ4PBocHNQtt9yip59+WpdccomuuOIK/eY3vyn1UsvCq6++qr/927/V1772NUma9Bzh/CgNl8ulQCCg/v5+3X///XryyScVj8d12WWXaXh4uNTLKzsej4dzxACcE7OH3+9zz9DQkJYtWya3261//dd/1SOPPKKnn35a27ZtK/XSoMw5JYnzyhBut5vvRUqsv79ft956q774xS+qtraW79dLzLIs3Xrrrbrwwgv1kY98ROl0mnOkRN544w35/X6tWbNGb3/72/XAAw/IsqwZ/dts0mJt27Zt8nq98nq9+a2kOc8884z++7//W/X19br88ss1PDwsy7Im/SK5a7ph3z/+4z/m5+H1esf97+jf/d3f6d5779XPf/5zLVmyRCMjI7r//vv16quv6g/+4A/09re/XV//+te1efNmfe973yvRUcwva9euzc/j7rvvLrjvueee00c+8hE9/PDD2rp1q9Lp9KTnCOeHM872Z9ZE0um09u/fn/9L7MILL9QPfvADdXV16ec///ksrHh+CwaDBX9m/fSnPz3nczhHZtdEf4aNPSc2btzIOVFE/H6fe5YvX6729nZ9+9vf1vr16/XRj35UDz/8sH74wx8qHA6Xenllj+9FzBKPx/lepIROnDihiy++WB/4wAf0la98RYlEgnOkhEZGRvTHf/zHOnLkiP7jP/5DLpeL79dLaOXKlXrllVf05JNP6oUXXtCtt94ql8s1o3+bTfoaa1/96ld1xx13SJKqqqoK7lu7dq3Wrl2r973vfWpsbNSPf/xjLV68eFyTl7u9ePHicy4EZ3f11Vfr4MGD+dtjZ/LZz35WzzzzjH71q1/lX+gwGo0qEAiMy9mwYYNOnjxZ/AWXgZ/+9Kf5n6KT+98eSfqXf/kXfe5zn9Pjjz+uj370o5Iy/7iY7Bzh/HDG2f7MmkgikRh36cKCBQvU0tLCOeKApUuXFvyZ1draetbHp1IpzpFZNtmfYTkHDhzQ+9//fs6JIuH3+9z27LPP6qqrrtKGDRskZS5DrKurK/Gqylvu3Onp6dHChQvzn+e8Ko3JftIk34sU32uvvaYrrrhC27dv1xe/+EVJ0sDAAN+vl0h/f7+uvPJKLVmyRM8++2z++5SRkRHV1NSMezznSPH5/X5dcMEFuuCCC9TS0qItW7boa1/72oz+bTbpjrVly5Zp48aN2rhxo9asWaNTp05pzZo1BdsSc9emulwuXXTRRero6NCJEyfy97/wwgtqaWnRihUrpn2wKFRXV5efx8aNG/MvLnn33XfrxRdfLCjVpMw2+Pvuu09PPfVUQc6hQ4f4KSMOWbduXX4ezc3NkqT//M//1I4dO/TMM8/kSzUp87+oF110kfbv31+Q8cILL2jLli2zuu756sw/s84lmUzqlltuUVtbW/5z/f396ujo4BxxgM/nK/gzq7a29qyPT6VSnCOz7Mw/wyKRSME58c53vpNzooj4/T73HDx4ULfddpssy9Ill1wiKfPvKrfbfc7/PEDxNTc3a9myZdq3b1/+c52dnTp+/DjnVQnwvUhptLW16fLLL9ff/M3f5Es1ie/XSyWRSOiqq67SO97xDv3bv/1bwX/+c47Mvp/85Cd6xzveoXQ6nf/cmZ2W3X+bTfk11hYvXqzm5mb9+Z//uQ4ePKjjx4/rzjvvlMvl0iWXXKK1a9fqwx/+sD75yU/q8OHD+tWvfqUvfOEL2r59O1tLi+TFF1/Ugw8+qAceeECDg4Nqb29Xe3u7uru7JWV+6sVnPvMZPf/882pvb9df//Vf65VXXtHNN99c4pXPT5FIRJ/+9Kd17733atGiRfl5tLe3q7KyUp/4xCcUDod11113qa2tTY8//rgee+wxbd++vdRLn7fGnhdS5vVX2tvbFQqFVFtbq1deeUWf/vSn9frrr+vIkSP65Cc/qVWrVumyyy4r8crnp0QikZ9HLBZTJBJRe3u7urq6VF1dzTlSYmeeE52dnZwTRcTv97mnublZ//RP/6QvfOELikQi2r9/v+644w7ddNNNE14lAOed7e91SfrMZz6jL33pS3r++ef1+uuv68/+7M/04Q9/OL+zEM4629/rEt+LlML27du1detWXXrppQXfiwQCAb5fL4EHHnhA3d3duueee3Ty5Mn8PHIvH8A5Mrsuuugitbe3a/v27Tp27Jh+/etf66677tKWLVvU2Ng4s3+bWdNw8uRJ6/rrr7eampqs2tpa6+KLL7aef/55y7IsKxwOW93d3dY111xjBSUMpKEAABrNSURBVAIBq6GhwbrrrrusVCo1nS+R19bWZut55ZT3F3/xF5akcW8XXHCBlU6nrXg8bt15553W0v+/vfsPtbuu/wD+up4zcf5gHM+0VtrRLdDIP67QXMWEUKIwKIxc/4hgSxT0D9NCQf/zn8CJoLiYjZDCP0wKiqioP6SlbDklDYxAxR22C+I8nWvqwLm7z/ePL3fM7e7X+3zOPa97P48HCNu59vR99uzt3Z6ec+9nPlOdf/751Ve+8pVqx44di3a+puX94Q9/WLCPiKj2799fVVVVvfjii9X69eurs88+u7r88surX/3qV4t2vsXOzJD36KOPLtjH5s2bq8OHD1d79+6tvvvd71adTqfqdrvVjTfeWPX7/UU7X9Py/vnPfy7Yx7p16458rsh6R5qSV+edOFbW5zzJvNP9//uaNWuqLVu2LPr55B3v73//e/XVr361Ou+886rPfe5z1Y9+9KPqww8/HDk36/MdZ2bdn9cPHTpUHTp0qPrxj39cdbvd6txzz61uvPHG6p133lm08zUt72Sf1/1ZZPHzPvjggxP+WeTZZ5+tqqry5/VFzvvSl760YB933nln9fHHH7sjE8j7xz/+UX3ta1+rLrjggmr16tXVTTfdVO3du7c6cOBAVVXlfxY54ddYW8iaNWvi6aefXvBjf/nLX+Kmm26K3/72t2cSyQgefvjhePjhhxf82MGDB+Pss8+ORx55JB555JFFPlkzfetb3zrhFzycf7np+vXr48UXX1zMYzXa3XffHXffffeCH3v//ffjkksuid/85jeLfKrmmp6ePuEdmf93ljsyWe7E4vL/96Vn48aN8cILL0z6GI11ss/r7733Xqxateqkvz+mXif7vP7xxx/HihUr/FlkEZ133nkn/QYFEf//LjR/Xl88u3fvPuHH5v+d5Y4srmuuuSaee+654x7/3e9+F9/5zneKf2922m8FPZX5l2CTw+l8Bz4Wz1//+tdJH4FjuCO5HPv1JZi8HTt2TPoIkNaxX4OFyfvzn/886SNwFL/PysXn9Hz83jeX+S+nVaq2YY1c3nnnnUkfgaP0+/1JH4FjvPfee5M+AkcZ9ZMZ9fvPf/4z6SNAWv/6178mfQSO4fN6Lj6v5+Jzej7/+9//Jn0EatSu6w/8g8Gg1vFgZmamtqwm5ukjV172PsaRmT0veydNy9NHrrwInWTKm5ubi+FwqI9EeU27H+PI1MnyztNHrry6+4jI/5yz57kjufJG7aNd17cH73a7tX+rcXnl9JErbyn0MY7MzHlLoZMm5ekjX55O8uS1Wq3odDppz9fEvCbej3Fk6mT55ukjV944+ojI/Zyz57kjufJG7cNbQQEAAACggGENAAAAAAoY1gAAAACggGENAAAAAAoY1gAAAACggGENAAAAAAoY1gAAAACggGENAAAAAAoY1gAAAACggGENAAAAAAoY1gAAAACggGENAAAAAAoY1gAAAACggGENAAAAAAoY1gAAAACggGENAAAAAAoY1gAAAACggGENAAAAAAq0+/1+LUGDwSDqyoqImJmZqS2riXn6yJWXvY9xZGbPy95J0/L0kSsvQieZ8ubm5mI4HOojUV7T7sc4MnWyvPP0kSuv7j4i8j/n7HnuSK68Ufto93q9Wg7S7Xajrqx58srpI1feUuhjHJmZ85ZCJ03K00e+PJ3kyWu1WtHpdNKer4l5Tbwf48jUyfLN00euvHH0EZH7OWfPc0dy5Y3ah7eCAgAAAEABwxoAAAAAFDCsAQAAAEABwxoAAAAAFDCsAQAAAEABwxoAAAAAFDCsAQAAAEABwxoAAAAAFDCsAQAAAEABwxoAAAAAFDCsAQAAAEABwxoAAAAAFDCsAQAAAEABwxoAAAAAFDCsAQAAAEABwxoAAAAAFDCsAQAAAEABwxoAAAAAFDCsAQAAAECBdr/fryVoMBhEXVkRETMzM7VlNTFPH7nysvcxjszsedk7aVqePnLlRegkU97c3FwMh0N9JMpr2v0YR6ZOlneePnLl1d1HRP7nnD3PHcmVN2of7V6vV8tBut1u1JU1T145feTKWwp9jCMzc95S6KRJefrIl6eTPHmtVis6nU7a8zUxr4n3YxyZOlm+efrIlTeOPiJyP+fsee5IrrxR+/BWUAAAAAAoYFgDAAAAgAKGNQAAAAAoYFgDAAAAgAKGNQAAAAAoYFgDAAAAgAKGNQAAAAAoYFgDAAAAgAKGNQAAAAAoYFgDAAAAgAKGNQAAAAAoYFgDAAAAgAKGNQAAAAAoYFgDAAAAgAKGNQAAAAAoYFgDAAAAgAKGNQAAAAAoYFgDAAAAgALtfr9fS9BgMIi6siIiZmZmastqYp4+cuVl72McmdnzsnfStDx95MqL0EmmvLm5uRgOh/pIlNe0+zGOTJ0s7zx95Mqru4+I/M85e547kitv1D7avV6vloN0u92oK2uevHL6yJW3FPoYR2bmvKXQSZPy9JEvTyd58lqtVnQ6nbTna2JeE+/HODJ1snzz9JErbxx9ROR+ztnz3JFceaP24a2gAAAAAFDAsAYAAAAABQxrAAAAAFDAsAYAAAAAZ6iqKsMaAAAAAJQwrAEAAABAAcMaAAAAABQwrAEAAABAAcMaAAAAABQwrAEAAABAAcMaAAAAABQwrAEAAABAAcMaAMAie+utt2Jqauq4v7Zv3z7powEAcAbakz4AAEDTzM7OxllnnRV79uyJqampI49feOGFEzwVAABnyrAGALDIZmdnY9WqVXHppZdO+igAAIzAW0EBABbZcDiMFStWxK233hq9Xi+mp6fj8ccfj6qqJn00AADOgFesAQAsskOHDsXKlStjeno67r333njppZfirrvuihUrVsQdd9wx6eMBAHCaDGsAAGP0y1/+Mn7wgx8c+fl7770XmzZtik2bNh157KqrrorXX389tm3bZlgDAFhC2k8++WQtQTt27KglZ95gMIhutyuvkD5y5WXvYxyZ2fOyd9K0PH3kyovQSR15l1xySXz961+Pb3/72/HKK68c+djKlSuP/Pjtt9+OnTt3xsaNG+PKK6+M7du3R1VVsXv37nj11Vejqqo4cOBA7Nq1K+r6Pdv8+bL/+mXOa9r9GEemTpZ3nj5y5dXdR0T+55w9zx3JlTdKH1VVRVQ12bZtW11RVVVV1Z49e+SNQB+58rL3MY7M7HnZO2lanj5y5VWVTsad98wzz1SPPvroJx67//77qw0bNhz3965Zs6basmXLop5P3sk17X6MI1MnyztPH7ny6u6jqvI/5+x57kiuvFH78FZQAIBFdv7558d9990XF110UVx33XXxwgsvxBNPPBFbt26d9NEAADgDhjUAgEV2ww03xNatW+Ohhx6K2267LS677LLYsmVL3HzzzZM+GgAAZ8CwBgAwAZs3b47NmzdP+hgAAIzgrEkfAAAAAACWIsMaAAAAABQwrAEAAADAGaqqyrAGAAAAACUMawAAAABwBqqqigjDGgAAAAAUMawBAAAAwGmaf7VahGENAAAAAE7L0aNahGENAAAAAE7p2FEtwrAGAAAAAEUMawAAAABQwLAGAAAAAAUMawAAAABwEgt9fbWqqgxrAAAAAHAiC41q8wxrAAAAALCAE41q84+3+/1+Lf+gwWAQdWVFRMzMzNSW1cQ8feTKy97HODKz52XvpGl5+siVF6GTTHlzc3MxHA71kSivafdjHJk6Wd55+siVV3cfEfmfc/Y8dyRX3qn6OOWw1uv1ajlIt9uNurLmySunj1x5S6GPcWRmzlsKnTQpTx/58nSSJ6/VakWn00l7vibmNfF+jCNTJ8s3Tx+58sbRR0Tu55w9zx3JlXeqPk41rHkrKAAAAAAUMKwBAAAAwGk6+lVshjUAAAAAKGBYAwAAAIAChjUAAAAAOMZC37jg6MeqqjKsAQAAAEAJwxoAAAAAHGWhV6stxLAGAAAAAGdgfngzrAEAAADAKSz0KjbDGgAAAAAUMKwBAAAAQAHDGgAAAAAUMKwBAAAAQAHDGgAAAAAUMKwBAAAAQAHDGgAAAAAUMKwBAAAAQAHDGgAAAAAcZWpq6qSPzf+43e/3a/kHDgaDqCsrImJmZqa2rCbm6SNXXvY+xpGZPS97J03L00euvAidZMqbm5uL4XCoj0R5Tbsf48jUyfLO00euvLr7iMj/nLPnuSO58k7WR1VVJ32sqqpo93q9Wg7S7Xajrqx58srpI1feUuhjHJmZ85ZCJ03K00e+PJ3kyWu1WtHpdNKer4l5Tbwf48jUyfLN00euvHH0EZH7OWfPc0dy5Z2qj2PHtWOHNW8FBQAAAIAChjUAAAAAOA3Hfu01wxoAAAAAnKGpqSnDGgAAAACUMKwBAAAAQAHDGgAAAACcpqO/zpphDQAAAAAWcOw3KziWYQ0AAAAAChjWAAAAAOAMzL+SzbAGAAAAACdwsreDGtYAAAAA4AxNTU0Z1gAAAADgZE70qjXDGgAAAAAUMKwBAAAAwCks9Ko1wxoAAAAAFDCsAQAAAMBpOPZVa4Y1AAAAAChgWAMAAACA03T0q9ba/X6/ltDBYBB1ZUVEzMzM1JbVxDx95MrL3sc4MrPnZe+kaXn6yJUXoZNMeXNzczEcDvWRKK9p92McmTpZ3nn6yJVXdx8R+Z9z9jx3JFfeKH1UVRXtXq9Xy0G63W7UlTVPXjl95MpbCn2MIzNz3lLopEl5+siXp5M8ea1WKzqdTtrzNTGvifdjHJk6Wb55+siVN44+InI/5+x57kiuvFH78FZQAAAAAChgWAMAAACAAoY1AAAAAChgWAMAAACAAoY1AAAAAChgWAMAAACAAoY1AAAAAChgWAMAAACAAoY1AAAAAChgWAMAAACAAoY1AAAAAChgWAMAAACAAoY1AAAAAChgWAMAAACAAoY1AAAAAChgWAMAAACAAoY1AAAAAChgWAMAAACAAu1+v19L0GAwiLqyIiJmZmZqy2pinj5y5WXvYxyZ2fOyd9K0PH3kyovQSaa8ubm5GA6H+kiU17T7MY5MnSzvPH3kyqu7j4j8zzl7njuSK2/UPtq9Xq+Wg3S73agra568cvrIlbcU+hhHZua8pdBJk/L0kS9PJ3nyWq1WdDqdtOdrYl4T78c4MnWyfPP0kStvHH1E5H7O2fPckVx5o/bhraAAAAAAUMCwBgAAAAAFDGsAAAAAUMCwBgAAAAAFDGsAAAAAUMCwBgAAAAAFDGsAAAAAUMCwBgAAAAAFDGsAAAAAUMCwBgAAAAAFDGsAAAAAUMCwBgBQs6mpqUkfAQCARWBYAwCo2erVqyMi4qmnnooLLrggHnzwweP+np07d8b69evjnHPOiV6vFz/72c8W+5gAAIyoPekDAAAsNytXroxbbrkl3nzzzVi7du1xH//vf/8bN9xwQ9x+++3x61//Ol5++eW45ZZbYu3atfGNb3xjAicGAKCEV6wBANRsamoqpqen429/+1tcdNFFx3382WefjU996lPx05/+NC6//PL43ve+Fz/84Q/jySefnMBpAQAoZVgDAKjZ4cOH45577ol2e+E3B7z88stxzTXXfOKxa665Jl566aXFOB4AADUxrAEA1OzgwYMn/fi7774b3W73E4+tXr069u/fP85jAQBQM8MaAMAI+v1+tNvtI3/98Y9/POV3Ba2qasHHfTdRAIClpV3X1/LYsWNHLTnzBoPBcf8lV97p00euvOx9jCMze172TpqWp49ceRE6OR2tVis2bNgQV1xxRbzyyitHHu/1erF3797Yu3dvXHvttUce/+CDD2L37t3x5S9/OS6++OLYv39/HDx4MHbt2hVf/OIXY//+/XHxxRfH4cOHY+fOnfHvf/87qqqKAwcOxK5du2r9+msZfv2Wcl7T7sc4MnWyvPP0kSuv7j4i8j/n7HnuSK68kfuoarJt27a6oqqqqqo9e/bIG4E+cuVl72McmdnzsnfStDx95MqrKp2ManZ29siPr7/++uqBBx74xMd//vOfV+vWrfvEY7fffnv1/e9//7isNWvWVFu2bKn1fNl//bLnNe1+jCNTJ8s7Tx+58uruo6ryP+fsee5IrrxR+/BWUACAmp177rmxb9++2LdvX3z00Ufx/vvvx759++Ltt9+OiIibbropZmdn4yc/+Uns2bMnnn766XjqqafirrvumvDJAQA4Ewt/qyoAAIq99tprcfXVVx/5+fPPPx+PPfZYrFu3Lt54441YtWpV/OlPf4o777wzHnvssfjsZz8b27dvj40bN07w1AAAnCnDGgBAzaanp0/4DQrmrV+/Pl588cVFOhEAAOPgraAAADV79913J30EAAAWgWENAKBmH3744aSPAADAIjCsAQAAAEABwxoAAAAAFDCsAQAAAEABwxoAAAAAFDCsAQAAAEABwxoAAAAAFDCsAQAAAEABwxoAAAAAFDCsAQAAAEABwxoAAAAAFDCsAQAAAEABwxoAAAAAFDCsAQAAAECBdr/fryVoMBhEXVkRETMzM7VlNTFPH7nysvcxjszsedk7aVqePnLlRegkU97c3FwMh0N9JMpr2v0YR6ZOlneePnLl1d1HRP7nnD3PHcmVN2of7V6vV8tBut1u1JU1T145feTKWwp9jCMzc95S6KRJefrIl6eTPHmtVis6nU7a8zUxr4n3YxyZOlm+efrIlTeOPiJyP+fsee5IrrxR+/BWUAAAAAAoYFgDAAAAgAKGNQAAAAAoYFgDAAAAgAKGNQAAAAAoYFgDAAAAgAKGNQAAAAAoYFgDAAAAgAKGNQAAAAAoYFgDAAAAgAKGNQAAAAAoYFgDAAAAgAKGNQAAAAAoYFgDAAAAgAKGNQAAAAAoYFgDAAAAgAKGNQAAAAAoYFgDAAAAgALtfr9fS9BgMIi6siIiZmZmastqYp4+cuVl72McmdnzsnfStDx95MqL0EmmvLm5uRgOh/pIlNe0+zGOTJ0s7zx95Mqru4+I/M85e547kitv1D7avV6vloN0u92oK2uevHL6yJW3FPoYR2bmvKXQSZPy9JEvTyd58lqtVnQ6nbTna2JeE+/HODJ1snzz9JErbxx9ROR+ztnz3JFceaP24a2gAAAAAFDAsAYAAAAABQxrAAAAAFDAsAYAAAAABQxrAAAAAFDAsAYAAAAABQxrAAAAAFDAsAYAAAAABQxrAAAAAFDAsAYAAAAABQxrAAAAAFDAsAYAAAAABQxrAAAAAFDAsAYAAAAABQxrAAAAAFDAsAYAAAAABQxrAAAAAFDAsAYAAAAABdr9fr+WoMFgEHVlRUTMzMzUltXEPH3kysvexzgys+dl76RpefrIlRehk0x5c3NzMRwO9ZEor2n3YxyZOlneefrIlVd3HxH5n3P2PHckV96ofbR7vV4tB+l2u1FX1jx55fSRK28p9DGOzMx5S6GTJuXpI1+eTvLktVqt6HQ6ac/XxLwm3o9xZOpk+ebpI1feOPqIyP2cs+e5I7nyRu3DW0EBAAAAoIBhDQAAAAAKGNYAAAAAoIBhDQAAAAAKGNYAAAAAoIBhDQAAAAAKGNYAAAAAoIBhDQAAAAAKGNYAAAAAoIBhDQAAAAAKGNYAAAAAoIBhDQAAAAAKGNYAAAAAoIBhDQAAAAAKGNYAAAAAoIBhDQAAAAAKGNYAAAAAoIBhDQAAAAAKtPv9fi1Bg8Eg6sqKiJiZmaktq4l5+siVl72PcWRmz8veSdPy9JErL0InmfLm5uZiOBzqI1Fe0+7HODJ1srzz9JErr+4+IvI/5+x57kiuvFH7aPd6vVoO0u12o66sefLK6SNX3lLoYxyZmfOWQidNytNHvjyd5MlrtVrR6XTSnq+JeU28H+PI1MnyzdNHrrxx9BGR+zlnz3NHcuWN2oe3ggIAAABAAcMaAAAAABQwrAEAAABAAcMaAAAAABQwrAEAAABAAcMaAAAAABQwrAEAAABAAcMaAAAAABQwrAEAAABAAcMaAAAAABQwrAEAAABAAcMaAAAAABQwrAEA1GxqamrSRwAAYBEY1gAAarZ69eqIiHjqqafiggsuiAcffPATH3/rrbdiamrquL+2b98+ieMCAFCoPekDAAAsNytXroxbbrkl3nzzzVi7du1xH5+dnY2zzjor9uzZ84lXt1144YWLeUwAAEZkWAMAqNnU1FRMT0/HL37xi/jmN7953MdnZ2dj1apVcemll07gdAAA1MVbQQEAanb48OG45557ot1e+L9hDofDWLFiRdx6663R6/Vieno6Hn/88aiqapFPCgDAKLxiDQCgZgcPHoxzzjnnhB8/dOhQrFy5Mqanp+Pee++Nl156Ke66665YsWJF3HHHHYt4UgAARmFYAwAYQb/fj3Xr1h35+e9///u4/vrrT/q/2bRpU2zatOnIz6+66qp4/fXXY9u2bYY1AIAlpP3kk0/WErRjx45acuYNBoPodrvyCukjV172PsaRmT0veydNy9NHrrwInZyOVqsVGzZsiCuuuCJeeeWVI4/3er3Yu3dv7N27N6699tojj3/wwQfx3HPPxRe+8IX4/Oc/HxERb7/9duzcuTM2btwYV155ZWzfvj2qqordu3fHq6++GlVVxYEDB2LXrl1R1+/ZInL8+i3lvKbdj3Fk6mR55+kjV17dfUTkf87Z89yRXHkj91HVZNu2bXVFVVVVVXv27JE3An3kysvexzgys+dl76RpefrIlVdVOhnV7OzskR9ff/311QMPPPCJjz/zzDPVo48++onH7r///mrDhg3HZa1Zs6basmVLrefL/uuXPa9p92McmTpZ3nn6yJVXdx9Vlf85Z89zR3LljdqHt4ICANTs3HPPjX379kVExEcffRTvv/9+7Nu3L9rtdnz605+O888/P+6777646KKL4rrrrosXXnghnnjiidi6deuETw4AwJkwrAEA1Oy1116Lq6+++sjPn3/++Xjsscdi3bp18cYbb8QNN9wQW7dujYceeihuu+22uOyyy2LLli1x8803T/DUAACcKcMaAEDNpqeno6qqk/49mzdvjs2bNy/SiQAAGIezJn0AAIDl5t133530EQAAWASGNQCAmn344YeTPgIAAIvAsAYAAAAABQxrAAAAAFDAsAYAAAAABQxrAAAAAFDAsAYAAAAABQxrAAAAAFDAsAYAAAAABQxrAAAAAFDAsAYAAAAABQxrAAAAAFDAsAYAAAAABf4P4UPLF1MF8DsAAAAASUVORK5CYII=;" vertex="1" parent="1">
                    <mxGeometry x="550" y="7390" width="640" height="327.24" as="geometry"/>
                </mxCell>
                <mxCell id="143" value="" style="shape=image;verticalLabelPosition=bottom;labelBackgroundColor=default;verticalAlign=top;aspect=fixed;imageAspect=0;image=data:image/png,iVBORw0KGgoAAAANSUhEUgAAAmkAAABcCAYAAAA1WSLlAAAABHNCSVQICAgIfAhkiAAAABl0RVh0U29mdHdhcmUAZ25vbWUtc2NyZWVuc2hvdO8Dvz4AAAAmdEVYdENyZWF0aW9uIFRpbWUARnJpIDE0IE1hciAyMDI1IDA5OjExOjAwddUHWgAAIABJREFUeJzt3X9oU2ffP/C3X/LAVegNp1DhBDrokQ56SoWe0oEp+odn+IARB6b4gCkOvKM3+EQHLt1gS7c/XPQB7+gXvFv3xbUOHOnAkQ4c6WDS+IcP6cCRDCo5BUszUEhAIQELOWDg8/3jnLT51Tat3W11nxeUueQk5zrnunLO51w/dxERgTHGGGOM7Sj/53UngDHGGGOM1eMgjTHGGGNsB+IgjTHGGGNsB+IgjTHGGGNsB+IgjTHGGGNsB+IgjTHGGGNsB+IgjTHGGGNsB+IgjTHGGGNsB+IgjTHGGGNsB+IgjTHGGGNsB+IgjTHGGGNsB+IgjbGtMjOY+dl43algjL0NllOYuZ973algOwwHaYxtxdMZjBw8gvHF150QxthbwQGkvtLx/ldxFF53WtiOsYuI6HUngrE3ytNpnD7kR/a/44ieVyFed3oYY2+H5TlcOuxB1BVB/IoO6XWnh712XJPG2GaUDFz90IfouyFMvhEBWg4zXw3jiGsPWnbtwq7/aEHb7ja0tbWgpaUFLbv3oOfAEE5/NYm5p+brTmxD5q+XMOh0YvCrOezMFL66zE9XMfJBD3btasH7X2/c5JX78TR6du/B0DeZf0Pq1lAqIPXDVYx438fg3h70aP3o13rQ8+4e7Nk7iCPe0xj5/m3pDpBD/OtLOOfeg127WnDkm7XyyETq837rt/beJWz66FtdCH4zgrZvhuH77g1t+szFMf7xEfT8bRd2qSOYK1W8Vypg7ttRDOv92KPswZ5398DpdFrl5dMZvKFHbGu2jGwSMcaalr3lJsmhUuBB8XUnZXPiAVIcIHFojLIrLxYpbyQoctlLWjsIkkq+22naaUeWv+MlyQGSTkQo/7oT8ydKX3aRcCgUeNDEtldcJABSP0n8+QlrIP8gTJ5eiUSnmwK3ErT0ovLdIi3NRSh4SCb1wutJ358l8YlKcKgUmFtjg8wEuXs10jpAaPVQZEsFtkixUzKh00exN7XA5yPkaQWJY5W/2SxFT6kkJI38dyquMy+WKHZBI+lkdMdde7ZiwzKySRykMdasl2kK9YHQG6Tky9edmM3J3tBJAKScn234fnE+THo7CEIl/y9bv1Tm4wFybfVi+3KJxo7qFJqvSx1l59OUfRuu4GsqUvSEtIkbe56WUkuU/xPL4Vp5mb3jI1WApINBmn229uezN9zkvplde4M/2SuVxYayNHZIrJNHRYqd1ch9I0kTxwRhvYA7GyXvvgDNrpF/xV/8JDsE6deXNp3KVz/uIiUv6uR5lbx7YD0Ual8kV197GCTVAVIuzNalrTjlJf1Keuv72zE2KiObx82djDXr0TSijwDZpUN1vO7EbE56Pg0TAurenobvi94Axj7WIEwDk/+cxJYa0QpxjP73OLBX21IzsPH1aYzOKdC66lIHuVeFvPPblreuZCA5XwC6VKitzXxAgtKnQPqzyuFaeblwFcP/mIQhezE5FYLevk4K3/PBf1D+kxK4gVcsiw2V0jDmTaC7H1qjzmKPriL0UMfoKQ39vSpQyiI136jJK4epj/yY3q2if438Ey4dg60mEj/ObO63uA3Hbf4Wgu9KFsrereddzjCQLUlQNXU1aYaBTElAfkepS5s4HMLEKRVvvI3KyFZsT6zH2NvPqo1a/+k2fctLrg5BgETeu0UqzkcoeEwjWRIkdbkpGK9/vMo+mKDAcRdpfRppvSqp+7wUvLu08rSZvOUnvRMEyUvRF3Ufr5L/xU+qAIl9YVp9Ll2isYMbPNkTrTzp1j8FFik9HSLfIRdp+1yk9Sqk7nOT55BGvrtFIipS8maAPH0SAYKkDoWULpX0K6tP0cXMLIXPuMm130Vap0zqQR+NPbSPMBOj0CmdFAFCq0xKl0JKr4+i+TRNnPeQJoMg3DRRrrV5GCZ3n2zVDF5IUDE7S+GTLlIkQfKAn6JPiOhllmYve0nrkEjq1Cn4S/15XzdN22ij/CUiomcT5G4FSSejlDWiFDxul5luNwWmK8rbkxiFTrlJlUCQfRSrTe6LNEUve0nf7yJXr0Jyr5sCU/VN2CtpGnCRa0AjtddF7rMTlF43L7MUOW69rt/YRA3P4wny7VdIwDq+YnGJol94SOuUSOwPU/mbmsuPVy+LzZ6j/MMIBU/opA1Y+1G6FKvZ/VSsQS1VliLHVfJOWeWsOO0lCSD5TPW2+XiY/IdVEgCJdus71eMTVFdn9TJNoYHNNJk28Rt8HKOx825y9Wmk9amk9urkuzJL2XJt3ss0RT7xkksGwSGR3KWQ0qVRIF5zTk7q5BpwkdanktLrIs8xF7k+q27Wnj0rE4SLwkZFCu/6SHKAxECAZps5plcuyxX73ujYKUvR8y5SpPK1pkhLd0Pk3a+Q1CpI2W9fV2o0U0byDyfIf1gjtVu1t1HJdWqCmv0FcZDGWJNmz8sECPJOr38jT1/WSDhU8l8JkPuQj8J3Zmn2ToBcrSBxMFzx48xT4qJOslDIcy1hN10VKX3TQ7JQyDe9eulOfqERHBoFU5V7ylLkpLZyY7D3TqF9gqQT0dW+IC9j5KsNdBrJjpEuYF1cH9uvFdM0cUIlqddLEw/L35i3btbCReFM+cNFip2SCEKnsUzN184ESGuXyX0lYaUpHyWvDEJ3gBLli6QRJpcAyWdrmmPLN6uuim2J7OYUQa5PwuQ77KHQ1CzFLrtJdoDUTyI0cdJN3ivR1fNe1RevyTS9subzt9w8pB7ykPuon8K3oxS55iNNAqG1+mZHL2fJ34GqAIeIiB5HyNcrkXJigtIviIiyNHFYVOcn5Wn2C53kdhcFKvoF5e/6SB0I2c34a+Rlxi4f0haach5b+atdmKDQYY1cp0I0dkEnxb6ZNZUf21AWmztHRUpecZPcrpG/IihYumY/pF2rv70W4wHS9ocoXU6rfbxiIES1jXj5W24SEOSZWu86kqeJo4LgUCn4cJ3NqlOx9m/wrp80SZB6aoKS9qkrPgyRLgnSKpsfXyYo0NWoS0eRktfcpLS7Gp4Tz+3KArFE4YOi/iGimKBgnyAAJLrcFLydXLuP6baV5U0ce3kfspdCFz2knwhR5JdZil3USXKA1M8qAv1my0g2Qp52QerZ2MqxFh8GyXVsoun+tRykMdaUPEWOCYJDJn98ve3svkUQpJ6coHT511u++PWtXsizd7wkOwRpXySrnw7tbcW+1Qu89WRefTEszgVW+nisJjNCnvaagQ32DWPDAORJOUjTaeyJdSyzF1QSkl4dJNAShfcLguyv6FNjBYfo8Ff3szHCpEsg5VSsImhMUKDbrgl6WX18+o2aOoUXUfJKIHG0+qKWv+m2amYGAhQrB57lG2O7a7XG0t5X5blsNk3lbd29KqndG/ydqK8N2Uz+Zq/rJBwS6V9UPt3bwTkEua5UBAZ2sCSfia2+VkxQcECQ6A1QYmVndgf0ihv90k03yQ6ZvHdqUvtkjDwr/Zga52V+ymPVANUEvM0o3rVqlqQuNwV+sT/9bJYid7NN5sc2lMUmz1H2jpcUh0ye29VHmfhMXeP3v0ThQyr5Zipy+eWs9WDUoCYscUFp8MBVL3qyXCO//nar1jjux2Okt4OkQ2O0VBN4RU9KhFY3TZQP9dkEuQVInKju05af9pEi1jonNYFkMUa+dpA4OFZfW/QkRsFDVq0qAJIGvBSO15Sm7SzLmzn2l7Pk7wRBKOS+VvGbtR8gK/vzNltGine8JCDIe6fybC7RbLz5mmgO0hhrSrnJcINROy+T1uCCTh/FKpsmX9ijnY5HrB//yyQFe0Fo91K07pHK3lerhyLl77ADEGVlNF+WJo4qJNdcDJeu6aQcj1TdRIt3fSShdqRVA6kgaQ4Q2u0nYCO0cnGqCjKKMfK219ysi3YwVXUDt2s5WvWqWoqlWx6SHRK5Lq9eCK3aR6X+BminqXYU4+wFxcqLymA07rdq0j5LrKa3PMps5abTfJqst7KUTiUp+XCDv8c1Z3ZT+Vuk2BnZumHU1HQWp731ozjLncoranSW7CCvKohPWYNB5KMT1g3qRYx8HbVN4SsnirLlkRkN85IofVEjoEFtZxOskav1N7Wm8+OVy2KT56g4u/IwVV2TlLdrcipu6uV3pr2kHq4NSOwO5HXXC7u2pomuC7NnrJp7960m61waHneRYmcVgkMhf7y+5i5ZDip+sV+wR4FrFytKSNEOmAcqagqJaOWcVF6niIiMEGli7UFK5SZrb59EAAgOmdw3KjpnbFtZ3uSx2w+p0rHq6yfVDuLYTBmxz6c04Kfo4611peCBA4w1yXxp/Ves11nbNJBcBISmY7CyA/hiGhkTULvtudUeRTGzAIgDR6DXdTA1USjWvNSpoUcCso/SyAEw74cx2RpE6KgEcz4BwwRQmMGlG0X4vvSisstv5lEaJgClW113csxCKgWjBIj3XOgXQOp2BHMlBe5jenVH38UUjALg7FZX97NowFgGnL39q6/looj8XIB4zw2PXIBxfwqXPhzE+9dMDN9OIP5ZuXOzCWM+A9OhQqvpO2waBoySgLq38o0cjEdZQBqEPrCasswjAwXI0A+6VtO7mIZhAqpqd1ZuOk02IUPt06ANbPDXVXNmN5W/GaTmC0Cnhv6abc1lE4CAtHs1RzMLBgqQoHQr9isGpqYSMIWOocMCud/jmPx8CIPHI5A/iiFxxwfFAZj3Iog+FdA+cKO+i7YEuTwyo1FeAii8sGapa2ttqfv0+kwYhgHT0Q/34ZrO6E3mxyuXxWbP0f0pRP4ANI8HWuXvvJREyjCBThU9lYMlzBTCF6eRmRtF/+42aw7C3W1o261i9IEJlDJIpSoGD5TSSBkmRFfPxgNEyvsvNTk7YKPjLiUw81MGaNfhdtUPJTBN67tNey6z3ELK6vDfq6xuc38SkUVA+8BTPWCqfE66+6FVfLU5n0bGFFC1/jUSKqAeCyLy0EDishsycpj5fASTT4FtLcubPHYYBtIlAfWAq/r6af/eVPv3tqkycnAEYxdcwO/jGNJ6cOTTKaQ2uZzEGzZGjbHXzyyt8+aCFRTUBkSFeSvYcKvWJcXMZGCU1giclg2kF02gQ4FSvrY4eqDtFZicTyFtZmD8M4UjV8I4cn8K4jsDiQUTyr0QEodCGOutSq11g0RtoFMrh+iPCZgOCZ4TQ5CRQ/S3DODQ6wKnwnwSRklArxgpahpp+7WKjedTSJqA5Mhi+psIJFmB/nkcgW6p+kZbMmAYBaCj5gYIwJg3YDoUqGrFWSqlYRgmRLcKVVRum4bp6IFakYTCfAqZkgRPt7q5NL2iTeXvsoH0gglxqKdu1LB1/E4MDigVr1nHuZIvyykkH5mADKS/G0deUqB8EEb8YvXoTyOVQgGiIrhbI+2N8hKA1GadI9OsfYJo9CUFFCBBEgBKmdX8rT0ZTeVHDolXLYvNnqO5JHIlCXpvzTl6asDIAeJof1Ue5b4bxZQyhkzKh5rwE4VvjsD5jxmkU0kAbvsD9vcc0LB+Lmxew+N+nkHmOSBc1b8VOzFIL2QBhwb1XeuVtJGGKVT0VGy80TmRDqhQKs/hfAqF2t9sIw4Zrs8iGJ9XMPR9AnMpwCdtY1ne5LGXg7Gemu+sva5srozIcF9JIPNfkwh9fgnj/xzG4L0kYvfDDR7e1jhNzW3G2F9dC0QLAJjAOkFaeZi5e2/tD92A6VChVlwtBATE3+pDg8K9KOIFQDk5VPGkJqO/1wk8SGLu26uIyX7M9AJSQYMT40jdjyB3uw2Bn2tqGkoZGPMF62JUf6Wq2GcIV38uQOwLIXRCAkopFJ6ZgEOgpeaJ30hZgYOqVtRTNAimzOU8CiVAGRhG4IK29kkr1z4eVGuClAKMhQwg3OipnJbjqQHjOSAdVitudHYg0K6iIlkr6SrfdJpO0zZoOn8XkkgtA2rttAnmHKI/GRC9QQwfKL+YgbFYACQVaof90nIRZgkQ7wzCdyGw5s0/v1zOz/XD0YaBMQB13yCcjjlkUylkoK8bZMx9OYyYJ4bQPgCmgfRCo/xtMj9K2Vcui02fo0K24Tky7WBS3autBt3LMwhdy8L7XX2ABgBSlwqnYwbZ+RQM2DU+5dqavRuvVmLaNWhCNHc3XyvfrC+RUFf/+TSG6QcmRO8RuLsAIAdjoQC09kDrXN1s/XMioKqVx1KA8cj6zfZ3l1/L4OoHl6BOT8BdF3FIcHY4AYcJ0YptL8vNH3uDhx877bXXlU2VkfJRDvgQ/mUI7o8G8f6/xnH1hxHoZ5qb4oSbOxlrigSnBADF+qbICqvBWFU9GtILGUCo6LcvCGJvP1RhIvs4U73UkZlC+PI0cpIbwY9dVRdyVdMgzBTCFw0MfeqxLgS9/dCEicTlUSSPheDrQDUzheQigNbVfdcyf7uK4b+Pw+jwYOzboHUjdUiQ2oQVQD2q2PjpDCZ/MgChQl25CJvILBqAQ4FasQ/hdEJxANlFY/0Fo//IIGMCzq6e6otbyUDSMOvnDnucQrok0FNZY2AaMBZMCFVFz8qNwH5ablVX0tV0ml7RZvK3XNun9lXfkjLfjGLyDxW+yyOrwXrJsGoR1YraC8kJZytgPjasZu81KE4ZolRAZnG95Woa5yUA4KAPgQMSzF8ncfXeOmfPjCPys4Seco3uYtKqXe7tqbt5NZUf21AWmz1HbbudQKmA9KOK2clKGUS+i6MACf0VeWT8K4QZbQQjA2t8mapYTXMLaRjL1ku5RQOFkoDS7Vw7EfZxmMsm4JDQ1t4gECkYmP56HNO/F1a2b3jc7f3QugAzYyBT9XBZQPzyVcyYCoa/9FsBZCkN47EJ0VVRgw+gTWpwTszyORHoqaxRKhlIzptAVz+08m/WNGDMr3XRNJCYywCyDvd72N6yvJljrwzGKq+hDa4rTZeRxXGMfF05y50E/ZgO2bFBa0ytLfVkY+wvKPGJSlh36Lw9bL61plNweWRnVcfbPMXOKCTadQqn7O/LJih8TCEhuSjQYF4vSoVIc4CUyrmXylNUrLWEjD33Wd1UAC/zlH0Yo7ELblJaBSmHgxSrmQfIGk4OkgZ8NDYVpYkrfvIc95Au1w7Rt0e0Co0C8SXKPk5SYj5vDaIYEAShkvfGLC1ls5R9nKTYzSB5T4ZW50qat45LPj5B6SdLlH6QtEY42nOH1Y40W7pmdUJf6fBLtNqxvHIZInu0VtWxN5umV9Z8/s6etwZBBOfs7V7mKXHDS6qkkOdGzbxQjxtNVVKk2fNW2dTORiiRyVL2SZoS02MUOOml8Mp8dBPkbgeh00PheJqy2Syl56I09omXvJfLgy3WyMuyJzHyD0iEdhf5byeqV4F4tkSJqRD59slVI1etUaG10zTYmsyPVy6LzZ6jVJA0AYKsU+BmlKI3Q+Q75iXPPkEQ+uo0H9kIeTo0Cq03QtOeKsXKW/tj5bkWrySt/c/VzJe3wh54IDQKGfXvJj9TrU733cGVaVPWyjdrEIZMnlv2vopLFPtCJ9khk365YpBNeXRjl4+ij7O0lEpQMkvWNaT2nBwtn5PKqU+IKGuNDq1a4skIkUtI5LoQoWTlwJhnSYqc1UhqVcm3MkJzO8vyJo69PCK1duRyxYCVFU2WkeK0l5SjY/YUIkT0MkvRMypB0mnsMTWNgzTGmlS+2bgur7F8ScNgjIiyE9bUFh0u8n4SWX3v5RLFLnrJ1a2Q0q1akzCeH6PZzBpBYDFK3o7aH3iRYqeU+slFn8QodMpDeq9sj6ASJFqtP0mSSJJkUvp08pwN0UR8jRvFyyWKXtBJaRckdbrIezFGS0+swAmSSu4L0ZURbfl4kPQOQUJWyXUiSJH54mo6TrhIaRckWmVS9nkocGO2+ub+cokiJ1WSWiVS+tzkv25PQ2HPHSa6dfJeGLOXIKqYC6oiqCxP4eG+WRlQjDU+782kaTs0mb/5uQlrgtA+jbR9GmkDGumnQhSdrw9qijM+e6RZ7bQFSxT9xJ4gVgiSe3XyfjZBidqRiHNj5DukktwqSLQr5DoWoLF4tmbC1TXycmVfWZq9GSDvIY2UTvvYuhVS+1zkPuGn4PUIJSpGsiUbTdNQqcky8splsalzVKT0LR+5OiUSkkKuU2GafZKm8D5BcEikHg7S/xv3k7tXIgiZtKMBimbqD6k4N0bewxrJrdZUE3Kfm/y300TZGPn3ySQka7LeUO2kxivHWzEFSYMN8nf9pLVLpFXMv7V2vhUpPRUgz0A5r1RyHQ/QxIPakbZFSl53kyIJkro08lyYsIOq9c6JTNqx4Oo0OL9YI6ylPg/5v5ig5Auyy0uQfEddpHYqpPSq9oSyLnKfDVG0rnxtX1lu+tgbBWO0OimxNOAh/43VB5mNykjsGVHxoTXJrtpr/abVbpVcR/00Nre5J8FdRESbqHhj7K/r6TjeV88heTSK7JRnWzuaM9aMzD8H0fN5Br5fshg7+LpTw/40uUkcUU4jcTSCzB3vuqOy2duN+6Qx1qyOIXgPSig8iCPR5Kh4xraPafV5FP3Q9r7utLA/U+H+DBIlGe4Tbg7Q/uI4SGOsaTKGP/VBfR7F5M9/ZrdzxlblFuzBB6UU4g8LEAc8OLLOwubsTZdD9Ls4zL5zGDnKIdpfHQdpjG2C2D+KsTNtmLkYxhzXprE/nYHJz8eRKAGFnyYx/YcK34XhhlM+sLdD4ecQLs0pCPwrUD1ZKvtL4iCNvfmeT2Fodwta/rbJv92DuPRo46+vJkG/EkVYmYLvH1M1Q7sZ22alAorZaZxW96D/ywzct6IIH+LekG8rc2ESvo/icN2IIrSP85kBPHCAvfmW5zD+ZQTGZgMmhwL3pwG4t1ItUcpg+uNhhBwhJK/pW/gCxhirsDyD0weuQr4cQah2+Sz2l8VBGmMN7Nq163UngTHG2F/AemEYt3gz1gA/uzDGGHvduE8aY4wxxtgOxEEaY4wxxtgOxEEaY4wxxtgOxEEaY4wxxtgOxEEaY4wxxtgOxEEaY4y9CXJzGP/oCPrf3YM97+6B0+lEz3tHMPJTzRJlhRQmPz6Cwb096N/bgx7tCM59k8J2LGRW+G0SI55B9Ch2Gt7Zg/7/PI2pxertzIVpjP7XIHr29qNH3YOe/zyNq/dzr7TvzPfnMKT3Y4/TCaeyB3ve2YOeA0MY+XauiWMzEf+4By27T2OGJ6BmbxAO0hhjbKdbnMSQS8f4sgeTD5ew9HgJ2UwK4feySC3mV7czU7jq0THy+yDGH6SRnE8jcU1F8mMd7q9SeJWVzHI/nsbgoUvIHLiKxGM7DakI3MUk0pVR0uIkhg8OY6YjhEQqibSRRORQBqEPdIzc23qomJmbQaY3hNnHWWQzS1jKJDHpLmDyHzr0j+PrBmqFeyM49y/jlY6fsdeCGGOM7WBLNHZQItEXpGSx5q3HMYo+zK/8b/ammySHQoEHlRsVafasQmjVaSyzxSRkI+SRQcrZWapNQjYeodls+f/yFD0pE2QvRV9UbPQyScE+WMfwcmtJmD3vqjkuInqZoEA3CK1umsg2/BhRPkb+XoXkdhDafRTb4v4Zex24Jo0xxnYw8/44rj4woX3og1a7nGOXG54Byf6fHKI/xFGQXNAHKjcSGDzkgrScQOSHzJbSYHwbxsxzFd4PddQmQT7ohV5exagQR/SnHISmQ2+t2Mih4chBBeajaUR+21ISoF+eQWh/zYsOFaoiANOAsdjoUwXMfDwK48MQfJ28FiZ783CQxhhjO1jq5xlk4MTge8r6G5oJJFIm0NEDZ81aMuLdHijCROrh3Baa/DKYmTFgtmro79tg00cJzC0DUqcCqeYtRVUhShmkHm6xb1qrVBcgAnmYJgBIaKvdIYDcj36MPvVh7LyGlq3tlbHXioM0xhjbsQpIL2QASDCNSVz6+xEM7t2DtrY2ONVBDH81g0y5I3wug9wyINokSLUL/rXLcALAkwwa1aUVfpvC1X9Nw1hu8KZpwFgwAQnI/nAJ5z4YRM+7TrS1tWHPe0MY+X61r5eZySBbApztbXVfI7VLAExkMo1r89ZNw1pMA6nHJtCpQ++ueS83hcCXBfhu+KFyJRp7Q3GQxhhjO1YWhWcAUED2eQtcH09i5uES8lkD0x+2IX7xCI58ZHeaXzaRLwEQor7WSLRAADCXizBrRzeW5hA6OYyRj4YwfCVVn4TlLLLLAMwcsnDBd30GSSOL/OM4AkoKVz/UMfy9VTtWWC4AEEBLfVQk7DQUl/N1722YhjUU7k0jlpPg/tQPV1VgmsPURyEUPhqDv6vpr2Nsx+Eg7a+mkMLUp0ewp20Qlx5t71fnfp3E6Ifvo19pQ0vLLrS0OdFzYAjn/u8MMuu1sSxPYehvu7BrVxN//+HEuXvbm27GdjyHjMETXui9MiQBQMhwfRKCrxswvruKaLkFsbYGranvVjB4UIXUrkF3rdOk2u7C0AkdWqcE4QDQrsF/xQ/dkcPM9UkYAODYYpVVs2motDyH0JcRtBwfx9iZ6s9kvvUjVApg8kyT38XYDsVB2l9FKYf4v05jUO3H8D9nkDG3czB6AfEv34d24DQu/ZSFcnwUYzcjGPt8GGohjvGPj6Dnvfq5lBhjG2mD9DcAJRNm7RwTDhX9ewVgJpEyALRKaAMA00Sx9mvMIgoARGuLFWBVkeG5kUb+WRLhww06drW2Wc2nywXU1YF1aFDbAfNRGoYJSK0CgAmzWH99Mc0iTAAtrfVNoRumoVbJwOTfhzGthBG75UVVKPbHJM5dA0av+yCv9XnG3hBbee5ibxQTxo8hjH4+jumFQoML9Ksz/jWEof+JoyBcCN2LIzhQfpr2wnd2GJc+0DF6fxK+YxLkB2Hoa1yDlUN+eAc2ukC3oJ8fjtlfhgylSwLuZ5HJAqjquC8ghLACOBOArEBuBcx8FoUSqq/uz3NWU+g7Cjb983EoULoALGaRWwaqRwS0QLQCeG6lQbyjwOkA8s/rmzQLuRwAAUV5xR+waWDywyGMSyHM3vBCqTzfeBtOAAAO+klEQVTOUgbj/30JpjcCl5lBZuXBMIO8aQKlPLKLGWRa26B0NBEMMva6ve45QNif6NksBQ8qJHXr5P1igmLzSzRxTBAAgtAoNL8N+8hGyNMOAkDqJ4m6OZSIiCgVIk2AAEHaF8n6919EyNMqyHVlaRsSxNjbJT/lIQmCXFfSNe8UKXJcEBwqBR8SEWVp7JAgSF6K1vwQi9Ne+zu28hsr0uwZmVA3/xoRvZwlfwcIso9mXxJRPkredpA4PEG105bNXlAIDpUCc1tIQtmzBIUOaeS+nKB8o/ezE+QW1vVo3b/uICV4vjT2BuDmzrdaG/TLCWSNWUQu+uDubdv2YejGt2OYeQ7AocLzX64GQ+QB9HkxPGA1g6S+GcfMZkZvMfYXJx32YajTRGp6BkZlp/+SgbRhAh069F4AkDF0XIe0PIf4XGVzo4n4z3EUWgcxfGwrtVgCg38fhooMZqZrpvB4asB4DkgHdfQ7AEg6hg7LMB/Gkahsni2lEL+Xgej1YHgAW/PHNM4d9SNzMoroZ666KT4Aa/+jU1FEp2v+7oTh7QLQqiN4J4ro9WGo3I7E3gSvO0r8q0lcUDZ+ylvrzyGT/5dX2XueIttak5am8D77+xo8vVdKfKKuHIPvbs2GXJPG2Lqyd7ykCJn0K0m7BqlIS7c8pAiZPLcqfjfFJIX2SyQdDFHSrmrKxwOktUrkurhGTXdT8jR7QSMhuSgYt7/4ZZZiZ1QSkk7hVMWmjyfILQvSLsxS/qWV1uRlnaRWlfy/NKz/2tiLWfJ3CZIGPOQ/62/4F7q71pIDRERpCg0IXnGAvXFe7VkiN4fJ62OYujeHtN1fQUhOKJ0KFFXF4LEAgms+uZnI3Y9g7LtpxB8kYTzNwXRIkDoU9Kj90A7oGDrhhatRz8/lDOLfT2LqxzgS8wYyz01rv3tdcJ8cwcgJrX6eoF9H0HPgasWTqIDndhbRkxJQymHu2zDCt6YR/z2DgvAimo3AU1UtZCJzbxLj304jPpeEkTMByQntPTeGL4zCf7C5LqrSXh2eYw2GoDelDeruLX70z/A8gfgj67ladPWsOxeRuleFgAGzlEPiQQo46vo3JZKxN598PIJE+1WM/o8Pg7cBAROmpMF7O47R4xXXWKEh+FMc8pej8Ll6AAGYDgX6tThCZ7TGNd1NkaBfiyOhhjD66SB6SgLCNAHVjbH7o/BV9pXr8iF6vwWjn49gULPSCucgRu9GEDi4xX5gZgaZpyYKi9MYX2PFAq3dh+BRHirA3jJbje7yD0Kky1Y/I+WQn0I3IxSditDY5QB5eiWrj9JnDfofERFlZyl0VCEBkOjUyX95gqIzMYrdmaDQGZ1ku/+SZ6r2ua9IS3eDpHdatTdSn4eC1yMUvRulyDX/yuvy4fDKU2TVpzMJip7XSACr/SuezVLokFxVYyX2haiq90dFeqU+LwVvRCl2d4KCh5WV2qGqp9kda5tr0uYCpDjsc3Z4onEfkbK4f3XbozXbck0aY4wxVmdrQVrRXtQWIPlEpK6DKBVnyd8lkWeq/rZdnB8jT6cd3J2YoOSLuk0ofdlFwqFRMFX1SUped5PsAAESaedjlK2tts5MkEcupytany4iSn6h2UGKTuGHMfL3CitQvB6j5HyM/N0g6VRstVngcYS8XVZgo5yM0FJl3Gh3kgVA6PRbHWd3tO0N0op3vFbAC5A4GV2/KWU+RJodpKEvROnKc9UgSCu+yFP+WZ6KW2+fYYwxxt5oWxs48HsU04sAIDB41FM/F43ogaaq6FdrqrZz0zh37Bym/wCkQ2HEbvugtdZ+GFC6FKBVRX/FTNGFn85h6OMZ5EqAcnISM9fdkGubNDt9GD2jWbv6YRRjddXiJowFw/qno4j45z5E3xlFPDWLsfNuaL1uDB9Woaqq1SxQiGPkmA9TiybE/hCiN71QKtsLWhUoHeVjyyBTO4/RW65QWD1g4RDrN6UIsTr9RyGPbN0GJoxbQ+hXnWj5j11o+Vsb2nbbk+Lu3oN+9zBGv4mvPykuY4wx9hbZWp+0Z1lrzh0A2acZAGrNBjJ8dxM1rxUw/akfk4sAWnWM3vCvObpGtDvh7Gpb7eO0HMfox5PWGnWyB6ErDQJDm3agH7IjhVzJwMzdFEID2uqb5dFQALA8h2TrBOJTvqq+VK4vY4hAAWAi/uVpXH1kAkJD4J8BaLVRSMGA8Yf97y4N/X+xaXeKFRPiCrFBbxdHxVI1tRPpOhQMHvdCoA3KuypGupzWpJhmAdk/0pj7eRrRn6dw6ecpXL3mxdgPk/D18mJ8jDHG3m5bC9KUHigOIFUyMXfFh9G+aYQObdBh8/cwQvb6bvKJwPrrqR0IIfkzVjr/5767agV3ANQTI/Cst6vdMtoA5AAYCwZMVHSWXV4NqkRfAJFbvvrO7pI92ePCOEa/sRYClg77cW5fXYSGmS9DmC4AcCjwfnkOGg/p3hrhQuDW2gMJfBdCCP54DkMfjiO1MIXTx1rgnJuAu/3fmEbGGGPs32xrzZ29PowcsyOl53O45FYx+PdxxJ+u3RYVvzWFVAmAQ8HQcX39pjGHgNRe3iKD6A9xa26e9ebiKqucR8hehmTFQhLlijTl8PCaM98DwNytSVhTDUlwnxiqrrnLzWHcO4ihrw2gVYX3ZgyTx5sbVTT38Z7m1qh8A9atbKmoPTM3WmaqVLFUTWuDBaA3oBwLI3zKHsW2GEHoW2OT38AYY4y9WbZY9yPDeyuOohjCyHcGCqUC5r49h/d/uAr3hTGMfe6u7rtVSiF+36qVQqsLumsTTVXLc4g/tAOA9kEM9q2/OZ7lVteXa22rCugKhmE1mUJA3bvOpI6lFGL37CBADEI/IMF8nkFqLo74T1OY/CGOTEmBfiaMwOd+uDubPx5prxue4/U9sprTBs25xY/+CaT21SjXNE2YwNoB9LIJsxxAS231U6RsSGDwsA7560nkSiZS9+LIfaLy2nyMMcbeWltvoGtV4budxJFTkwh9GcLk/+ZgLmcw89URDP4axsx0YHVQQCGJVHkNtc6e6gBuI39kVjqLiy513bm4ACCzkLbWrQOgdilVQYMxb6zUyKm1gxoqLVekV2Qw6X0fUw4BSXZC6XQjeDuMIwc1yA0GPWxEPTWG6KnNf24nEk4nFAesuecKeRSAtYOmZ9mVwQLCKWMrsWZ5XcBcCTCfZJApoX7wCGOMMfaWeMVbnIB80I+xBz74vx+F76OrmHsO5O6NYPjiIJJX7KbJXG71Br1bgnMze13OrzZZtjnRtu7GOcTvp+xATMbgAbXqvfSCnQqhVI0crfM0h6wd6In3/Jj+xc81No1090MVgLEMmNkMsusETYWnmZXgWentabyky0YqR5CW1tuQMcYYe/Nt09qdAuqJMOI/BVdGQBo/Rq0+aIDVN2yrN1VRcWPeKLj7I4qp+3ZI1zkEz4GKerRSGqlyh7Su/vVr5F4lvX8lkguDffaJXMysOz3Gai2mjEFXxYhbmMj87wxST5vY33J+JdAT7VtpMmWMMcbeHFsK0i7db3w3Fvt8GC73NysUVvuGtTtXas/MbHallqopnT1Qys2Kz7JYe0ElE/Hr44gvA4AE/aMA9MpALGfAsAaXQlJVKOvd4NvbVtNrN6uxRhS4P7BHz5pzSPy+1nYG4g/sWsx2He6DVT0FEb84BN/N1IZ7K8ynVvLCqbmwlaWiGWOMsTfFloK06K+ZNd4xYb6w/9mprN5EO/qhddr/XpzBzMI6X16omRRW0jFkr/dm/h5HPLfGx+6P4tzXVmd/6eAoxs7W3MIfG0jbgwaUver6I0Q7BqGVJ6ldnEHst3WqiEo5ZP54e2dYzfx4DoPvtKDlnUGc+7E+39WT56ypMEoZTN+Jo9GZMH+LIPK7NaxAPXUOnqq+fAItrYDxawJrZG05JYhUjPL1fjj4CusQMsYYY2+ArSxTIB2doKUGSyDlf/GT6rCWfHJdrlr9ktJXXCtLCEn7AzT7pPqzxScJilz0kqtTJf/d6uWkig+DpLVan1XPxurWiMz+EiTdXp5J9Pkp1mA9qKXrur1/ibzTG681lL68ml7R56fo45rPPEtT7HqA3N0KuS4m1l8SacfY5LJQL2fJ37G6pik6Gi99lb6uk+QAoVWj4IOa3HmRoOB+a5+i10+zdSuFFSl6QhAkD008qX1vNd2Ji/Y+IEi7MLv+OqGMMcbYW2BLvXoKP51G/3sz8Hnd6O9sgzCzMOamMfldHJmSgHIsjMkL1asQqBcmMZY6gnPfZ1D436t4/90I1IEeOFuKyD/JwFjIQdrnw+j3Cfj3VXcrFwMhRG/lMPT3SaS+HkL/Hz74jmmQSwUY9yOY/DGFAiRoJ0OYvO6H1qBXemY+bdXCCBU9Gw0RtdMbfngEIz9mYP4+jqG9Eah9/XD+DShmMzAWMkC3B/4rsxg9quzsWp2SiUIui+xTA+lnq69lHs4h5ZDhlJ2QpTWOwLHGvyuo56OIZt0Y+uccLh0dhHHGB7fmBHJJzNyaxPQjE6LXi8kfxxrMTSes1QoK0zitOjF56AgG39OgygIomcg9TiHxcxQzjwqAUOD+bAKTF/WtDTxgjDHG3iRbiezGPvORe79KSrsg4QBBSCR3aaSfCFB4Or1OLUeekreD5D2kWZ8tf+5kkMbupjesjSo+jlH4rIdc3TJJQpBolUjp08lzPkyRh+vVrSxR2K7NQbuXYs1We73MU+JWg/SeCFD4TpLyO31B9QdB0mSxWhO23p+QSDlVv0h69m6A9E6JpE6dAncbLVlfse2DCQqc0EntkEg4QEKSSd3vIf+1WPXC9DXyDyMU/sRHnsMu0roVkiW7XDkESbJC2kEP+b6YoNna2kzGGGPsLbaLiOh1BYiMMcYYY6yxbZqCgzHGGGOMbScO0hhjjDHGdiAO0hhjjDHGdiAO0hhjjDHGdiAO0hhjjDHGdiAO0hhjjDHGdiAO0hhjjDHGdiAO0hhjjDHGdiAO0hhjjDHGdiAO0hhjjDHGdiAO0hhjjDHGdiAO0hhjjDHGdiAO0hhjjDHGdiAO0hhjjDHGdiAO0hhjjDHGdiAO0hhjjDHGdiAO0hhjjDHGdiAO0hhjjDHGdiAO0hhjjDHGdiAO0hhjjDHGdqD/D/gmLc7ub+5/AAAAAElFTkSuQmCC;" vertex="1" parent="1">
                    <mxGeometry x="550" y="7258" width="640" height="95.43" as="geometry"/>
                </mxCell>
                <mxCell id="149" value="Time (Seconds)" style="text;html=1;align=center;verticalAlign=middle;resizable=0;points=[];autosize=1;strokeColor=none;fillColor=none;" vertex="1" parent="1">
                    <mxGeometry x="1080" y="7570" width="110" height="30" as="geometry"/>
                </mxCell>
                <mxCell id="150" value="Score" style="text;html=1;align=center;verticalAlign=middle;resizable=0;points=[];autosize=1;strokeColor=none;fillColor=none;" vertex="1" parent="1">
                    <mxGeometry x="810" y="7400" width="50" height="30" as="geometry"/>
                </mxCell>
                <mxCell id="151" value="A" style="ellipse;whiteSpace=wrap;html=1;aspect=fixed;" vertex="1" parent="1">
                    <mxGeometry x="-420.17999999999995" y="7620" width="40.09" height="40.09" as="geometry"/>
                </mxCell>
                <mxCell id="152" value="B" style="ellipse;whiteSpace=wrap;html=1;aspect=fixed;" vertex="1" parent="1">
                    <mxGeometry x="-139.99999999999997" y="7739.91" width="40.09" height="40.09" as="geometry"/>
                </mxCell>
                <mxCell id="155" style="edgeStyle=none;html=1;" edge="1" parent="1" source="154">
                    <mxGeometry relative="1" as="geometry">
                        <mxPoint x="-480" y="7500" as="targetPoint"/>
                    </mxGeometry>
                </mxCell>
                <mxCell id="154" value="B" style="ellipse;whiteSpace=wrap;html=1;aspect=fixed;" vertex="1" parent="1">
                    <mxGeometry x="-420.1799999999999" y="7479.91" width="40.09" height="40.09" as="geometry"/>
                </mxCell>
                <mxCell id="158" value="A" style="ellipse;whiteSpace=wrap;html=1;aspect=fixed;" vertex="1" parent="1">
                    <mxGeometry x="-140.06999999999994" y="7159.91" width="40.09" height="40.09" as="geometry"/>
                </mxCell>
                <mxCell id="161" style="edgeStyle=orthogonalEdgeStyle;rounded=0;orthogonalLoop=1;jettySize=auto;html=1;exitX=0.5;exitY=1;exitDx=0;exitDy=0;entryX=0.5;entryY=0;entryDx=0;entryDy=0;" edge="1" parent="1" source="158" target="118">
                    <mxGeometry relative="1" as="geometry">
                        <Array as="points">
                            <mxPoint x="-120" y="7220"/>
                            <mxPoint y="7220"/>
                        </Array>
                        <mxPoint x="-130.04" y="7290" as="targetPoint"/>
                        <mxPoint x="-150" y="7430" as="sourcePoint"/>
                    </mxGeometry>
                </mxCell>
                <mxCell id="165" style="edgeStyle=none;html=1;exitX=0.5;exitY=1;exitDx=0;exitDy=0;entryX=0.5;entryY=0;entryDx=0;entryDy=0;" edge="1" parent="1" source="162" target="163">
                    <mxGeometry relative="1" as="geometry"/>
                </mxCell>
                <mxCell id="162" value="Add random noise to the Score" style="rounded=0;whiteSpace=wrap;html=1;" vertex="1" parent="1">
                    <mxGeometry x="-80.02000000000004" y="7460" width="160" height="40" as="geometry"/>
                </mxCell>
                <mxCell id="163" value="&lt;font&gt;Append Score and Datetime to Image Score History&lt;/font&gt;" style="rounded=0;whiteSpace=wrap;html=1;" vertex="1" parent="1">
                    <mxGeometry x="-80.02000000000004" y="7520" width="160" height="40" as="geometry"/>
                </mxCell>
                <mxCell id="170" style="edgeStyle=none;html=1;exitX=0.5;exitY=1;exitDx=0;exitDy=0;entryX=0.5;entryY=0;entryDx=0;entryDy=0;" edge="1" parent="1" source="166" target="167">
                    <mxGeometry relative="1" as="geometry"/>
                </mxCell>
                <mxCell id="166" value="Add random noise to the Score" style="rounded=0;whiteSpace=wrap;html=1;" vertex="1" parent="1">
                    <mxGeometry x="-320.00000000000006" y="7460" width="160" height="40" as="geometry"/>
                </mxCell>
                <mxCell id="167" value="&lt;font&gt;Append Score and Datetime to Image Score History&lt;/font&gt;" style="rounded=0;whiteSpace=wrap;html=1;" vertex="1" parent="1">
                    <mxGeometry x="-320.00000000000006" y="7520" width="160" height="40" as="geometry"/>
                </mxCell>
                <mxCell id="172" style="edgeStyle=none;html=1;exitX=0.5;exitY=1;exitDx=0;exitDy=0;entryX=0.5;entryY=0;entryDx=0;entryDy=0;" edge="1" parent="1" source="171" target="152">
                    <mxGeometry relative="1" as="geometry"/>
                </mxCell>
                <mxCell id="171" value="Append Image ID and Score History to Img ID Scores List" style="rounded=0;whiteSpace=wrap;html=1;" vertex="1" parent="1">
                    <mxGeometry x="-199.95000000000002" y="7660" width="160" height="40" as="geometry"/>
                </mxCell>
            </root>
        </mxGraphModel>
    </diagram>
</mxfile>